<svg xmlns="http://www.w3.org/2000/svg" width="62.255" height="57.19" viewBox="0 0 62.255 57.19">
  <g id="Group_204" data-name="Group 204" transform="translate(-1655.5 -51.297)">
    <ellipse id="Ellipse_57" data-name="Ellipse 57" cx="12.73" cy="12.731" rx="12.73" ry="12.731" transform="translate(1673.878 69.756)" fill="none" stroke="#3278fc" stroke-miterlimit="10" stroke-width="3"/>
    <path id="Path_1456" data-name="Path 1456" d="M-303.93,368.4v-1.285a20.837,20.837,0,0,1,6.1-14.755,20.836,20.836,0,0,1,14.755-6.1,20.858,20.858,0,0,1,20.858,20.858,20.735,20.735,0,0,1-6.552,15.156" transform="translate(1969.741 -284.631)" fill="none" stroke="#3184f9" stroke-miterlimit="10" stroke-width="3" opacity="0.75"/>
    <path id="Path_1457" data-name="Path 1457" d="M-258.047,393.026a29.442,29.442,0,0,0,9.123-21.335,29.608,29.608,0,0,0-8.657-21A29.606,29.606,0,0,0-278.573,342a29.607,29.607,0,0,0-29.607,29.608v1.286" transform="translate(1965.18 -289.203)" fill="none" stroke="#3184f9" stroke-miterlimit="10" stroke-width="3" opacity="0.5"/>
    <path id="Path_1458" data-name="Path 1458" d="M6.62,249.224l3.7,1.967,5.946-13.407-1.924-1.035Z" transform="translate(1666.111 -143.399)" fill="#3278fc" stroke="#3278fc" stroke-width="1"/>
  </g>
</svg>
