<svg xmlns="http://www.w3.org/2000/svg" width="108.998" height="37" viewBox="0 0 108.998 37">
  <g id="Group_532" data-name="Group 532" transform="translate(1 0)">
    <g id="Group_204" data-name="Group 204" transform="translate(0 1.27)">
      <ellipse id="Ellipse_57" data-name="Ellipse 57" cx="7.87" cy="7.871" rx="7.87" ry="7.871" transform="translate(10.435 10.485)" fill="none" stroke="#1792e6" stroke-miterlimit="10" stroke-width="2"/>
      <path id="Path_1456" data-name="Path 1456" d="M-303.93,359.95v-.795a12.882,12.882,0,0,1,3.773-9.122,12.882,12.882,0,0,1,9.122-3.773,12.9,12.9,0,0,1,12.9,12.9,12.819,12.819,0,0,1-4.051,9.37" transform="translate(309.378 -340.799)" fill="none" stroke="#1792e6" stroke-linecap="round" stroke-miterlimit="10" stroke-width="2" opacity="0.75"/>
      <path id="Path_1457" data-name="Path 1457" d="M-277.186,373.547a18.2,18.2,0,0,0,5.64-13.19,18.305,18.305,0,0,0-5.352-12.986A18.3,18.3,0,0,0-289.876,342a18.3,18.3,0,0,0-18.3,18.3v.795" transform="translate(308.18 -342)" fill="none" stroke="#1792e6" stroke-linecap="round" stroke-miterlimit="10" stroke-width="2" opacity="0.5"/>
      <path id="Path_1458" data-name="Path 1458" d="M6.62,244.462l2.288,1.216,3.676-8.289-1.189-.64Z" transform="translate(3.106 -211.677)" fill="#1792e6" stroke="#1792e6" stroke-linecap="round" stroke-linejoin="round" stroke-width="1"/>
    </g>
    <text id="BioIt" transform="translate(107.998 30)" fill="#fff" font-size="32" font-family="GeomaRegularDemo, Geoma Regular Demo"><tspan x="-65.047" y="0">BioIt</tspan></text>
  </g>
</svg>
