<svg xmlns="http://www.w3.org/2000/svg" width="90.275" height="32.63" viewBox="0 0 90.275 32.63">
  <g id="Group_457" data-name="Group 457" transform="translate(-1801.725 -30)">
    <g id="Group_204" data-name="Group 204" transform="translate(1802.724 32.036)">
      <ellipse id="Ellipse_57" data-name="Ellipse 57" cx="6.921" cy="6.922" rx="6.921" ry="6.922" transform="translate(9.177 9.221)" fill="none" stroke="#1792e6" stroke-miterlimit="10" stroke-width="2"/>
      <path id="Path_1456" data-name="Path 1456" d="M-303.93,358.3v-.7a11.329,11.329,0,0,1,3.318-8.022,11.328,11.328,0,0,1,8.022-3.318,11.34,11.34,0,0,1,11.34,11.34,11.273,11.273,0,0,1-3.562,8.24" transform="translate(308.721 -341.458)" fill="none" stroke="#1792e6" stroke-miterlimit="10" stroke-width="2" opacity="0.75"/>
      <path id="Path_1457" data-name="Path 1457" d="M-280.923,369.743a16.008,16.008,0,0,0,4.96-11.6,16.1,16.1,0,0,0-4.707-11.42A16.1,16.1,0,0,0-292.083,342a16.1,16.1,0,0,0-16.1,16.1v.7" transform="translate(308.18 -342)" fill="none" stroke="#1792e6" stroke-miterlimit="10" stroke-width="2" opacity="0.5"/>
      <path id="Path_1458" data-name="Path 1458" d="M6.62,243.532l2.012,1.07,3.233-7.289-1.046-.563Z" transform="translate(1.933 -214.701)" fill="#3278fc" stroke="#1792e6" stroke-width="1"/>
    </g>
    <text id="BioIt" transform="translate(1892 55)" fill="#fff" font-size="23" font-family="OpenSansHebrew-Regular"><tspan x="-49.145" y="0">BioIt</tspan></text>
  </g>
</svg>
