<?xml version="1.0" standalone="no"?>
<!DOCTYPE svg PUBLIC "-//W3C//DTD SVG 1.1//EN" "http://www.w3.org/Graphics/SVG/1.1/DTD/svg11.dtd" >
<svg xmlns="http://www.w3.org/2000/svg">
<metadata>
Created by FontPrep 20130207 at Tue Jul  1 12:06:57 2014
 By eli ben yosef
Digitized data copyright (c) 2011, Google Corporation. Copyright (c) 2012, 2013 Yanek Iontef (yanek@netvision.net.il)
</metadata>
<defs>
<font id="c21c03ab7080535ee57497eccfdf86e3" horiz-adv-x='1024' >
  <font-face 
    font-family="OpenSansHebrew-BoldItalic"
    font-weight="700"
    font-style="italic"
    font-stretch="normal"
    units-per-em="2048"
    panose-1="0 0 8 0 0 0 0 0 0 0"
    ascent="1638"
    descent="-410"
    x-height="1118"
    cap-height="1462"
    bbox="-322 -651 2023 1714"
    underline-thickness="50"
    underline-position="-50"
    slope="-12"
    unicode-range="U+000D-FB4B"
  />
<missing-glyph horiz-adv-x="748" 
d="M136 68h408v1229h-408v-1229zM68 0v1365h544v-1365h-544z" />
    <glyph glyph-name=".notdef" horiz-adv-x="748" 
d="M136 68h408v1229h-408v-1229zM68 0v1365h544v-1365h-544z" />
    <glyph glyph-name="glyph1" horiz-adv-x="2048" 
 />
    <glyph glyph-name="glyph1" horiz-adv-x="2048" 
 />
    <glyph glyph-name="uni000D" unicode="&#xd;" horiz-adv-x="1044" 
 />
    <glyph glyph-name="space" unicode=" " horiz-adv-x="532" 
 />
    <glyph glyph-name="exclam" unicode="!" horiz-adv-x="586" 
d="M188 -27q-162 0 -163 154q0 79 54 133q55 54 137 53q164 -1 163 -155q1 -78 -55 -131q-56 -54 -136 -54zM150 485l157 977h340l-256 -977h-241z" />
    <glyph glyph-name="quotedbl" unicode="&#x22;" horiz-adv-x="928" 
d="M803 934h-199l74 528h276zM397 934h-196l71 528h277z" />
    <glyph glyph-name="numbersign" unicode="#" horiz-adv-x="1323" 
d="M750 614l69 232h-196l-70 -232h197zM967 614h258l-19 -206h-297l-116 -408h-220l117 408h-194l-115 -408h-215l113 408h-238l18 206h277l70 232h-252l18 209h289l119 407h217l-117 -407h199l116 407h215l-116 -407h239l-18 -209h-279z" />
    <glyph glyph-name="dollar" unicode="$" 
d="M735 465q0 85 -84 119l-57 -262q65 10 103 46t38 97zM502 1022q0 -79 80 -111l51 246q-131 -15 -131 -135zM1034 486q0 -174 -126 -282q-126 -107 -367 -124l-39 -199h-140l44 201q-209 12 -355 86v266q198 -106 404 -117l71 322q-319 119 -319 365q-1 174 127 280
t350 121l35 151h139l-33 -151q166 -22 295 -90l-106 -232q-133 65 -242 74l-63 -299q132 -52 195 -100q130 -98 130 -272z" />
    <glyph glyph-name="percent" unicode="%" horiz-adv-x="1753" 
d="M1376 690q-39 0 -75 -56t-59 -155t-23 -195t55 -96q42 0 78 56t59 154t23 196q0 96 -58 96zM1679 582q1 -159 -53 -305q-54 -147 -148 -221t-226 -74t-206 78q-73 78 -73 238t53 306q54 146 148 220t226 75q132 0 205 -79q74 -79 74 -238zM518 1274q-62 0 -110 -129
t-48 -277q0 -96 56 -96q65 0 112 132t47 274q0 96 -57 96zM471 0h-240l1088 1462h235zM821 1161q0 -161 -56 -305q-57 -144 -151 -218t-224 -73q-130 0 -203 83q-72 83 -72 245t55 303q113 287 365 287q139 -1 213 -81t73 -241z" />
    <glyph glyph-name="ampersand" unicode="&#x26;" horiz-adv-x="1450" 
d="M383 394q-1 -72 45 -115t138 -43t200 59l-225 328q-89 -51 -123 -105q-34 -52 -35 -124zM860 1140q0 111 -111 111q-54 0 -91 -46q-37 -45 -37 -105q0 -116 41 -180q114 59 156 111t42 109zM510 -20q-218 0 -330 98t-112 280q0 144 78 248q80 104 274 201
q-76 130 -76 258q0 195 118 307t301 113q183 -1 281 -83t97 -224q0 -280 -365 -426l195 -263q46 61 81 122t78 173h300q-133 -313 -310 -497l205 -287h-350l-72 98q-175 -118 -393 -118z" />
    <glyph glyph-name="quotesingle" unicode="'" horiz-adv-x="522" 
d="M397 934h-196l71 528h277z" />
    <glyph glyph-name="parenleft" unicode="(" horiz-adv-x="694" 
d="M74 280q0 338 122 628q122 288 382 554h262q-500 -546 -500 -1192q0 -308 117 -594h-234q-149 266 -149 604z" />
    <glyph glyph-name="parenright" unicode=")" horiz-adv-x="694" 
d="M618 856q0 -341 -124 -630t-379 -550h-262q499 544 499 1192q0 306 -116 594h233q149 -265 149 -606z" />
    <glyph glyph-name="asterisk" unicode="*" horiz-adv-x="1116" 
d="M772 1169l387 29l-18 -254l-338 43l160 -336l-246 -73l-90 337l-197 -278l-207 164l275 248l-326 92l86 237l338 -174l33 369l256 -51z" />
    <glyph glyph-name="plus" unicode="+" 
d="M109 612v219h366v369h219v-369h367v-219h-367v-364h-219v364h-366z" />
    <glyph glyph-name="comma" unicode="," horiz-adv-x="569" 
d="M377 238l8 -23q-121 -260 -262 -479h-225q74 168 194 502h285z" />
    <glyph glyph-name="hyphen" unicode="-" horiz-adv-x="659" 
d="M94 674h524l-53 -250h-524z" />
    <glyph glyph-name="period" unicode="." horiz-adv-x="584" 
d="M188 -27q-162 0 -163 154q0 79 54 133q55 54 137 53q164 -1 163 -155q1 -78 -55 -131q-56 -54 -136 -54z" />
    <glyph glyph-name="slash" unicode="/" horiz-adv-x="862" 
d="M205 0h-295l809 1462h295z" />
    <glyph glyph-name="zero" unicode="0" 
d="M807 1034q0 201 -123 201q-79 1 -149 -103t-118 -302t-48 -344q1 -144 29 -200t102 -57q74 0 144 105q69 105 116 302t47 398zM711 1485q399 0 399 -472q0 -473 -168 -753t-473 -280q-199 0 -301 122t-102 392t84 509t226 361q144 122 335 121z" />
    <glyph glyph-name="one" unicode="1" 
d="M383 0l180 829q32 140 76 287l-62 -47q-59 -44 -262 -170l-133 215l566 348h249l-309 -1462h-305z" />
    <glyph glyph-name="two" unicode="2" 
d="M788 1066q0 79 -40 119t-110 40q-68 0 -138 -34t-170 -118l-146 203q132 112 252 160t250 47q188 0 300 -98t112 -259q0 -200 -161 -386q-80 -92 -269 -248l-269 -222v-10h568l-54 -260h-962l43 213l477 424q181 159 249 255t68 174z" />
    <glyph glyph-name="three" unicode="3" 
d="M698 1483q190 -1 298 -91t108 -244t-95 -261t-261 -135v-4q130 -26 198 -106t68 -202q2 -202 -164 -331t-437 -129h-12q-239 0 -387 79v267q170 -101 350 -101t266 63t85 177q0 172 -258 172h-138l46 221h73q166 0 263 62q96 62 96 172q0 67 -43 104t-121 37
q-135 0 -287 -100l-127 204q126 82 234 114t245 32z" />
    <glyph glyph-name="four" unicode="4" 
d="M616 543l58 248q45 216 82 305h-6q-34 -62 -132 -181l-313 -372h311zM858 303l-63 -303h-293l63 303h-590l48 234l770 925h311l-195 -919h170l-51 -240h-170z" />
    <glyph glyph-name="five" unicode="5" 
d="M408 -20q-237 0 -381 81v269q173 -99 339 -99q166 1 254 71t87 178q1 108 -57 156t-164 48t-216 -33l-104 78l207 733h755l-55 -262h-489l-88 -293q72 15 127 15q183 0 289 -103t106 -287v-6q0 -250 -160 -398t-439 -148h-11z" />
    <glyph glyph-name="six" unicode="6" 
d="M530 227q100 1 162 95t62 235q0 73 -34 115t-98 41q-64 0 -119 -36q-120 -78 -120 -255q0 -90 40 -142t107 -53zM727 950q157 0 243 -97t85 -269q0 -172 -71 -318q-142 -286 -468 -286q-212 0 -320 126t-108 346t62 414q197 619 780 619q126 0 223 -27l-51 -246
q-82 25 -191 25q-194 0 -314 -108q-119 -109 -185 -345h4q115 166 311 166z" />
    <glyph glyph-name="seven" unicode="7" 
d="M815 1202h-629l56 260h975l-41 -194l-752 -1268h-346z" />
    <glyph glyph-name="eight" unicode="8" 
d="M352 388q0 -86 50 -134t138 -47q88 -1 144 53q55 54 55 134t-37 138t-120 111q-118 -46 -174 -108q-56 -61 -56 -147zM688 1260q-70 0 -114 -46q-46 -46 -46 -120q0 -132 123 -201q185 72 185 221q0 66 -39 106t-109 40zM710 1485h19q177 0 287 -92t110 -234v-8
q0 -133 -80 -233t-231 -152q217 -141 217 -365v-7q0 -180 -142 -297t-365 -117h-11q-215 0 -337 100t-122 270q0 298 348 426q-165 132 -165 299v8q0 175 131 289t341 113z" />
    <glyph glyph-name="nine" unicode="9" 
d="M424 928q0 -177 156 -175q82 1 146 79q65 78 65 207v8q-1 87 -37 139t-109 51h-6q-59 -1 -110 -43t-78 -112t-27 -148v-6zM678 1485q414 -1 414 -505q0 -258 -98 -510t-264 -372q-164 -118 -404 -118q-126 0 -240 32v256q112 -41 230 -41q228 0 348 187q58 89 100 258h-4
q-110 -158 -284 -158t-264 103q-89 104 -89 278t73 313q144 277 482 277z" />
    <glyph glyph-name="colon" unicode=":" horiz-adv-x="584" 
d="M188 -27q-162 0 -163 154q0 79 54 133q55 54 137 53q164 -1 163 -155q1 -78 -55 -131q-56 -54 -136 -54zM400 1139q162 0 161 -155q-1 -77 -55 -131t-136 -54q-164 0 -163 141q-1 92 55 146t138 53z" />
    <glyph glyph-name="semicolon" unicode=";" horiz-adv-x="584" 
d="M377 238l8 -23q-121 -260 -262 -479h-225q74 168 194 502h285zM400 1139q162 0 161 -155q-1 -77 -55 -131t-136 -54q-164 0 -163 141q-1 92 55 146t138 53z" />
    <glyph glyph-name="less" unicode="&#x3c;" 
d="M109 641v143l952 496v-240l-643 -317l643 -281v-239z" />
    <glyph glyph-name="equal" unicode="=" 
d="M109 637h952v-219h-952v219zM109 1024h952v-217h-952v217z" />
    <glyph glyph-name="greater" unicode="&#x3e;" 
d="M752 723l-643 317v240l952 -496v-143l-952 -438v239z" />
    <glyph glyph-name="question" unicode="?" horiz-adv-x="940" 
d="M329 -27q-163 1 -163 155q0 78 55 132t137 53q162 -1 162 -155q0 -78 -55 -131q-55 -54 -136 -54zM711 1118q0 119 -133 119q-52 -1 -107 -17t-201 -83l-92 221q230 125 426 125q196 1 299 -87t103 -244t-111 -274q-55 -56 -155 -124t-132 -97q-32 -30 -52 -65t-38 -107
h-258l14 78q20 105 75 179t175 156t154 124q34 43 33 96z" />
    <glyph glyph-name="at" unicode="@" horiz-adv-x="1753" 
d="M977 889q-65 0 -128 -51q-63 -52 -100 -138t-37 -163q0 -150 94 -150q141 0 213 270l57 222q-34 10 -99 10zM314 511q0 -231 134 -369t365 -138t452 86v-186q-230 -90 -465 -90h-10q-208 0 -368 86t-246 240q-85 154 -85 351v9q0 280 121 498t343 341t518 123
q295 0 477 -164t182 -458q0 -174 -64 -322t-178 -230q-113 -82 -254 -83q-88 1 -144 39t-73 108h-6q-95 -147 -260 -147q-129 0 -199 80q-70 81 -70 229t67 276t187 205q120 76 288 76t308 -55l-106 -420q-27 -106 -27 -141q0 -68 58 -68q65 -1 123 63t93 172t35 214
q0 214 -124 326t-343 112t-383 -94t-255 -266t-91 -403z" />
    <glyph glyph-name="A" unicode="A" horiz-adv-x="1286" 
d="M791 1211v36q-41 -114 -109 -254l-188 -385h333l-26 350q-10 124 -10 253zM369 348l-172 -348h-320l766 1468h373l147 -1468h-297l-24 348h-473z" />
    <glyph glyph-name="B" unicode="B" horiz-adv-x="1270" 
d="M592 256q118 0 184 58t66 161q0 162 -183 162h-165l-82 -381h180zM694 883q242 0 242 188q0 137 -170 137h-152l-69 -325h149zM788 1462q463 0 463 -325q0 -149 -83 -247t-236 -130v-6q102 -27 160 -98t59 -179q-1 -229 -153 -353t-423 -124h-522l309 1462h426z" />
    <glyph glyph-name="C" unicode="C" horiz-adv-x="1253" 
d="M905 1227q-131 -1 -237 -81t-170 -238t-64 -332q0 -176 69 -256t216 -80t340 77v-260q-201 -77 -400 -77q-254 0 -395 150t-141 416q0 267 104 488q103 221 277 336t401 115q122 0 221 -23t209 -82l-118 -250q-107 59 -175 78t-137 19z" />
    <glyph glyph-name="D" unicode="D" horiz-adv-x="1386" 
d="M518 256q149 0 259 77q109 77 171 225t62 318q0 332 -281 332h-115l-202 -952h106zM758 1462q269 0 417 -142t148 -416t-98 -481t-283 -315t-438 -108h-451l309 1462h396z" />
    <glyph glyph-name="E" unicode="E" horiz-adv-x="1110" 
d="M53 0l309 1462h818l-54 -254h-512l-67 -321h477l-55 -254h-477l-80 -377h512l-54 -256h-817z" />
    <glyph glyph-name="F" unicode="F" horiz-adv-x="1087" 
d="M53 0l309 1462h814l-54 -254h-508l-79 -377h473l-56 -253h-473l-121 -578h-305z" />
    <glyph glyph-name="G" unicode="G" horiz-adv-x="1413" 
d="M123 545q1 271 107 487t300 335q194 118 430 118t429 -99l-115 -251q-164 88 -312 88q-148 -1 -270 -83t-190 -236t-68 -328t72 -255t223 -81q75 0 170 24l66 299h-267l56 258h563l-162 -762q-226 -79 -488 -79t-403 147t-141 418z" />
    <glyph glyph-name="H" unicode="H" horiz-adv-x="1434" 
d="M829 0l134 631h-471l-134 -631h-305l309 1462h306l-121 -573h471l121 573h305l-309 -1462h-306z" />
    <glyph glyph-name="I" unicode="I" horiz-adv-x="659" 
d="M365 1462h305l-312 -1462h-305z" />
    <glyph glyph-name="J" unicode="J" horiz-adv-x="678" 
d="M-135 -430q-94 0 -187 27v253q92 -20 178 -20q182 0 236 252l293 1380h305l-303 -1423q-53 -245 -175 -357t-347 -112z" />
    <glyph glyph-name="K" unicode="K" horiz-adv-x="1255" 
d="M803 0l-211 592l-125 -70l-109 -522h-305l309 1462h306l-152 -702l158 205l409 497h361l-594 -700l291 -762h-338z" />
    <glyph glyph-name="L" unicode="L" horiz-adv-x="1061" 
d="M362 1462h306l-256 -1206h512l-54 -256h-817z" />
    <glyph glyph-name="M" unicode="M" horiz-adv-x="1802" 
d="M553 1133q-21 -169 -225 -1133h-275l309 1462h404l68 -1093h4l551 1093h423l-309 -1462h-280l145 692q52 248 105 441h-5l-569 -1133h-281l-61 1133h-4z" />
    <glyph glyph-name="N" unicode="N" horiz-adv-x="1546" 
d="M1063 385q33 203 219 1077h274l-309 -1462h-342l-356 1106h-6l-4 -32q-32 -218 -66 -386l-145 -688h-275l309 1462h357l340 -1077h4z" />
    <glyph glyph-name="O" unicode="O" horiz-adv-x="1495" 
d="M434 558q0 -318 254 -318q122 0 220 87q100 87 156 247t56 356q0 142 -65 220t-185 77q-120 0 -220 -92q-100 -91 -158 -251t-58 -326zM1432 925q0 -271 -98 -493t-270 -337t-413 -115t-385 147q-143 149 -143 412t99 485t273 342q173 119 415 119q242 -1 382 -145
t140 -415z" />
    <glyph glyph-name="P" unicode="P" horiz-adv-x="1188" 
d="M578 774q142 0 224 69t81 185q0 180 -195 180h-74l-92 -434h56zM700 1462q490 0 490 -426q0 -240 -170 -378t-467 -138h-86l-109 -520h-305l309 1462h338z" />
    <glyph glyph-name="Q" unicode="Q" horiz-adv-x="1495" 
d="M434 558q0 -318 254 -318q122 0 220 87q100 87 156 247t56 356q0 142 -65 220t-185 77q-120 0 -220 -92q-100 -91 -158 -251t-58 -326zM666 -20q-256 0 -400 147q-143 149 -143 412t99 485t273 342q173 119 415 119q242 -1 382 -145t140 -402q0 -316 -122 -556t-335 -337
l254 -393h-359l-178 328h-26z" />
    <glyph glyph-name="R" unicode="R" horiz-adv-x="1247" 
d="M885 1044q0 164 -197 164h-74l-84 -395h78q134 0 206 58t71 173zM721 1462q235 0 355 -102t120 -299q0 -157 -83 -271t-239 -169l261 -621h-332l-207 561h-119l-119 -561h-305l309 1462h359z" />
    <glyph glyph-name="S" unicode="S" horiz-adv-x="1085" 
d="M737 1225q-107 0 -160 -45t-53 -112q0 -68 33 -114t152 -124q237 -155 237 -398q0 -210 -148 -331t-385 -121t-372 90v274q194 -108 358 -108q112 0 175 42t63 118t-52 135q-26 30 -124 102q-139 100 -195 197t-55 208v8q1 189 139 313t353 124h10q217 0 397 -99
l-109 -233q-157 74 -264 74z" />
    <glyph glyph-name="T" unicode="T" horiz-adv-x="1087" 
d="M266 0l254 1204h-352l55 258h1010l-55 -258h-353l-254 -1204h-305z" />
    <glyph glyph-name="U" unicode="U" horiz-adv-x="1415" 
d="M596 -20q-212 0 -334 113q-121 114 -121 308q0 72 15 138l196 923h305l-194 -919q-17 -76 -17 -125q0 -178 189 -178q122 0 194 76t105 229l194 917h306l-201 -946q-57 -266 -218 -401t-419 -135z" />
    <glyph glyph-name="V" unicode="V" horiz-adv-x="1208" 
d="M528 299h7q78 221 110 283l432 880h316l-748 -1462h-334l-127 1462h295l51 -880q4 -40 3 -138t-5 -145z" />
    <glyph glyph-name="W" unicode="W" horiz-adv-x="1831" 
d="M477 664q0 -218 -14 -347h6q88 250 127 326l369 819h270l21 -873q0 -146 -9 -272h6q48 141 131 349l330 796h309l-647 -1462h-346l-22 721l-2 139q0 95 4 158h-4q-48 -151 -115 -299l-324 -719h-338l-45 1462h293v-798z" />
    <glyph glyph-name="X" unicode="X" horiz-adv-x="1241" 
d="M793 0l-172 543l-396 -543h-342l576 764l-238 698h320l153 -518l363 518h344l-545 -725l268 -737h-331z" />
    <glyph glyph-name="Y" unicode="Y" horiz-adv-x="1155" 
d="M1001 1462h342l-618 -903l-119 -559h-303l119 559l-236 903h312l129 -592z" />
    <glyph glyph-name="Z" unicode="Z" horiz-adv-x="1098" 
d="M-61 0l38 201l777 1005h-543l53 256h936l-41 -202l-782 -1004h596l-53 -256h-981z" />
    <glyph glyph-name="bracketleft" unicode="[" horiz-adv-x="678" 
d="M-37 -324l381 1786h473l-45 -211h-215l-291 -1364h215l-45 -211h-473z" />
    <glyph glyph-name="backslash" unicode="\" horiz-adv-x="862" 
d="M705 0h-267l-217 1462h260z" />
    <glyph glyph-name="bracketright" unicode="]" horiz-adv-x="678" 
d="M121 -113l291 1364h-215l45 211h473l-381 -1786h-471l45 211h213z" />
    <glyph glyph-name="asciicircum" unicode="^" horiz-adv-x="1081" 
d="M639 1470h147l277 -950h-223l-174 633l-402 -633h-244z" />
    <glyph glyph-name="underscore" unicode="_" horiz-adv-x="819" 
d="M-186 -324l30 140h822l-31 -140h-821z" />
    <glyph glyph-name="grave" unicode="`" horiz-adv-x="1135" 
d="M508 1569h311q36 -150 115 -303v-25h-184q-169 166 -242 307v21z" />
    <glyph glyph-name="a" unicode="a" horiz-adv-x="1217" 
d="M526 223q66 -1 130 65t104 182t39 248v13q-1 71 -39 117t-104 47q-66 0 -126 -71q-60 -70 -98 -190q-37 -120 -37 -235q0 -176 129 -176h2zM406 -20q-147 0 -232 106q-84 106 -84 302t72 376t189 277q117 98 257 98q197 0 277 -164h8l57 143h232l-238 -1118h-229l14 145
h-4q-133 -165 -319 -165z" />
    <glyph glyph-name="b" unicode="b" horiz-adv-x="1219" 
d="M420 426q0 -204 140 -203q66 0 126 68q60 69 99 191q38 122 38 237q0 176 -131 176q-68 -1 -130 -65t-102 -180t-40 -224zM813 1139q147 1 231 -107t84 -298t-68 -367q-68 -179 -186 -283q-120 -104 -264 -104q-194 0 -276 163h-8l-58 -143h-231l330 1556h301l-62 -288
q-41 -183 -84 -299h8q78 99 142 135t141 35z" />
    <glyph glyph-name="c" unicode="c" horiz-adv-x="989" 
d="M498 -20q-192 0 -300 108t-108 310q0 204 74 378t210 268q136 95 313 95t323 -72l-92 -229q-45 19 -95 38q-51 19 -133 19t-150 -65t-107 -176q-38 -111 -38 -222t45 -160t121 -49q77 1 139 21t142 61v-246q-152 -79 -344 -79z" />
    <glyph glyph-name="d" unicode="d" horiz-adv-x="1217" 
d="M537 223q63 0 125 68q62 69 99 183q38 114 38 233v12q1 81 -37 129t-105 47q-67 0 -127 -71q-60 -70 -98 -190q-37 -120 -37 -235q0 -176 137 -176h5zM90 388q0 194 72 372q72 180 188 280t258 99q83 1 142 -37t112 -127h8l2 28q6 112 25 195l76 358h301l-330 -1556h-229
l14 145h-4q-136 -165 -319 -165q-146 0 -231 107t-85 301z" />
    <glyph glyph-name="e" unicode="e" horiz-adv-x="1141" 
d="M473 647q154 0 241 48t87 132q-1 95 -97 95t-174 -80t-102 -195h45zM535 -20q-213 0 -329 113t-116 321t82 376q82 169 224 259q140 90 318 90q178 1 278 -81q98 -82 98 -224q0 -186 -167 -288t-477 -102h-51l-2 -21v-20q0 -92 52 -144t144 -52t164 20t169 66v-227
q-174 -86 -387 -86z" />
    <glyph glyph-name="f" unicode="f" horiz-adv-x="764" 
d="M-45 -492q-105 0 -174 25v242q63 -21 121 -21t103 42t63 128l204 965h-163l30 145l183 84l18 84q41 191 139 278t252 87t256 -49l-80 -224q-68 31 -128 31q-118 0 -144 -145l-12 -62h219l-49 -229h-220l-215 -1010q-77 -371 -403 -371z" />
    <glyph glyph-name="g" unicode="g" horiz-adv-x="1108" 
d="M150 -172q0 -115 194 -115q149 1 227 45t78 127q-1 39 -33 61t-137 34l-114 14q-105 -14 -160 -57t-55 -109zM614 948q-76 0 -124 -77t-48 -193t103 -117q75 1 121 77t47 193q0 117 -99 117zM158 721q0 185 126 301t341 117q82 0 166 -23h395l-35 -166l-174 -41
q16 -51 16 -118q0 -195 -121 -309q-122 -113 -329 -113q-60 0 -99 10q-84 -27 -84 -78q0 -31 28 -47t91 -25l137 -18q164 -21 238 -85t74 -183q0 -211 -156 -323t-446 -112q-209 0 -325 76t-116 207q0 203 283 297q-74 48 -74 126t44 130t147 98q-127 94 -127 279z" />
    <glyph glyph-name="h" unicode="h" horiz-adv-x="1237" 
d="M829 772q0 123 -108 123q-93 1 -167 -113t-118 -319l-98 -463h-301l330 1556h301l-60 -278q-20 -92 -86 -309h8q137 170 314 170q138 1 214 -83t75 -239q0 -71 -23 -180l-133 -637h-301l137 653q16 65 16 119z" />
    <glyph glyph-name="i" unicode="i" horiz-adv-x="608" 
d="M37 0l237 1118h301l-237 -1118h-301zM322 1380q0 86 47 131t127 45q157 0 157 -120q0 -83 -45 -131t-135 -48q-151 0 -151 123z" />
    <glyph glyph-name="j" unicode="j" horiz-adv-x="608" 
d="M-90 -492q-105 0 -174 25v242q62 -21 114 -21q137 0 173 170l253 1194h302l-265 -1239q-77 -371 -403 -371zM324 1380q0 86 47 131t127 45q157 0 157 -120q0 -83 -45 -131t-135 -48q-151 0 -151 123z" />
    <glyph glyph-name="k" unicode="k" horiz-adv-x="1163" 
d="M1264 1118l-498 -504l285 -614h-336l-183 420l-120 -72l-74 -348h-301l330 1556h301l-148 -694q-6 -35 -29 -117l-28 -102h4l453 475h344z" />
    <glyph glyph-name="l" unicode="l" horiz-adv-x="608" 
d="M37 0l330 1556h301l-330 -1556h-301z" />
    <glyph glyph-name="m" unicode="m" horiz-adv-x="1853" 
d="M1112 911q141 228 373 228q120 -1 192 -85t72 -237q0 -74 -23 -180l-133 -637h-301l138 653q16 65 16 119q0 123 -98 123q-92 0 -166 -112t-119 -318l-96 -465h-301l137 653q16 65 16 119q0 123 -98 123q-93 1 -167 -113t-118 -319l-98 -463h-301l237 1118h230l-21 -207
h6q145 228 359 228t258 -228h6z" />
    <glyph glyph-name="n" unicode="n" horiz-adv-x="1237" 
d="M829 772q0 123 -108 123q-93 1 -167 -113t-118 -319l-98 -463h-301l237 1118h230l-21 -207h6q145 228 355 228q138 1 214 -83t75 -239q0 -71 -23 -180l-133 -637h-301l137 653q16 65 16 119z" />
    <glyph glyph-name="o" unicode="o" horiz-adv-x="1198" 
d="M805 696q0 197 -143 197q-75 -1 -135 -63t-97 -178t-37 -242q0 -185 150 -185q75 -1 135 61t94 170t33 240zM1108 688q0 -314 -158 -511t-421 -197h-11q-195 0 -312 117q-116 119 -116 321t71 371q71 168 207 259t324 91q188 -1 302 -119t114 -324v-8z" />
    <glyph glyph-name="p" unicode="p" horiz-adv-x="1219" 
d="M690 895q-66 -1 -130 -67t-102 -180t-38 -237v-12q0 -81 37 -129t103 -47q66 0 126 68q60 69 99 191q38 122 38 237q0 176 -131 176h-2zM813 1139q147 0 231 -107q84 -108 84 -300t-68 -368t-188 -280q-118 -104 -262 -104q-84 0 -144 38t-110 125h-8q-12 -161 -43 -295
l-72 -340h-301l342 1610h230l-17 -170h9q138 191 317 191z" />
    <glyph glyph-name="q" unicode="q" horiz-adv-x="1217" 
d="M799 693q0 202 -142 202q-67 0 -127 -71q-60 -70 -98 -190q-37 -120 -37 -221q0 -190 138 -190q65 1 129 71t100 181t37 218zM391 -20q-135 0 -218 108t-83 302t72 374t189 277q117 98 257 98q88 0 154 -38t123 -126h8l57 143h232l-342 -1610h-301l73 338q26 122 84 304
h-8q-70 -92 -141 -131t-156 -39z" />
    <glyph glyph-name="r" unicode="r" horiz-adv-x="862" 
d="M842 1139q57 0 96 -11l-66 -290q-44 16 -100 16q-114 0 -202 -92t-126 -262l-106 -500h-301l237 1118h230l-21 -207h6q147 228 353 228z" />
    <glyph glyph-name="s" unicode="s" horiz-adv-x="969" 
d="M571 913q-57 1 -92 -25t-35 -67t32 -71t138 -84q216 -110 215 -297q-1 -189 -125 -289t-339 -100t-342 65v248q158 -90 319 -90q82 1 132 33t50 82t-36 82q-36 34 -145 94q-108 60 -156 128t-48 160q0 171 111 264t313 93t365 -95l-99 -215q-139 84 -258 84z" />
    <glyph glyph-name="t" unicode="t" horiz-adv-x="840" 
d="M426 297q0 -74 88 -74q63 0 162 35v-225q-112 -53 -264 -53t-222 63t-71 195q0 50 12 112l115 539h-152l29 147l196 84l132 236h194l-49 -238h283l-50 -229h-282l-115 -539q-6 -30 -6 -53z" />
    <glyph glyph-name="u" unicode="u" horiz-adv-x="1237" 
d="M410 346q0 -123 108 -123q92 -1 166 113t119 319l98 463h301l-237 -1118h-230l21 207h-6q-146 -227 -355 -227q-138 0 -211 82t-73 239q0 93 24 213l127 604h301l-137 -653q-16 -65 -16 -119z" />
    <glyph glyph-name="v" unicode="v" horiz-adv-x="1049" 
d="M449 301h6q57 157 92 223l297 594h323l-604 -1118h-323l-138 1118h295l45 -586q7 -125 7 -231z" />
    <glyph glyph-name="w" unicode="w" horiz-adv-x="1614" 
d="M410 1118v-495l-4 -167l-7 -171h4l14 41q86 242 97 256l231 536h328v-536q0 -150 -10 -297h6l28 80q77 218 95 258l219 495h307l-530 -1118h-330l-6 520q0 164 10 340h-6q-61 -176 -123 -319l-233 -541h-324l-51 1118h285z" />
    <glyph glyph-name="x" unicode="x" horiz-adv-x="1087" 
d="M154 1118h321l115 -334l244 334h354l-467 -561l244 -557h-326l-125 342l-264 -342h-350l479 573z" />
    <glyph glyph-name="y" unicode="y" horiz-adv-x="1063" 
d="M467 307h6q9 21 37 101t72 172l260 538h327l-680 -1278q-177 -332 -483 -332q-91 0 -147 19v240q65 -13 133 -13q144 0 248 197l26 49l-164 1118h295l56 -518q14 -126 14 -293z" />
    <glyph glyph-name="z" unicode="z" horiz-adv-x="932" 
d="M-47 0l35 180l575 705h-397l51 233h750l-43 -200l-566 -685h439l-49 -233h-795z" />
    <glyph glyph-name="braceleft" unicode="{" horiz-adv-x="727" 
d="M201 319q0 140 -209 140l45 229q125 0 195 42t90 138l61 285q39 169 131 239t270 70h84l-49 -225q-89 -2 -130 -34t-56 -107l-66 -297q-45 -208 -276 -236v-8q168 -52 168 -217q0 -44 -15 -113l-36 -178q-7 -27 -7 -65q0 -80 125 -80v-226h-53q-167 0 -253 64t-87 184
q0 55 14 125l39 184q15 69 15 86z" />
    <glyph glyph-name="bar" unicode="|" 
d="M674 1550v-2015h-219v2015h219z" />
    <glyph glyph-name="braceright" unicode="}" horiz-adv-x="727" 
d="M256 1462q340 0 340 -248q0 -54 -14 -124l-39 -185q-15 -69 -15 -86q0 -139 209 -139l-45 -229q-124 0 -194 -43t-90 -138l-62 -284q-38 -170 -130 -240t-271 -70h-45v226q92 4 136 36t60 105l66 297q24 108 93 164t183 71v9q-168 51 -168 217q0 43 15 112l37 179
q6 30 6 51q0 52 -35 73t-111 21l41 225h33z" />
    <glyph glyph-name="asciitilde" unicode="~" 
d="M805 553q-57 0 -109 12q-52 13 -144 51t-130 47t-86 9t-110 -33t-117 -88v231q100 109 256 109q63 1 116 -13t161 -60t185 -46q111 0 234 121v-231q-103 -109 -256 -109z" />
    <glyph glyph-name="uni00A0" unicode="&#xa0;" horiz-adv-x="532" 
 />
    <glyph glyph-name="cent" unicode="&#xa2;" 
d="M164 584q0 192 62 354t178 264q116 100 268 123l33 158h188l-35 -158q117 -13 225 -65l-92 -230q-130 57 -223 57q-133 0 -216 -143t-83 -336q1 -96 45 -144t120 -48t138 20t143 62v-246q-138 -71 -299 -80l-41 -192h-188l49 210q-272 73 -272 394z" />
    <glyph glyph-name="sterling" unicode="&#xa3;" 
d="M873 1485q193 0 368 -86l-113 -232q-142 68 -228 68q-86 -1 -133 -41t-67 -131l-47 -229h299l-45 -220h-299l-18 -84q-42 -195 -209 -270h655l-55 -260h-993l49 246q196 48 244 264l22 104h-192l45 220h192l49 247q41 198 162 301t314 103z" />
    <glyph glyph-name="yen" unicode="&#xa5;" 
d="M979 1462h311l-506 -747h203l-39 -178h-252l-28 -138h252l-37 -178h-252l-47 -221h-291l47 221h-252l37 178h252l29 138h-252l39 178h196l-192 747h297l114 -590z" />
    <glyph glyph-name="dieresis" unicode="&#xa8;" horiz-adv-x="1135" 
d="M799 1382q0 78 42 118t113 40q140 0 140 -108q0 -76 -40 -118t-120 -42q-135 0 -135 110zM397 1382q0 78 42 118t120 40q133 0 133 -108q0 -76 -40 -118t-120 -42q-135 0 -135 110z" />
    <glyph glyph-name="copyright" unicode="&#xa9;" horiz-adv-x="1704" 
d="M932 1010q-215 0 -215 -287q0 -134 55 -203t160 -69q44 1 112 17t121 42v-191q-131 -57 -262 -57q-196 0 -307 122t-111 342t117 346q118 126 326 126q142 0 284 -72l-75 -174q-113 58 -205 58zM266 730q0 -164 82 -304q82 -141 224 -223t306 -82q164 1 306 83t222 223
q81 141 81 304q-1 163 -81 304t-222 223t-306 83q-164 -1 -308 -83q-142 -82 -223 -223t-81 -305zM125 732q1 200 101 374q100 176 275 276t375 101q200 0 375 -99q175 -100 276 -276t101 -376t-98 -374t-272 -276t-382 -102q-206 0 -381 103t-273 276t-97 373z" />
    <glyph glyph-name="guillemotleft" unicode="&#xab;" horiz-adv-x="1151" 
d="M961 1032l190 -155l-279 -334l136 -350l-246 -103l-203 461v18zM473 1032l191 -155l-279 -334l135 -350l-246 -103l-202 461v18z" />
    <glyph glyph-name="uni00AD" unicode="&#xad;" horiz-adv-x="659" 
d="M94 674h524l-53 -250h-524z" />
    <glyph glyph-name="registered" unicode="&#xae;" horiz-adv-x="1704" 
d="M801 758h51q74 0 114 32t40 91q0 60 -36 89t-116 29h-53v-241zM571 1167h308q174 0 266 -68t92 -200q0 -179 -174 -246l197 -360h-254l-138 297h-67v-297h-230v874zM266 730q0 -164 82 -304q82 -141 224 -223t306 -82q164 1 306 83t222 223q81 141 81 304q-1 163 -81 304
t-222 223t-306 83q-164 -1 -308 -83q-142 -82 -223 -223t-81 -305zM125 732q1 200 101 374q100 176 275 276t375 101q200 0 375 -99q175 -100 276 -276t101 -376t-98 -374t-272 -276t-382 -102q-206 0 -381 103t-273 276t-97 373z" />
    <glyph glyph-name="acute" unicode="&#xb4;" horiz-adv-x="1135" 
d="M483 1241v25q79 88 222 303h335v-17q-48 -58 -156 -154t-192 -157h-209z" />
    <glyph glyph-name="cedilla" unicode="&#xb8;" horiz-adv-x="420" 
d="M262 -244q0 -122 -83 -185t-234 -63q-85 0 -152 23v168q64 -23 125 -23q102 0 102 82q0 72 -141 88l96 154h185l-39 -72q141 -50 141 -172z" />
    <glyph glyph-name="guillemotright" unicode="&#xbb;" horiz-adv-x="1151" 
d="M678 72l-191 155l279 334l-135 350l246 103l202 -461v-18zM190 72l-190 155l279 334l-136 350l246 103l203 -461v-18z" />
    <glyph glyph-name="circumflex" unicode="&#x2c6;" horiz-adv-x="1135" 
d="M1120 1241h-198q-63 53 -162 168q-106 -90 -232 -168h-217v25q193 175 295 303h338q54 -128 176 -303v-25z" />
    <glyph glyph-name="ring" unicode="&#x2da;" horiz-adv-x="1182" 
d="M877 1477q0 44 -27 70t-70 26q-44 0 -70 -26t-26 -71q0 -44 24 -70t70 -26q45 0 72 26t27 71zM1034 1478q0 -106 -70 -172t-182 -67t-181 63t-69 174t68 174t178 64t184 -65q72 -65 72 -171z" />
    <glyph glyph-name="tilde" unicode="&#x2dc;" horiz-adv-x="1135" 
d="M877 1444q62 0 104 106h172q-66 -309 -287 -309q-84 1 -158 53q-73 52 -122 52q-65 0 -94 -107h-177q59 309 281 309q86 0 159 -52t122 -52z" />
    <glyph glyph-name="afii57799" unicode="&#x5b0;" horiz-adv-x="0" 
d="M622.5 -342q43.5 0 60.5 -20t17 -37q0 -61 -35.5 -88.5t-79 -27.5t-60.5 19.5t-17 37.5q0 60 35.5 88t79 28zM673.5 -101q43.5 0 60.5 -20t17 -38q0 -60 -35.5 -87.5t-79 -27.5t-60.5 19.5t-17 36.5q0 62 35.5 89.5t79 27.5z" />
    <glyph glyph-name="afii57801" unicode="&#x5b1;" horiz-adv-x="0" 
d="M933.5 -357q43.5 0 60.5 -20t17 -37q0 -61 -35.5 -88.5t-79 -27.5t-60.5 19.5t-17 37.5q0 60 35.5 88t79 28zM523 -357q43 0 60 -20t17 -37q0 -61 -35.5 -88.5t-79 -27.5t-60 19.5t-16.5 37.5q0 61 35.5 88.5t78.5 27.5zM984.5 -116q43.5 0 60.5 -20t17 -38
q0 -60 -35.5 -87.5t-79 -27.5t-60.5 19.5t-17 36.5q0 62 35.5 89.5t79 27.5zM718.5 -116q43.5 0 61.5 -20.5t18 -38.5q0 -60 -36.5 -87t-80.5 -27t-60.5 19t-16.5 36q0 64 35.5 91t79 27zM422 -116q43 0 60.5 -20t17.5 -38q0 -61 -36 -88t-79 -27t-60 19.5t-17 36.5
q0 62 35.5 89.5t78.5 27.5z" />
    <glyph glyph-name="afii57800" unicode="&#x5b2;" horiz-adv-x="0" 
d="M889 -357q43 0 60 -20t17 -37q0 -60 -36 -88t-79 -28t-59.5 19.5t-16.5 37.5q-1 61 35 89t79 27zM732 -259h-367l24 117h367zM940 -116q43 0 60 -20t17 -38q1 -60 -35 -88t-79.5 -27.5t-60 20t-16.5 36.5t6 44t35.5 50t72.5 23z" />
    <glyph glyph-name="afii57802" unicode="&#x5b3;" horiz-adv-x="0" 
d="M892.5 -357q43.5 0 60.5 -20t17 -37q0 -61 -35.5 -88.5t-79 -27.5t-60.5 19.5t-17 37.5q0 60 35.5 88t79 28zM732 -259h-128l-43 -202h-111l43 202h-128l24 117h367zM943.5 -116q43.5 0 60.5 -20t17 -38q0 -60 -35.5 -87.5t-79 -27.5t-60.5 19.5t-17 36.5q0 62 35.5 89.5
t79 27.5z" />
    <glyph glyph-name="afii57793" unicode="&#x5b4;" horiz-adv-x="0" 
d="M645.5 -111q43.5 0 61.5 -20.5t18 -38.5q0 -59 -36 -86.5t-80 -27.5t-61 19t-17 37q0 63 35.5 90t79 27z" />
    <glyph glyph-name="afii57794" unicode="&#x5b5;" horiz-adv-x="0" 
d="M794 -92q44 0 62 -20.5t18 -38.5q0 -59 -36 -86.5t-80 -27.5t-61.5 19.5t-17.5 37t5.5 44t35.5 49.5t74 23zM498 -92q43 0 60 -20t17 -38q0 -60 -35 -87.5t-78.5 -27.5t-60.5 19.5t-17 37t5.5 44t35.5 49.5t73 23z" />
    <glyph glyph-name="afii57795" unicode="&#x5b6;" horiz-adv-x="0" 
d="M624.5 -357q43.5 0 60.5 -20t17 -37q0 -61 -35.5 -88.5t-79 -27.5t-60.5 19.5t-17 37.5q0 60 35.5 88t79 28zM820 -116q44 0 62 -20.5t18 -38.5q0 -60 -36.5 -87t-80.5 -27t-61 19t-17 37q0 63 35.5 90t79.5 27zM524 -116q43 0 60 -20t17 -38q0 -60 -35.5 -87.5
t-79 -27.5t-60 19.5t-16.5 36.5t5.5 44t35.5 50t73 23z" />
    <glyph glyph-name="afii57798" unicode="&#x5b7;" horiz-adv-x="0" 
d="M813 -234h-393l24 116h393z" />
    <glyph glyph-name="afii57797" unicode="&#x5b8;" horiz-adv-x="0" 
d="M829 -255h-136l-43 -202h-111l43 202h-135l25 117h382z" />
    <glyph glyph-name="afii57806" unicode="&#x5b9;" horiz-adv-x="0" 
d="M646.5 1583q43.5 0 61.5 -20.5t18 -38.5q0 -59 -36 -86.5t-80 -27.5t-61 19t-17 37q0 63 35.5 90t79 27z" />
    <glyph glyph-name="uni05BA" unicode="&#x5ba;" horiz-adv-x="0" 
d="M646.5 1583q43.5 0 61.5 -20.5t18 -38.5q0 -59 -36 -86.5t-80 -27.5t-61 19t-17 37q0 63 35.5 90t79 27z" />
    <glyph glyph-name="afii57796" unicode="&#x5bb;" horiz-adv-x="0" 
d="M833.5 -478q43.5 0 61.5 -20.5t18 -38.5q0 -59 -36.5 -86.5t-80.5 -27.5t-60.5 19t-16.5 36q0 64 35.5 91t79 27zM685.5 -303q43.5 0 60.5 -20t17 -38q0 -60 -35 -87.5t-78.5 -27.5t-61 19.5t-17.5 36.5q0 62 35.5 89.5t79 27.5zM542 -127q43 0 59.5 -20t16.5 -38
q0 -61 -35 -88t-78.5 -27t-60 19.5t-16.5 37.5q0 61 35.5 88.5t78.5 27.5z" />
    <glyph glyph-name="afii57807" unicode="&#x5bc;" horiz-adv-x="0" 
d="M645.5 743q43.5 0 61.5 -20.5t18 -38.5q0 -59 -36 -86.5t-80 -27.5t-61 19t-17 37q0 63 35.5 90t79 27z" />
    <glyph glyph-name="afii57839" unicode="&#x5bd;" horiz-adv-x="1256" 
d="M642 -509h-103l74 352h103z" />
    <glyph glyph-name="afii57645" unicode="&#x5be;" horiz-adv-x="659" 
d="M571 1040h-537l54 250h537z" />
    <glyph glyph-name="afii57804" unicode="&#x5c1;" horiz-adv-x="0" 
d="M593.5 1583q43.5 0 61.5 -20.5t18 -38.5q0 -59 -36 -86.5t-80 -27.5t-61 19t-17 37q0 63 35.5 90t79 27z" />
    <glyph glyph-name="afii57803" unicode="&#x5c2;" horiz-adv-x="0" 
d="M646.5 1583q43.5 0 61.5 -20.5t18 -38.5q0 -59 -36 -86.5t-80 -27.5t-61 19t-17 37q0 63 35.5 90t79 27z" />
    <glyph glyph-name="uni05C7" unicode="&#x5c7;" horiz-adv-x="0" 
d="M535 -210h-161l-49 -234h-93l49 234h-156l21 100h410z" />
    <glyph glyph-name="afii57664" unicode="&#x5d0;" horiz-adv-x="1329" 
d="M1345 1290l-98 -462q-38 -171 -120 -254t-219 -122l192 -452h-347l-248 639q-93 -37 -121 -175l-100 -464h-304l98 461q33 167 118 252q85 86 224 125l-191 452h346l166 -442l83 -197q89 37 117 174l100 465h304z" />
    <glyph glyph-name="afii57665" unicode="&#x5d1;" horiz-adv-x="1182" 
d="M729 914q0 161 -213 161q-128 0 -280 -18l-50 -6l51 241q151 18 345 18t292.5 -34t137 -95.5t38.5 -141.5t-24 -196l-130 -610h148l-49 -233h-1032l49 233h579l130 611q8 38 8 70z" />
    <glyph glyph-name="afii57666" unicode="&#x5d2;" horiz-adv-x="951" 
d="M64 265q42 0 81.5 1.5t111.5 23t133 91.5t81 163l77 364q25 115 -25 147q-22 14 -83.5 14t-131.5 -17l-24 -6l51 241q93 23 204 23q203 0 279 -76q56 -55 56 -170q0 -58 -21 -156l-193 -908h-231l-5 188h-15q-99 -134 -250 -186q-64 -22 -116.5 -22t-111.5 11l82 283
q9 -9 51 -9z" />
    <glyph glyph-name="afii57667" unicode="&#x5d3;" horiz-adv-x="1121" 
d="M1211 1290l-47 -221q-136 -49 -186 -135q-30 -51 -47 -133l-170 -801h-305l172 808q22 109 85 166t117 76l2 7h-701l49 233h1031z" />
    <glyph glyph-name="afii57668" unicode="&#x5d4;" horiz-adv-x="1345" 
d="M327 0h-306l175 823h306zM1255 1030.5q0 -89.5 -24 -187.5l-179 -843h-306l179 844q8 38 8 70q0 161 -213 161q-189 0 -404 -29l-75 -10l49 231q215 43 529.5 43t394.5 -124q41 -66 41 -155.5z" />
    <glyph glyph-name="afii57669" unicode="&#x5d5;" horiz-adv-x="625" 
d="M328 0h-305l274 1290h305z" />
    <glyph glyph-name="afii57670" unicode="&#x5d6;" horiz-adv-x="701" 
d="M791 1290l-49 -233q-56 -37 -110 -103q-103 -126 -142.5 -250.5t-70.5 -269.5l-92 -434h-305l92 434q44 207 123.5 340t151.5 193.5t123 82.5l2 7h-314l49 233h542z" />
    <glyph glyph-name="afii57671" unicode="&#x5d7;" horiz-adv-x="1345" 
d="M1255 1030.5q0 -89.5 -24 -187.5l-179 -843h-306l179 844q8 38 8 70q0 161 -213 161q-68 0 -166 -7l-227 -1068h-306l269 1267q215 43 529.5 43t394.5 -124q41 -66 41 -155.5z" />
    <glyph glyph-name="afii57672" unicode="&#x5d8;" horiz-adv-x="1330" 
d="M435 442q0 -217 168 -217q237 0 321 394q42 196 42 286.5t-28.5 118.5t-60.5 36t-87 8l-65 -5l48 225q77 22 165 22q277 0 326 -211q13 -57 13 -108q0 -154 -40 -346q-68 -322 -248 -493.5t-448 -171.5q-151 0 -253 76q-160 120 -159 384q0 90 24 205l137 643h307
q-94 -443 -128 -602t-34 -244z" />
    <glyph glyph-name="afii57673" unicode="&#x5d9;" horiz-adv-x="592" 
d="M465 694l-258 -258h-102l182 854h305z" />
    <glyph glyph-name="afii57674" unicode="&#x5da;" horiz-adv-x="1093" 
d="M680 878q0 198 -200 197q-128 0 -341 -22l50 235q182 22 340 22q159 0 243 -34q216 -87 215 -366q0 -86 -23 -191l-258 -1211h-306l264 1242q16 74 16 128z" />
    <glyph glyph-name="afii57675" unicode="&#x5db;" horiz-adv-x="1055" 
d="M542.5 1310q157.5 0 241.5 -34q216 -87 217 -366q0 -86 -23 -191l-32 -148q-83 -398 -338 -525q-132 -66 -334.5 -66t-342.5 28l50 238q158 -20 318.5 -20t232.5 86.5t102 227.5l44 210q15 70 15 125q0 200 -200 200q-127 0 -340 -22l50 235q182 22 339.5 22z" />
    <glyph glyph-name="afii57676" unicode="&#x5dc;" horiz-adv-x="1115" 
d="M516 1290h679l-42 -198l-306 -613l-209 -479h-297l209 479l288 578h-677l106 499h305z" />
    <glyph glyph-name="afii57677" unicode="&#x5dd;" horiz-adv-x="1345" 
d="M948 971q0 58 -53 81t-148 23t-193 -7l-178 -835h419l149 698q4 21 4 40zM796 1310q291 0 394 -90q72 -64 72 -183q0 -48 -12 -106l-198 -931h-1031l269 1267q215 43 506 43z" />
    <glyph glyph-name="afii57678" unicode="&#x5de;" horiz-adv-x="1413" 
d="M981 886q0 182 -163 182q-93 0 -171.5 -69t-112.5 -117l-14 -22l-259 -860h-298l249 819q45 147 45 291q0 55 -14 181h292q7 -39 11 -91l4 -107h19q19 29 64 71t91 70.5t120.5 52t161 23.5t150.5 -33q148 -76 148 -317q0 -96 -29 -230l-155 -730h-552l49 233h240l99 462
q25 115 25 191z" />
    <glyph glyph-name="afii57679" unicode="&#x5df;" horiz-adv-x="602" 
d="M532 1177q0 -48 -1 -120t-36 -232l-280 -1317h-305q256 1206 286.5 1346t30.5 255.5t-9 180.5h305q9 -65 9 -113z" />
    <glyph glyph-name="afii57680" unicode="&#x5e0;" horiz-adv-x="879" 
d="M472 1310q184 0 254.5 -70t70.5 -187q0 -59 -18 -145l-112 -525q-40 -190 -108 -334l-23 -49h-583l49 233h310q35 77 67 230l95 445q25 115 -25 147q-22 14 -78 14t-136 -17l51 240q90 18 186 18z" />
    <glyph glyph-name="afii57681" unicode="&#x5e1;" horiz-adv-x="1268" 
d="M376 442q0 -219 167 -219q232 0 322 422q26 122 26 209q0 221 -167 221l-113 -2q-153 -165 -210 -428q-25 -118 -25 -203zM774 1310q257 0 363 -174q64 -107 64 -267q0 -101 -26 -224q-66 -313 -248 -489t-434 -176t-360 176q-67 108 -67 271q0 258 122 455
q72 116 142 170l1 8l-134 -9l49 231q238 28 528 28z" />
    <glyph glyph-name="afii57682" unicode="&#x5e2;" horiz-adv-x="1297" 
d="M598 708l-7 -409q179 100 264 386l181 604h302l-169 -560q-43 -149 -103 -259q-213 -386 -718 -470l-421 -60l50 236l339 49l-56 1065h304z" />
    <glyph glyph-name="afii57683" unicode="&#x5e3;" horiz-adv-x="1309" 
d="M885 875q0 192 -174 192q-163 0 -240 -117q-42 -68 -42 -135q0 -66 43.5 -105.5t87.5 -48.5l37 -7l-100 -228l-51 7q-132 18 -196 49q-142 70 -142 243t89 315t244 207t333 65q255 0 357 -171q60 -98 60 -232t-28 -263l-242 -1138h-311l242 1138q33 151 33 229z" />
    <glyph glyph-name="afii57684" unicode="&#x5e4;" horiz-adv-x="1269" 
d="M776 1310q429 0 429 -426q0 -109 -31 -254t-86 -265.5t-118.5 -193t-145.5 -116.5t-159.5 -59.5t-252.5 -15.5t-328 21l-51 7l47 224q226 -18 463 -18q110 0 174 69t99.5 175.5t59 229.5t23.5 160q1 37 -1 58q-12 161 -175 161t-237 -117q-42 -66 -42 -133.5t43 -107
t87 -48.5l37 -7l-100 -228l-51 7q-132 18 -196 49q-142 70 -142 243t88 315t244 206t322 64z" />
    <glyph glyph-name="afii57685" unicode="&#x5e5;" horiz-adv-x="1173" 
d="M669 435q-67 0 -105 5l-198 -932h-305l227 1069l-134 713h334l86 -629v-15q29 -3 52 -3q79 0 123 42t65 140l98 465h305l-98 -462q-62 -292 -308 -370q-75 -24 -142 -23z" />
    <glyph glyph-name="afii57686" unicode="&#x5e6;" horiz-adv-x="1274" 
d="M544 1290l237 -581q92 103 152 298l84 282h302l-72 -238q-54 -173 -90 -235t-72 -115q-70 -105 -195 -196l187 -329l-37 -176h-1102l49 233h498l225 -14l1 4l-206 350l-303 717h342z" />
    <glyph glyph-name="afii57687" unicode="&#x5e7;" horiz-adv-x="1310" 
d="M209 -493h-283l268 1265h283zM1353 1106l-342 -589q-165 -285 -206 -483l-8 -34h-303l8 34q17 81 73 224t117 247l317 552h-755l49 233h1089z" />
    <glyph glyph-name="afii57688" unicode="&#x5e8;" horiz-adv-x="1082" 
d="M550 1310q330 0 410 -124q41 -66 41 -155.5t-24 -187.5l-179 -843h-306l179 844q8 38 8 70q0 161 -213 161q-127 0 -329 -21l50 235q191 21 363 21z" />
    <glyph glyph-name="afii57689" unicode="&#x5e9;" horiz-adv-x="1605" 
d="M658 0h-584l165 1290h292l-83 -646q12 -1 30 -1q79 0 126 42t76 140l137 465h290l-135 -462q-115 -393 -494 -393q-20 0 -56 2l-27 -204h326q167 0 285 130t185 358l169 569h292l-167 -561q-54 -178 -109 -285q-230 -444 -718 -444z" />
    <glyph glyph-name="afii57690" unicode="&#x5ea;" horiz-adv-x="1435" 
d="M1347 1030.5q0 -89.5 -24 -187.5l-179 -843h-307l179 844q8 38 8 70q0 161 -212 161q-56 0 -122 -3l-147 -690q-37 -179 -141 -290.5t-331 -111.5q-77 0 -137 27l50 232q63 -18 101 -18q74 0 106.5 48t46.5 113l142 668l-148 -14l49 231q316 43 630.5 43t394.5 -124
q41 -66 41 -155.5z" />
    <glyph glyph-name="uni05F3" unicode="&#x5f3;" horiz-adv-x="444" 
d="M564 1290l8 -22q-106 -231 -262 -479h-226q88 205 195 501h285z" />
    <glyph glyph-name="uni05F4" unicode="&#x5f4;" horiz-adv-x="911" 
d="M553 789q58 135 195 501h284l8 -22q-106 -231 -262 -479h-225zM586 1290l8 -22q-106 -231 -262 -479h-226q88 205 195 501h285z" />
    <glyph glyph-name="uni2000" unicode="&#x2000;" horiz-adv-x="857" 
 />
    <glyph glyph-name="uni2001" unicode="&#x2001;" horiz-adv-x="1714" 
 />
    <glyph glyph-name="uni2002" unicode="&#x2002;" horiz-adv-x="857" 
 />
    <glyph glyph-name="uni2003" unicode="&#x2003;" horiz-adv-x="1714" 
 />
    <glyph glyph-name="uni2004" unicode="&#x2004;" horiz-adv-x="571" 
 />
    <glyph glyph-name="uni2005" unicode="&#x2005;" horiz-adv-x="428" 
 />
    <glyph glyph-name="uni2006" unicode="&#x2006;" horiz-adv-x="285" 
 />
    <glyph glyph-name="uni2007" unicode="&#x2007;" horiz-adv-x="285" 
 />
    <glyph glyph-name="uni2008" unicode="&#x2008;" horiz-adv-x="214" 
 />
    <glyph glyph-name="uni2009" unicode="&#x2009;" horiz-adv-x="342" 
 />
    <glyph glyph-name="uni200A" unicode="&#x200a;" horiz-adv-x="95" 
 />
    <glyph glyph-name="uni2010" unicode="&#x2010;" horiz-adv-x="659" 
d="M94 674h524l-53 -250h-524z" />
    <glyph glyph-name="uni2011" unicode="&#x2011;" horiz-adv-x="659" 
d="M94 674h524l-53 -250h-524z" />
    <glyph glyph-name="figuredash" unicode="&#x2012;" horiz-adv-x="659" 
d="M94 674h524l-53 -250h-524z" />
    <glyph glyph-name="endash" unicode="&#x2013;" horiz-adv-x="983" 
d="M90 666h852l-49 -230h-852z" />
    <glyph glyph-name="emdash" unicode="&#x2014;" horiz-adv-x="1966" 
d="M90 666h1835l-49 -230h-1835z" />
    <glyph glyph-name="quoteleft" unicode="&#x2018;" horiz-adv-x="440" 
d="M123 961l-8 22q106 231 262 479h225q-85 -199 -194 -501h-285z" />
    <glyph glyph-name="quoteright" unicode="&#x2019;" horiz-adv-x="440" 
d="M586 1462l8 -22q-106 -231 -262 -479h-226q88 205 195 501h285z" />
    <glyph glyph-name="quotesinglbase" unicode="&#x201a;" horiz-adv-x="569" 
d="M377 238l8 -23q-106 -231 -262 -479h-225q83 195 194 502h285z" />
    <glyph glyph-name="quotedblleft" unicode="&#x201c;" horiz-adv-x="887" 
d="M569 961l-8 22q106 231 262 479h226q-97 -226 -195 -501h-285zM123 961l-8 22q106 231 262 479h225q-85 -199 -194 -501h-285z" />
    <glyph glyph-name="quotedblright" unicode="&#x201d;" horiz-adv-x="887" 
d="M553 961q58 135 195 501h284l8 -22q-106 -231 -262 -479h-225zM586 1462l8 -22q-106 -231 -262 -479h-226q88 205 195 501h285z" />
    <glyph glyph-name="quotedblbase" unicode="&#x201e;" horiz-adv-x="1018" 
d="M825 238l9 -23q-104 -228 -263 -479h-225l49 119q19 45 146 383h284zM377 238l8 -23q-106 -231 -262 -479h-225q83 195 194 502h285z" />
    <glyph glyph-name="ellipsis" unicode="&#x2026;" horiz-adv-x="1706" 
d="M1310 -27q-162 0 -163 154q0 79 54 133q55 54 137 53q164 -1 163 -155q1 -78 -55 -131q-56 -54 -136 -54zM749 -27q-163 0 -163 154q0 79 54 133t136 53q164 -1 164 -155q0 -78 -55 -131q-55 -54 -136 -54zM188 -27q-162 0 -163 154q0 79 54 133q55 54 137 53
q164 -1 163 -155q1 -78 -55 -131q-56 -54 -136 -54z" />
    <glyph glyph-name="uni202F" unicode="&#x202f;" horiz-adv-x="342" 
 />
    <glyph glyph-name="guilsinglleft" unicode="&#x2039;" horiz-adv-x="664" 
d="M473 1032l191 -155l-279 -334l135 -350l-246 -103l-202 461v18z" />
    <glyph glyph-name="guilsinglright" unicode="&#x203a;" horiz-adv-x="664" 
d="M190 72l-190 155l279 334l-136 350l246 103l203 -461v-18z" />
    <glyph glyph-name="uni205F" unicode="&#x205f;" horiz-adv-x="428" 
 />
    <glyph glyph-name="Euro" unicode="&#x20ac;" 
d="M899 1237q-193 0 -311 -287h348l-39 -176h-360q-13 -42 -25 -115h299l-37 -178h-280q0 -123 46 -183t162 -60q117 0 267 63v-258q-126 -63 -330 -63q-446 0 -446 501h-152l37 178h127q9 70 22 115h-125l39 176h135q87 253 250 394t375 141q97 -1 177 -23t167 -80
l-125 -223q-86 49 -130 63t-91 15z" />
    <glyph glyph-name="trademark" unicode="&#x2122;" horiz-adv-x="1534" 
d="M879 741h-164v721h248l159 -510l170 510h240v-721h-168v408l4 121h-6l-174 -529h-141l-166 529h-7l5 -111v-418zM303 741v572h-197v149h564v-149h-199v-572h-168z" />
    <glyph glyph-name="uni25FC" unicode="&#x25fc;" horiz-adv-x="1120" 
d="M0 1120h1120v-1120h-1120v1120z" />
    <glyph glyph-name="uniFB01" unicode="&#xfb01;" horiz-adv-x="1372" 
d="M801 0l237 1118h301l-237 -1118h-301zM1086 1380q0 86 47 131t127 45q157 0 157 -120q0 -83 -45 -131t-135 -48q-151 0 -151 123zM-45 -492q-105 0 -174 25v242q63 -21 121 -21t103 42t63 128l204 965h-163l30 145l183 84l18 84q41 191 139 278t252 87t256 -49l-80 -224
q-68 31 -128 31q-118 0 -144 -145l-12 -62h219l-49 -229h-220l-215 -1010q-77 -371 -403 -371z" />
    <glyph glyph-name="uniFB02" unicode="&#xfb02;" horiz-adv-x="1372" 
d="M1131 1556h301l-330 -1556h-301zM-45 -492q-105 0 -174 25v242q63 -21 121 -21t103 42t63 128l204 965h-163l30 145l183 84l18 84q41 191 139 278t252 87t256 -49l-80 -224q-68 31 -128 31q-118 0 -144 -145l-12 -62h219l-49 -229h-220l-215 -1010q-77 -371 -403 -371z
" />
    <glyph glyph-name="uniFB2A" unicode="&#xfb2a;" horiz-adv-x="1605" 
d="M658 0h-584l165 1290h292l-83 -646q12 -1 30 -1q79 0 126 42t76 140l137 465h290l-135 -462q-115 -393 -494 -393q-20 0 -56 2l-27 -204h326q167 0 285 130t185 358l169 569h292l-167 -561q-54 -178 -109 -285q-230 -444 -718 -444zM1680 1625q44 -1 61 -21
q18 -20 18 -38q0 -58 -36 -86t-80 -28t-61 19t-17 37q-1 63 35 90t80 27z" />
    <glyph glyph-name="uniFB2B" unicode="&#xfb2b;" horiz-adv-x="1605" 
d="M658 0h-584l165 1290h292l-83 -646q12 -1 30 -1q79 0 126 42t76 140l137 465h290l-135 -462q-115 -393 -494 -393q-20 0 -56 2l-27 -204h326q167 0 285 130t185 358l169 569h292l-167 -561q-54 -178 -109 -285q-230 -444 -718 -444zM352 1625q44 -1 62 -21t18 -38
q0 -58 -36 -86t-80 -28t-61 19t-17 37q0 63 36 90q34 27 78 27z" />
    <glyph glyph-name="uniFB2C" unicode="&#xfb2c;" horiz-adv-x="1605" 
d="M876 508q44 0 62 -20t18 -39q0 -59 -36 -87t-80 -27q-44 0 -61 19t-17 37q0 63 36 90q34 27 78 27zM658 0h-584l165 1290h292l-83 -646q12 -1 30 -1q79 0 126 42t76 140l137 465h290l-135 -462q-115 -393 -494 -393q-20 0 -56 2l-27 -204h326q167 0 285 130t185 358
l169 569h292l-167 -561q-54 -178 -109 -285q-230 -444 -718 -444zM1680 1625q44 -1 61 -21q18 -20 18 -38q0 -58 -36 -86t-80 -28t-61 19t-17 37q-1 63 35 90t80 27z" />
    <glyph glyph-name="uniFB2D" unicode="&#xfb2d;" horiz-adv-x="1605" 
d="M876 508q44 0 62 -20t18 -39q0 -59 -36 -87t-80 -27q-44 0 -61 19t-17 37q0 63 36 90q34 27 78 27zM658 0h-584l165 1290h292l-83 -646q12 -1 30 -1q79 0 126 42t76 140l137 465h290l-135 -462q-115 -393 -494 -393q-20 0 -56 2l-27 -204h326q167 0 285 130t185 358
l169 569h292l-167 -561q-54 -178 -109 -285q-230 -444 -718 -444zM352 1625q44 -1 62 -21t18 -38q0 -58 -36 -86t-80 -28t-61 19t-17 37q0 63 36 90q34 27 78 27z" />
    <glyph glyph-name="uniFB2E" unicode="&#xfb2e;" horiz-adv-x="1329" 
d="M673 -249h-393l24 116h393zM1345 1290l-98 -462q-38 -171 -120 -254t-219 -122l192 -452h-347l-248 639q-93 -37 -121 -175l-100 -464h-304l98 461q33 167 118 252q85 86 224 125l-191 452h346l166 -442l83 -197q89 37 117 174l100 465h304z" />
    <glyph glyph-name="uniFB2F" unicode="&#xfb2f;" horiz-adv-x="1329" 
d="M663 -270h-136l-43 -202h-111l43 202h-135l25 117h382zM1345 1290l-98 -462q-38 -171 -120 -254t-219 -122l192 -452h-347l-248 639q-93 -37 -121 -175l-100 -464h-304l98 461q33 167 118 252q85 86 224 125l-191 452h346l166 -442l83 -197q89 37 117 174l100 465h304z
" />
    <glyph glyph-name="uniFB30" unicode="&#xfb30;" horiz-adv-x="1329" 
d="M532 300q44 0 61 -20q18 -20 18 -39q0 -59 -36 -87t-80 -27q-44 0 -61 19t-17 37q-1 63 35 90t80 27zM1345 1290l-98 -462q-38 -171 -120 -254t-219 -122l192 -452h-347l-248 639q-93 -37 -121 -175l-100 -464h-304l98 461q33 167 118 252q85 86 224 125l-191 452h346
l166 -442l83 -197q89 37 117 174l100 465h304z" />
    <glyph glyph-name="uniFB31" unicode="&#xfb31;" horiz-adv-x="1182" 
d="M404 760q44 0 61 -20q18 -20 18 -39q0 -59 -36 -87t-80 -27q-44 0 -61 19t-17 37q-1 63 35 90t80 27zM729 914q0 161 -213 161q-128 0 -280 -18l-50 -6l51 241q151 18 345 18t292 -34t138 -96q38 -62 38 -141q0 -80 -24 -196l-130 -610h148l-49 -233h-1032l49 233h579
l130 611q8 38 8 70z" />
    <glyph glyph-name="uniFB32" unicode="&#xfb32;" horiz-adv-x="951" 
d="M330 760q44 0 61 -20q18 -20 18 -39q0 -59 -36 -87t-80 -27q-44 0 -61 19t-17 37q-1 63 35 90t80 27zM64 265q42 -1 82 1t111 24q72 22 133 91q61 70 81 163l77 364q25 115 -25 147q-21 14 -83 14t-132 -17l-24 -6l51 241q93 23 204 23q203 0 279 -76q56 -55 56 -170
q0 -58 -21 -156l-193 -908h-231l-5 188h-15q-99 -134 -250 -186q-65 -22 -117 -22t-111 11l82 283q9 -9 51 -9z" />
    <glyph glyph-name="uniFB33" unicode="&#xfb33;" horiz-adv-x="1121" 
d="M382 760q44 0 61 -20q18 -20 18 -39q0 -59 -36 -87t-80 -27q-44 0 -61 19t-17 37q-1 63 35 90t80 27zM1211 1290l-47 -221q-136 -49 -186 -135q-30 -51 -47 -133l-170 -801h-305l172 808q22 109 85 166t117 76l2 7h-701l49 233h1031z" />
    <glyph glyph-name="uniFB34" unicode="&#xfb34;" horiz-adv-x="1345" 
d="M694 760q44 0 62 -20t18 -39q0 -59 -36 -87t-80 -27q-44 0 -61 19t-17 37q0 63 36 90q34 27 78 27zM21 0l175 823h306l-175 -823h-306zM1255 1030q0 -90 -24 -187l-179 -843h-306l179 844q8 38 8 70q0 161 -213 161q-189 0 -404 -29l-75 -10l49 231q216 43 530 43
t394 -124q41 -66 41 -156z" />
    <glyph glyph-name="uniFB35" unicode="&#xfb35;" horiz-adv-x="625" 
d="M56 760q44 0 62 -20t18 -39q0 -59 -36 -87t-80 -27q-44 0 -61 19t-17 37q0 63 36 90q34 27 78 27zM24 0l274 1290h305l-274 -1290h-305z" />
    <glyph glyph-name="uniFB36" unicode="&#xfb36;" horiz-adv-x="701" 
d="M40 760q44 0 62 -20t18 -39q0 -59 -36 -87t-80 -27q-44 0 -61 19t-17 37q0 63 36 90q34 27 78 27zM792 1290l-49 -233q-57 -37 -111 -103q-103 -126 -141 -251q-39 -125 -71 -269l-92 -434h-305l92 434q43 207 123 340t152 193t123 83l2 7h-314l49 233h542z" />
    <glyph glyph-name="uniFB38" unicode="&#xfb38;" horiz-adv-x="1330" 
d="M720 760q44 0 61 -20q18 -20 18 -39q0 -59 -36 -87t-80 -27q-44 0 -61 19t-17 37q-1 63 35 90t80 27zM435 442q0 -217 168 -217q237 0 321 394q42 197 42 287t-28 118t-61 36q-32 8 -87 8l-65 -5l48 225q77 22 165 22q277 0 326 -211q13 -57 13 -108q0 -154 -40 -346
q-68 -321 -248 -493t-448 -172q-151 0 -253 76q-160 120 -159 384q0 90 24 205l137 643h307q-94 -443 -128 -602t-34 -244z" />
    <glyph glyph-name="uniFB39" unicode="&#xfb39;" horiz-adv-x="592" 
d="M96 947q44 -1 61 -21q18 -20 18 -38q0 -58 -36 -86t-80 -28t-61 19t-17 37q-1 63 35 90t80 27zM208 436h-102l182 854h305l-127 -596z" />
    <glyph glyph-name="uniFB3A" unicode="&#xfb3a;" horiz-adv-x="1093" 
d="M348 760q44 0 61 -20q18 -20 18 -39q0 -59 -36 -87t-80 -27q-44 0 -61 19t-17 37q-1 63 35 90t80 27zM680 878q0 198 -200 197q-128 0 -341 -22l50 235q182 22 340 22q159 0 243 -34q216 -87 215 -366q0 -86 -23 -191l-258 -1211h-306l264 1242q16 74 16 128z" />
    <glyph glyph-name="uniFB3B" unicode="&#xfb3b;" horiz-adv-x="1055" 
d="M372 760q44 0 61 -20q18 -20 18 -39q0 -59 -36 -87t-80 -27q-44 0 -61 19t-17 37q-1 63 35 90t80 27zM542 1310q158 0 242 -34q216 -87 217 -366q0 -86 -23 -191l-32 -148q-83 -398 -338 -525q-132 -66 -334 -66t-343 28l50 238q159 -20 319 -20t232 86t102 228l44 210
q15 70 15 125q0 200 -200 200q-127 0 -340 -22l50 235q181 22 339 22z" />
    <glyph glyph-name="uniFB3C" unicode="&#xfb3c;" horiz-adv-x="1115" 
d="M336 760q44 0 62 -20t18 -39q0 -59 -36 -87t-80 -27q-44 0 -61 19t-17 37q0 63 36 90q34 27 78 27zM1195 1290l-42 -198l-306 -613l-209 -479h-297l209 479l288 578h-677l106 499h305l-56 -266h679z" />
    <glyph glyph-name="uniFB3E" unicode="&#xfb3e;" horiz-adv-x="1413" 
d="M728 760q44 0 62 -20t18 -39q0 -59 -36 -87t-80 -27q-44 0 -61 19t-17 37q0 63 36 90q34 27 78 27zM981 886q0 182 -163 182q-93 0 -172 -69q-78 -69 -112 -117l-14 -22l-259 -860h-298l249 819q45 147 45 291q0 55 -14 181h292q7 -39 11 -91l4 -107h19q19 29 64 71
t91 70t120 52t162 24q86 0 150 -33q148 -76 148 -317q0 -96 -29 -230l-155 -730h-552l49 233h240l99 462q25 115 25 191z" />
    <glyph glyph-name="uniFB40" unicode="&#xfb40;" horiz-adv-x="879" 
d="M248 760q44 0 62 -20t18 -39q0 -59 -36 -87t-80 -27q-44 0 -61 19t-17 37q0 63 36 90q34 27 78 27zM472 1310q184 0 255 -70q70 -70 70 -187q0 -59 -18 -145l-112 -525q-40 -190 -108 -334l-23 -49h-583l49 233h310q35 77 67 230l95 445q25 115 -25 147q-22 14 -78 14
t-136 -17l51 240q90 18 186 18z" />
    <glyph glyph-name="uniFB41" unicode="&#xfb41;" horiz-adv-x="1268" 
d="M656 760q44 0 62 -20t18 -39q0 -59 -36 -87t-80 -27q-44 0 -61 19t-17 37q0 63 36 90q34 27 78 27zM376 442q0 -219 167 -219q232 0 322 422q26 122 26 209q0 221 -167 221l-113 -2q-153 -165 -210 -428q-25 -118 -25 -203zM774 1310q257 0 363 -174q64 -107 64 -267
q0 -101 -26 -224q-66 -313 -248 -489t-434 -176t-360 176q-67 108 -67 271q0 258 122 455q72 116 142 170l1 8l-134 -9l49 231q238 28 528 28z" />
    <glyph glyph-name="uniFB43" unicode="&#xfb43;" horiz-adv-x="1309" 
d="M688 960q44 0 61 -20q18 -20 18 -39q0 -59 -36 -87t-80 -27q-44 0 -61 19t-17 37q-1 63 35 90t80 27zM885 875q0 192 -174 192q-163 0 -240 -117q-42 -68 -42 -135q-1 -66 43 -106q44 -39 88 -48l37 -7l-100 -228l-51 7q-132 18 -196 49q-142 70 -142 243t89 315t244 207
t333 65q255 0 357 -171q60 -98 60 -232t-28 -263l-242 -1138h-311l242 1138q33 151 33 229z" />
    <glyph glyph-name="uniFB44" unicode="&#xfb44;" horiz-adv-x="1269" 
d="M702 963q44 -1 61 -21q18 -20 18 -38q0 -58 -36 -86t-80 -28t-61 19t-17 37q-1 63 35 90t80 27zM776 1310q429 0 429 -426q0 -109 -31 -254q-31 -146 -86 -266q-54 -120 -118 -192t-146 -117q-82 -43 -160 -59t-252 -16q-175 0 -328 21l-51 7l47 224q226 -18 463 -18
q110 0 174 69t100 176q35 106 59 229t23 160q1 37 -1 58q-12 161 -175 161t-237 -117q-42 -66 -42 -134t43 -107t87 -48l37 -7l-100 -228l-51 7q-132 18 -196 49q-142 70 -142 243t88 315t244 206t322 64z" />
    <glyph glyph-name="uniFB46" unicode="&#xfb46;" horiz-adv-x="1274" 
d="M262 615q44 -1 62 -21t18 -38q0 -58 -36 -86t-80 -28t-61 19t-17 37q0 63 36 90q34 27 78 27zM544 1290l237 -581q92 103 152 298l84 282h302l-72 -238q-54 -173 -90 -235t-72 -115q-70 -105 -195 -196l187 -329l-37 -176h-1102l49 233h498l225 -14l1 4l-206 350
l-303 717h342z" />
    <glyph glyph-name="uniFB47" unicode="&#xfb47;" horiz-adv-x="1310" 
d="M646 760q44 0 61 -20q18 -20 18 -39q0 -59 -36 -87t-80 -27q-44 0 -61 19t-17 37q-1 63 35 90t80 27zM-74 -493l268 1265h283l-268 -1265h-283zM1353 1106l-342 -589q-165 -285 -206 -483l-8 -34h-303l8 34q17 81 73 224t117 247l317 552h-755l49 233h1089z" />
    <glyph glyph-name="uniFB48" unicode="&#xfb48;" horiz-adv-x="1082" 
d="M354 760q44 0 62 -20t18 -39q0 -59 -36 -87t-80 -27q-44 0 -61 19t-17 37q0 63 36 90q34 27 78 27zM550 1310q330 0 410 -124q41 -66 41 -156t-24 -187l-179 -843h-306l179 844q8 38 8 70q0 161 -213 161q-127 0 -329 -21l50 235q191 21 363 21z" />
    <glyph glyph-name="uniFB49" unicode="&#xfb49;" horiz-adv-x="1605" 
d="M876 508q44 0 62 -20t18 -39q0 -59 -36 -87t-80 -27q-44 0 -61 19t-17 37q0 63 36 90q34 27 78 27zM658 0h-584l165 1290h292l-83 -646q12 -1 30 -1q79 0 126 42t76 140l137 465h290l-135 -462q-115 -393 -494 -393q-20 0 -56 2l-27 -204h326q167 0 285 130t185 358
l169 569h292l-167 -561q-54 -178 -109 -285q-230 -444 -718 -444z" />
    <glyph glyph-name="uniFB4A" unicode="&#xfb4a;" horiz-adv-x="1435" 
d="M812 760q44 0 61 -20q18 -20 18 -39q0 -59 -36 -87t-80 -27q-44 0 -61 19t-17 37q-1 63 35 90t80 27zM1347 1030q0 -90 -24 -187l-179 -843h-307l179 844q8 38 8 70q0 161 -212 161q-56 0 -122 -3l-147 -690q-37 -179 -141 -291q-104 -111 -331 -111q-77 0 -137 27
l50 232q63 -18 101 -18q74 0 106 48q33 48 47 113l142 668l-148 -14l49 231q317 43 631 43t394 -124q41 -66 41 -156z" />
    <glyph glyph-name="uniFB4B" unicode="&#xfb4b;" horiz-adv-x="625" 
d="M23 0l274 1290h305l-274 -1290h-305zM456 1625q44 -1 61 -21q18 -20 18 -38q0 -58 -36 -86t-80 -28t-61 19t-17 37q-1 63 35 90t80 27z" />
    </font>
</defs>
</svg>
