<?xml version="1.0" standalone="no"?>
<!DOCTYPE svg PUBLIC "-//W3C//DTD SVG 1.1//EN" "http://www.w3.org/Graphics/SVG/1.1/DTD/svg11.dtd" >
<svg xmlns="http://www.w3.org/2000/svg">
<metadata>
Created by FontPrep 20130207 at Tue Jul  1 12:06:56 2014
 By eli ben yosef
Digitized data copyright (c) 2011, Google Corporation. Copyright (c) 2012, 2013 Yanek Iontef (yanek@netvision.net.il)
</metadata>
<defs>
<font id="8b4b25a9e6dee2304c08fefb363a9190" horiz-adv-x='1024' >
  <font-face 
    font-family="OpenSansHebrew-Bold"
    font-weight="700"
    font-stretch="normal"
    units-per-em="2048"
    panose-1="0 0 8 0 0 0 0 0 0 0"
    ascent="1638"
    descent="-410"
    x-height="1118"
    cap-height="1462"
    bbox="-152 -651 1980 1714"
    underline-thickness="102"
    underline-position="-103"
    unicode-range="U+000D-FB4B"
  />
<missing-glyph horiz-adv-x="748" 
d="M136 68h408v1229h-408v-1229zM68 0v1365h544v-1365h-544z" />
    <glyph glyph-name=".notdef" horiz-adv-x="748" 
d="M136 68h408v1229h-408v-1229zM68 0v1365h544v-1365h-544z" />
    <glyph glyph-name="glyph1" horiz-adv-x="2048" 
 />
    <glyph glyph-name="glyph1" horiz-adv-x="2048" 
 />
    <glyph glyph-name="glyph2" horiz-adv-x="682" 
 />
    <glyph glyph-name="uni000D" unicode="&#xd;" horiz-adv-x="682" 
 />
    <glyph glyph-name="space" unicode=" " horiz-adv-x="532" 
 />
    <glyph glyph-name="exclam" unicode="!" horiz-adv-x="586" 
d="M292 313q84 0 130 -44q46 -45 45 -125t-47 -126t-128 -45t-129 45q-46 44 -46 126t45 126q46 43 130 43zM416 485h-244l-51 977h346z" />
    <glyph glyph-name="quotedbl" unicode="&#x22;" horiz-adv-x="967" 
d="M793 934h-197l-41 528h279zM371 934h-197l-41 528h279z" />
    <glyph glyph-name="numbersign" unicode="#" horiz-adv-x="1323" 
d="M586 844l-47 -232h196l47 232h-196zM1278 1053v-209h-280l-46 -232h258v-206h-297l-77 -406h-220l78 406h-194l-76 -406h-215l74 406h-238v206h277l47 232h-252v209h289l77 407h219l-77 -407h198l78 407h215l-78 -407h240z" />
    <glyph glyph-name="dollar" unicode="$" 
d="M791 442q0 40 -32 70t-104 61v-249q136 22 136 118zM389 1049q0 -44 29 -72t100 -59v235q-129 -19 -129 -104zM655 1554v-149q232 -11 414 -92l-95 -234q-154 64 -319 78v-295q196 -75 278 -130q159 -107 159 -270q0 -164 -116 -261t-321 -115v-205h-137v201
q-242 4 -428 86v264q84 -42 208 -76t220 -39v310l-67 26q-199 79 -281 169t-82 232q0 140 114 234t316 113v153h137z" />
    <glyph glyph-name="percent" unicode="%" horiz-adv-x="1845" 
d="M1339 440q-1 -252 95 -252t96 251t-96 251q-50 0 -72 -61t-23 -189zM1432 899q170 -1 260 -119t90 -342t-89 -340t-258 -116t-259 119t-89 341q0 457 345 457zM315 1024q-1 -252 95 -252t96 251t-96 251q-50 0 -72 -61t-23 -189zM635 0h-240l811 1462h240zM408 1483
q170 -1 260 -119t90 -342t-88 -341q-88 -116 -258 -116t-260 119t-89 342q0 457 345 457z" />
    <glyph glyph-name="ampersand" unicode="&#x26;" horiz-adv-x="1536" 
d="M403 411q1 -73 65 -124t178 -51t214 61l-332 330q-62 -47 -94 -95t-31 -121zM628 1247q-62 0 -100 -32t-39 -91q0 -87 95 -194q90 50 134 96t44 104q0 56 -36 86t-98 31zM610 -20q-244 0 -386 112t-142 303q0 137 60 233t208 181q-76 87 -110 165t-33 171q0 152 116 245
q117 93 307 93t302 -86t112 -219q0 -134 -70 -232t-222 -186l284 -277q71 117 123 301h318q-76 -288 -242 -491l301 -293h-377l-115 113q-190 -133 -434 -133z" />
    <glyph glyph-name="quotesingle" unicode="'" horiz-adv-x="545" 
d="M371 934h-197l-41 528h279z" />
    <glyph glyph-name="parenleft" unicode="(" horiz-adv-x="694" 
d="M82 563q0 263 78 494t223 405h250q-141 -191 -213 -422t-72 -477q0 -247 74 -475t209 -412h-248q-301 350 -301 887z" />
    <glyph glyph-name="parenright" unicode=")" horiz-adv-x="694" 
d="M612 560q0 -262 -77 -488t-224 -396h-248q135 186 209 414t74 474q0 245 -72 476t-213 422h250q149 -176 225 -408t76 -494z" />
    <glyph glyph-name="asterisk" unicode="*" horiz-adv-x="1116" 
d="M647 1188l373 104l33 -252l-340 -24l223 -297l-227 -121l-156 313l-137 -311l-236 119l221 297l-338 26l39 250l365 -104l-41 368h262z" />
    <glyph glyph-name="plus" unicode="+" 
d="M694 831h387v-219h-387v-385h-219v385h-387v219h387v390h219v-390z" />
    <glyph glyph-name="comma" unicode="," horiz-adv-x="594" 
d="M444 238l15 -23q-53 -205 -176 -479h-220q65 269 101 502h280z" />
    <glyph glyph-name="hyphen" unicode="-" horiz-adv-x="659" 
d="M598 424h-537v250h537v-250z" />
    <glyph glyph-name="period" unicode="." horiz-adv-x="584" 
d="M292 313q84 0 130 -44q46 -45 45 -125t-47 -126t-128 -45t-129 45q-46 44 -46 126t45 126q46 43 130 43z" />
    <glyph glyph-name="slash" unicode="/" horiz-adv-x="846" 
d="M291 0h-277l545 1462h277z" />
    <glyph glyph-name="zero" unicode="0" 
d="M582 1235q-108 0 -154 -118t-47 -387q1 -269 47 -385t155 -116q109 1 157 119t48 386t-48 384q-50 117 -158 117zM588 -20q-514 0 -514 758q0 378 124 563q124 184 382 184q256 0 386 -192q130 -193 130 -569t-126 -560t-382 -184z" />
    <glyph glyph-name="one" unicode="1" 
d="M846 0h-309v846l3 138l5 153q-77 -77 -107 -101l-168 -135l-149 186l471 375h254v-1462z" />
    <glyph glyph-name="two" unicode="2" 
d="M607 1483q199 0 327 -110t129 -281v-5q-1 -187 -143 -367q-72 -92 -265 -269l-188 -177v-14h637v-260h-1022v215l367 371q163 166 213 231q94 122 94 221q0 187 -178 187q-151 0 -332 -150l-168 199q110 93 179 130q147 79 343 79h7z" />
    <glyph glyph-name="three" unicode="3" 
d="M557 1483q227 1 359 -91t131 -243q0 -151 -83 -247t-233 -132v-6q177 -22 268 -108t91 -230q0 -210 -153 -330q-154 -116 -415 -116t-444 79v263q192 -97 368 -97q176 1 248 53t72 160t-83 152t-269 43h-111v237h113q173 0 250 45t77 152q0 166 -208 166
q-148 0 -312 -107l-143 213q200 144 477 144z" />
    <glyph glyph-name="four" unicode="4" 
d="M659 543v248q1 49 5 171t8 146h-8q-41 -90 -89 -160l-268 -405h352zM961 543h176v-240h-176v-303h-302v303h-624v215l641 944h285v-919z" />
    <glyph glyph-name="five" unicode="5" 
d="M473 684q-107 0 -221 -33l-123 66l55 745h792v-262h-521l-27 -287l35 7q64 14 151 14q212 0 338 -119t125 -326q1 -245 -151 -377t-414 -132t-413 79v267q82 -43 187 -69t197 -26q283 0 283 232q0 221 -293 221z" />
    <glyph glyph-name="six" unicode="6" 
d="M607 713q-96 0 -163 -61q-66 -62 -66 -142q0 -118 62 -201q62 -82 160 -82q98 1 151 67t53 182t-50 176t-147 61zM71 621q0 858 733 858q126 0 196 -15v-247q-91 20 -176 20q-311 0 -410 -190q-50 -97 -59 -267h13q99 170 306 170t318 -122t111 -350q1 -226 -131 -362
t-367 -136h-6q-241 0 -385 169t-143 464v8z" />
    <glyph glyph-name="seven" unicode="7" 
d="M55 1200v260h1049v-194l-553 -1266h-324l549 1200h-721z" />
    <glyph glyph-name="eight" unicode="8" 
d="M358 389q0 -86 60 -134t168 -48q108 1 166 49t59 123q-1 75 -57 133t-183 125q-213 -97 -213 -248zM584 1255q-80 -1 -128 -41t-48 -104t38 -113q41 -47 140 -96q96 45 136 93t40 114t-50 106t-128 41zM117 1130q0 157 130 254q129 97 339 97q210 1 338 -95t129 -258
q0 -114 -63 -201t-199 -155q161 -86 234 -182t73 -211q0 -181 -140 -290t-376 -109t-373 102t-137 289q0 127 68 223t212 170q-235 147 -235 366z" />
    <glyph glyph-name="nine" unicode="9" 
d="M570 1231q-98 -1 -152 -67t-53 -182q0 -116 50 -176t146 -61q96 0 163 61t67 142q0 118 -62 200q-61 82 -159 83zM477 508q-191 0 -301 123t-110 349t134 362t363 137h6q241 0 385 -170t144 -459v-12q0 -432 -182 -645t-551 -213q-127 0 -197 14v248q84 -21 207 -21
q123 -1 224 45t153 144t61 268h-12q-59 -94 -135 -132t-189 -38z" />
    <glyph glyph-name="colon" unicode=":" horiz-adv-x="584" 
d="M292 313q84 0 130 -44q46 -45 45 -125t-47 -126t-128 -45t-129 45q-46 44 -46 126t45 126q46 43 130 43zM293 1139q83 -1 129 -45t45 -125t-47 -125t-128 -45q-82 0 -129 44q-46 44 -46 125q0 171 176 171z" />
    <glyph glyph-name="semicolon" unicode=";" horiz-adv-x="594" 
d="M444 238l15 -23q-53 -205 -176 -479h-220q65 269 101 502h280zM293 1139q83 -1 129 -45t45 -125t-47 -125t-128 -45q-82 0 -129 44q-46 44 -46 125q0 171 176 171z" />
    <glyph glyph-name="less" unicode="&#x3c;" 
d="M1081 1040l-684 -317l684 -281v-239l-993 438v143l993 496v-240z" />
    <glyph glyph-name="equal" unicode="=" 
d="M1081 418h-993v219h993v-219zM1081 805h-993v219h993v-219z" />
    <glyph glyph-name="greater" unicode="&#x3e;" 
d="M1081 784v-143l-993 -438v239l684 281l-684 317v240z" />
    <glyph glyph-name="question" unicode="?" horiz-adv-x="976" 
d="M418 313q84 0 130 -44q46 -45 46 -125t-46 -126t-130 -45q-82 1 -128 45t-46 126t45 126q45 43 129 43zM457 1483q227 0 349 -99t122 -264q0 -112 -50 -190t-168 -164q-119 -86 -144 -124q-25 -37 -25 -97v-60h-265v74q0 95 41 167t149 150t140 123q33 46 33 108
q1 62 -47 96t-135 34q-149 0 -342 -98l-109 219q224 125 451 125z" />
    <glyph glyph-name="at" unicode="@" horiz-adv-x="1837" 
d="M974 918q-124 0 -194 -78t-69 -213q0 -211 172 -211q91 0 137 64t57 206l13 221q-53 11 -116 11zM907 -154q-379 0 -593 200q-212 200 -212 556q0 246 108 448t309 316q199 114 441 115q242 0 414 -90t267 -256q94 -166 94 -383v-6q1 -140 -45 -258t-130 -186t-187 -69
h-9q-72 -1 -130 35t-83 94h-16q-108 -129 -280 -129q-172 1 -274 107t-102 304q-1 198 133 327t351 129q81 0 187 -17t173 -39l-23 -489q0 -139 76 -139q64 0 102 94t38 244v9q0 154 -67 276q-67 121 -187 187t-267 66h-13q-200 0 -350 -83t-229 -239t-79 -362
q0 -276 148 -424t427 -147q232 0 483 92v-192q-213 -91 -475 -91z" />
    <glyph glyph-name="A" unicode="A" horiz-adv-x="1413" 
d="M899 608l-166 535q-19 66 -26 98q-33 -127 -189 -633h381zM1413 0h-334l-107 348h-532l-106 -348h-334l516 1468h379z" />
    <glyph glyph-name="B" unicode="B" horiz-adv-x="1376" 
d="M494 637v-381h202q128 0 189 49t61 150q0 182 -260 182h-192zM494 1208v-325h180q127 0 183 39q56 40 56 126t-61 123t-195 37h-163zM184 1462h455q309 0 451 -89t141 -281q0 -130 -62 -215t-163 -101v-10q138 -30 200 -114t62 -228q0 -200 -144 -312t-393 -112h-547
v1462z" />
    <glyph glyph-name="C" unicode="C" horiz-adv-x="1305" 
d="M775 -20q-319 0 -488 193t-169 556v10q0 220 83 390.5t237 262t353 91.5h13q215 0 428 -103l-100 -252q-203 97 -328 97q-175 0 -271 -131.5t-96 -366.5q0 -489 367 -489q153 0 373 77v-260q-180 -75 -402 -75z" />
    <glyph glyph-name="D" unicode="D" horiz-adv-x="1516" 
d="M494 1208v-952h133q448 0 448 476t-416 476h-165zM184 1462h459q358 0 556 -189t198 -539t-205.5 -542t-593.5 -192h-414v1462z" />
    <glyph glyph-name="E" unicode="E" horiz-adv-x="1147" 
d="M1026 1208h-532v-321h494v-254h-494v-377h532v-256h-842v1462h842v-254z" />
    <glyph glyph-name="F" unicode="F" horiz-adv-x="1124" 
d="M1022 1208h-533v-377h495v-253h-495v-578h-305v1462h838v-254z" />
    <glyph glyph-name="G" unicode="G" horiz-adv-x="1483" 
d="M1319 821v-758q-256 -83 -520 -83q-330 0 -506 194q-174 195 -174 554t202 557q203 198 562 198q225 0 434 -90l-103 -248q-162 80 -348 80t-307 -135.5t-121 -368t97.5 -358t283.5 -125.5q94 0 197 20v305h-277v258h580z" />
    <glyph glyph-name="H" unicode="H" horiz-adv-x="1567" 
d="M1382 0h-309v631h-579v-631h-310v1462h310v-573h579v573h309v-1462z" />
    <glyph glyph-name="I" unicode="I" horiz-adv-x="678" 
d="M494 0h-310v1462h310v-1462z" />
    <glyph glyph-name="J" unicode="J" horiz-adv-x="678" 
d="M494 1462v-1369q0 -255 -118 -389t-345 -134q-105 0 -183 22v258q83 -20 146 -20q102 0 146 63t44 199v1370h310z" />
    <glyph glyph-name="K" unicode="K" horiz-adv-x="1360" 
d="M494 0h-310v1462h310v-669l122 172l396 497h344l-510 -647l514 -815h-352l-383 616l-131 -94v-522z" />
    <glyph glyph-name="L" unicode="L" horiz-adv-x="1157" 
d="M494 256h593v-256h-903v1462h310v-1206z" />
    <glyph glyph-name="M" unicode="M" horiz-adv-x="1931" 
d="M1458 692q0 106 15 453h-9l-377 -1145h-284l-352 1147h-9q19 -341 19 -467v-680h-277v1462h422l346 -1118h6l367 1118h422v-1462h-289v692z" />
    <glyph glyph-name="N" unicode="N" horiz-adv-x="1665" 
d="M1481 0h-394l-636 1106h-9q19 -285 19 -418v-688h-277v1462h391l635 -1095h7q-15 285 -15 403v692h279v-1462z" />
    <glyph glyph-name="O" unicode="O" horiz-adv-x="1630" 
d="M1186 734q0 494 -371 493q-371 1 -371 -493t371 -494t371 494zM119 735q1 365 181 557t516 193q336 0 516 -194q179 -193 179 -557t-180 -559t-516 -195t-516 195t-180 560z" />
    <glyph glyph-name="P" unicode="P" horiz-adv-x="1286" 
d="M494 1208v-434h102q285 0 285 220q1 110 -59 162t-187 52h-141zM651 1462q543 0 543 -462q0 -232 -148 -356t-419 -124h-133v-520h-310v1462h467z" />
    <glyph glyph-name="Q" unicode="Q" horiz-adv-x="1630" 
d="M1186 734q0 494 -371 493q-371 1 -371 -493t371 -494t371 494zM815 -20q-336 0 -516 195t-180 560q1 365 181 557t516 193q336 0 516 -194q179 -194 179 -558q1 -259 -91 -433t-269 -255l352 -393h-397l-268 328h-23z" />
    <glyph glyph-name="R" unicode="R" horiz-adv-x="1352" 
d="M494 1208v-395h100q147 0 217 49t70 153t-70.5 148.5t-222.5 44.5h-94zM184 1462h426q297 0 440.5 -108t143.5 -330q0 -129 -71 -229.5t-201 -157.5q352 -526 430 -637h-344l-349 561h-165v-561h-310v1462z" />
    <glyph glyph-name="S" unicode="S" horiz-adv-x="1128" 
d="M414 1090q0 -54 18.5 -84.5t60 -59t221.5 -114t256 -185.5q77 -96 77 -241q0 -196 -143 -311t-387 -115t-424 88v288q152 -67 253.5 -93.5t195 -26.5t147.5 39t54 116q1 77 -93 141q-48 32 -187 97.5t-205 122.5q-147 127 -147 318t131 302q132 111 345.5 111t452.5 -103
l-100 -241q-212 86 -350 86q-80 0 -128 -40.5t-48 -94.5z" />
    <glyph glyph-name="T" unicode="T" horiz-adv-x="1186" 
d="M1145 1204h-397v-1204h-310v1204h-397v258h1104v-258z" />
    <glyph glyph-name="U" unicode="U" horiz-adv-x="1548" 
d="M1374 1462v-952q0 -240 -162 -385t-433 -145h-11q-282 0 -438 145t-156 395v942h309v-895q0 -171 69 -249t222 -78t222 79t69 250v893h309z" />
    <glyph glyph-name="V" unicode="V" horiz-adv-x="1331" 
d="M834 0h-338l-496 1462h313l275 -870q58 -198 78 -322q11 93 75 322l277 870h313z" />
    <glyph glyph-name="W" unicode="W" horiz-adv-x="1980" 
d="M1608 0h-353l-198 768q-13 48 -39 178t-30 164q-5 -47 -30 -175t-36 -169l-197 -766h-352l-373 1462h305l187 -798q47 -208 71 -383q7 57 29 181t39 181l213 819h293l213 -819q39 -157 67 -362q29 213 72 383l186 798h305z" />
    <glyph glyph-name="X" unicode="X" horiz-adv-x="1366" 
d="M872 737l494 -737h-354l-340 553l-340 -553h-332l485 754l-454 708h342l315 -526l308 526h335z" />
    <glyph glyph-name="Y" unicode="Y" horiz-adv-x="1278" 
d="M793 0h-308v559l-485 903h336l303 -602l305 602h334l-485 -893v-569z" />
    <glyph glyph-name="Z" unicode="Z" horiz-adv-x="1186" 
d="M1137 256v-256h-1088v201l701 1005h-682v256h1050v-200l-700 -1006h719z" />
    <glyph glyph-name="bracketleft" unicode="[" horiz-adv-x="678" 
d="M627 1251h-224v-1364h224v-211h-484v1786h484v-211z" />
    <glyph glyph-name="backslash" unicode="\" horiz-adv-x="846" 
d="M834 0h-277l-545 1462h277z" />
    <glyph glyph-name="bracketright" unicode="]" horiz-adv-x="678" 
d="M535 -324h-484v211h223v1364h-223v211h484v-1786z" />
    <glyph glyph-name="asciicircum" unicode="^" horiz-adv-x="1090" 
d="M1085 520h-239l-322 643l-280 -643h-236l438 950h144z" />
    <glyph glyph-name="underscore" unicode="_" horiz-adv-x="842" 
d="M846 -324h-850v140h850v-140z" />
    <glyph glyph-name="grave" unicode="`" horiz-adv-x="1243" 
d="M332 1569h342q67 -106 235 -301v-27h-202q-69 49 -190 147t-185 160v21z" />
    <glyph glyph-name="a" unicode="a" horiz-adv-x="1237" 
d="M399 332q0 -129 148 -129q107 0 170 61t63 162v92l-118 -4q-133 -4 -198 -48t-65 -134zM615 1141q468 0 468 -396v-745h-213l-59 152h-8q-77 -98 -158 -135t-227 -37t-240 92q-92 92 -92 265t123 259t377 94l194 6v49q0 170 -174 170q-134 0 -315 -81l-101 206
q194 101 425 101z" />
    <glyph glyph-name="b" unicode="b" horiz-adv-x="1296" 
d="M893 564q-1 330 -217 331q-106 0 -158 -70t-53 -229v-33q0 -179 53 -257t159 -79t161 87t55 250zM465 1556v-362q0 -69 -12 -222h12q107 167 311 167t316 -154q112 -153 112 -427t-116 -426t-313 -152t-310 143h-21l-51 -123h-233v1556h305z" />
    <glyph glyph-name="c" unicode="c" horiz-adv-x="1053" 
d="M614 -20q-522 0 -522 573q0 284 142 435t407 151q195 0 347 -76l-89 -236q-162 66 -258 66q-238 0 -238 -333t238 -333q168 0 313 97v-261q-78 -51 -152 -67t-188 -16z" />
    <glyph glyph-name="d" unicode="d" horiz-adv-x="1296" 
d="M626 223q112 0 167 67.5t59 231.5v33q0 179 -56 257.5t-170 78.5q-226 0 -225.5 -334t225.5 -334zM1137 0h-234l-59 145h-13q-103 -165 -309 -165t-318 152.5t-112 426t114.5 427t320.5 153.5t317 -165h10q-23 129 -23 224v358h306v-1556z" />
    <glyph glyph-name="e" unicode="e" horiz-adv-x="1210" 
d="M624 922q-97 0 -152.5 -61t-63.5 -175h428q-2 112 -58.5 174t-153.5 62zM650.5 -20q-254.5 0 -406.5 149t-152 426t140 430.5t383 153.5t375 -134.5t132 -373.5v-148h-721q5 -131 77.5 -203.5t201.5 -72.5q190 0 379 88v-236q-154 -79 -408.5 -79z" />
    <glyph glyph-name="f" unicode="f" horiz-adv-x="793" 
d="M644 1325q-130 0 -130 -137v-70h264v-229h-264v-889h-305v889h-168v147l168 82v82q0 192 94 280t276 87q182 0 306 -47l-78 -224q-93 29 -163 29z" />
    <glyph glyph-name="g" unicode="g" horiz-adv-x="1157" 
d="M270 -158q0 -136 258 -135q136 0 229 45q93 44 93 114t-54 95t-171 25h-158q-84 0 -141 -39q-56 -41 -56 -105zM550 555q166 -1 165 199q0 200 -167 200t-167 -202q1 -93 43 -145t126 -52zM549 1139q99 0 194 -21h390v-155l-175 -45q48 -77 48 -168q0 -180 -125 -280
t-349 -101l-55 3l-45 5q-47 -36 -47 -80q0 -66 168 -66h190q185 1 281 -79t96 -232q0 -196 -164 -304t-469 -108q-233 0 -357 81t-124 229q0 207 248 266q-46 18 -82 65q-35 47 -35 103q1 56 35 98t109 86q-89 39 -140 123t-51 197q0 183 119 283t340 100z" />
    <glyph glyph-name="h" unicode="h" horiz-adv-x="1346" 
d="M465 1556v-317q0 -47 -7 -174l-7 -91h16q102 165 311 165t311.5 -106t102.5 -304v-729h-305v653q0 242 -180 242q-128 0 -185 -87t-57 -282v-526h-305v1556h305z" />
    <glyph glyph-name="i" unicode="i" horiz-adv-x="625" 
d="M465 0h-305v1118h305v-1118zM313 1556q166 0 166 -149q0 -72 -42 -111t-124 -39q-166 -1 -166 149t166 150z" />
    <glyph glyph-name="j" unicode="j" horiz-adv-x="625" 
d="M465 1118v-1239q0 -179 -103 -275t-292 -96q-119 0 -201 25v240q69 -19 143 -19q148 0 148 170v1194h305zM313 1556q166 0 166 -149q0 -72 -42 -111t-124 -39q-166 -1 -166 149t166 150z" />
    <glyph glyph-name="k" unicode="k" horiz-adv-x="1270" 
d="M465 0h-305v1556h305v-694l-16 -254h4l133 170l313 340h344l-444 -485l471 -633h-352l-322 453l-131 -105v-348z" />
    <glyph glyph-name="l" unicode="l" horiz-adv-x="625" 
d="M465 0h-305v1556h305v-1556z" />
    <glyph glyph-name="m" unicode="m" horiz-adv-x="2011" 
d="M856 653q0 242 -168 242q-117 0 -170 -86t-53 -283v-526h-305v1118h233l41 -144h17q45 78 130 122t195 43q252 0 340 -165h27q45 78 132 122t198 43q193 0 289 -99t96 -311v-729h-306v653q0 242 -168 242q-113 0 -168 -81t-55 -253v-561h-305v653z" />
    <glyph glyph-name="n" unicode="n" horiz-adv-x="1346" 
d="M795 1139q194 0 295.5 -105.5t101.5 -304.5v-729h-305v653q0 122 -43.5 182t-136.5 60q-128 0 -185 -86t-57 -283v-526h-305v1118h233l41 -144h17q102 165 344 165z" />
    <glyph glyph-name="o" unicode="o" horiz-adv-x="1268" 
d="M632 893q-122 0 -176 -81q-54 -80 -54 -250t56 -254t176 -83q120 0 174 83q54 82 55 252q0 170 -55 252t-176 81zM645 1139q153 1 275 -69t188 -200t67 -299v-10q0 -273 -144 -427t-401 -154h-9q-153 0 -275 70t-188 202q-66 131 -67 299v10q0 274 143 426t402 152h9z
" />
    <glyph glyph-name="p" unicode="p" horiz-adv-x="1296" 
d="M465 563q0 -179 53 -257t170 -79q205 0 205 338q0 166 -51 248q-52 82 -162 82t-162 -70t-53 -229v-33zM776 1139q204 -1 316 -153t112 -422t-116 -428q-116 -156 -307 -156h-7q-196 0 -309 143h-16q16 -135 16 -162v-453h-305v1610h248l43 -146h14q107 167 311 167z" />
    <glyph glyph-name="q" unicode="q" horiz-adv-x="1296" 
d="M852 555q0 179 -55 257t-179 79q-215 0 -215 -338q-1 -169 53 -251t168 -83q114 0 170 67q54 67 58 232v37zM524 -20q-208 0 -320 152t-112 426t114 427q114 154 318 154q203 0 320 -165h8l27 144h258v-1610h-306v469q0 65 13 168h-13q-99 -165 -307 -165z" />
    <glyph glyph-name="r" unicode="r" horiz-adv-x="930" 
d="M763 1139q84 0 124 -9l-23 -286q-36 10 -90 10q-146 0 -227.5 -75t-81.5 -210v-569h-305v1118h231l45 -188h15q54 96 141 152.5t171 56.5z" />
    <glyph glyph-name="s" unicode="s" horiz-adv-x="1018" 
d="M473 203q166 0 166 96q0 49 -43.5 78t-185.5 90.5t-203 107.5q-115 88 -115 244.5t115.5 238t323.5 81.5t397 -88l-92 -220q-97 41 -166.5 61.5t-139.5 20.5q-135 0 -135 -73q0 -41 44 -71.5t182.5 -85.5t199.5 -102q119 -90 119 -256t-120 -255.5t-347 -89.5t-380 65
v252q86 -40 192.5 -67t187.5 -27z" />
    <glyph glyph-name="t" unicode="t" horiz-adv-x="889" 
d="M498 350q0 -127 141 -127q70 0 184 35v-227q-114 -51 -287.5 -51t-258 91.5t-84.5 278.5v539h-146v129l168 102l88 236h195v-238h313v-229h-313v-539z" />
    <glyph glyph-name="u" unicode="u" horiz-adv-x="1346" 
d="M1186 0h-234l-41 143h-16q-49 -79 -139 -121t-205 -42q-197 0 -297 105t-100 304v729h305v-653q-1 -122 43 -182t137 -60q128 0 185 85t57 284v526h305v-1118z" />
    <glyph glyph-name="v" unicode="v" horiz-adv-x="1165" 
d="M739 0h-313l-426 1118h319l216 -637q36 -122 45 -229h6q4 95 45 229l215 637h319z" />
    <glyph glyph-name="w" unicode="w" horiz-adv-x="1753" 
d="M1411 0h-332l-87 391l-115 494h-7l-204 -885h-328l-318 1118h304l129 -495q32 -134 63 -367h6q5 83 35 241l16 85l138 536h336l131 -536q48 -259 51 -326h6q7 65 31 195t34 172l134 495h299z" />
    <glyph glyph-name="x" unicode="x" horiz-adv-x="1184" 
d="M793 571l381 -571h-347l-235 383l-236 -383h-347l380 571l-360 547h346l217 -356l219 356h346z" />
    <glyph glyph-name="y" unicode="y" horiz-adv-x="1165" 
d="M225 -492q-76 0 -155 17v242q53 -13 120 -13q169 0 236 199l18 55l-444 1110h334l211 -629q26 -81 37 -194h6q10 98 43 194l207 629h327l-473 -1261q-64 -173 -184 -261t-283 -88z" />
    <glyph glyph-name="z" unicode="z" horiz-adv-x="998" 
d="M938 233v-233h-883v180l518 705h-487v233h834v-198l-504 -687h522z" />
    <glyph glyph-name="braceleft" unicode="{" horiz-adv-x="807" 
d="M725 1462v-225q-96 -3 -135 -37t-39 -104v-299q-6 -187 -234 -222v-12q234 -35 234 -212v-308q0 -69 37 -103t137 -37v-227q-243 0 -341 62t-97 217v315q1 87 -65 133t-191 46v239q125 0 191 44t65 126v326q-1 154 97 216t341 62z" />
    <glyph glyph-name="bar" unicode="|" horiz-adv-x="1128" 
d="M674 -465h-219v2015h219v-2015z" />
    <glyph glyph-name="braceright" unicode="}" horiz-adv-x="807" 
d="M256 353q0 176 233 210v12q-227 35 -233 222v299q0 70 -37 104t-137 37v225q320 0 398 -110q40 -58 40 -168v-328q0 -168 256 -168v-239q-128 -1 -192 -43t-64 -136v-315q0 -111 -41 -169t-135 -84t-262 -26v227q98 3 136 35t38 105v310z" />
    <glyph glyph-name="asciitilde" unicode="~" 
d="M313 672q-104 0 -225 -121v231q104 109 244 109q140 1 278 -59t216 -60q141 0 255 121v-231q-100 -109 -256 -109q-67 0 -129 14q-62 13 -170 59t-213 46z" />
    <glyph glyph-name="uni00A0" unicode="&#xa0;" horiz-adv-x="532" 
 />
    <glyph glyph-name="cent" unicode="&#xa2;" 
d="M143 745q0 511 420 572v166h178v-158q164 -9 299 -74l-90 -235q-160 65 -258 65q-237 -1 -237 -333t237 -332q82 0 148 16t166 60v-254q-126 -61 -265 -70v-188h-178v196q-420 58 -420 569z" />
    <glyph glyph-name="sterling" unicode="&#xa3;" 
d="M262 870v195q0 201 114 309t317 109q203 0 397 -82l-94 -230q-155 64 -252 64q-181 0 -181 -172v-193h375v-219h-375v-143q0 -170 -151 -248h718v-260h-1048v248q104 42 142 100t38 158v145h-178v219h178z" />
    <glyph glyph-name="yen" unicode="&#xa5;" 
d="M972 715v-178h-245v-138h245v-178h-245v-221h-287v221h-247v178h247v138h-247v178h190l-377 747h316l262 -602l264 602h313l-383 -747h194z" />
    <glyph glyph-name="dieresis" unicode="&#xa8;" horiz-adv-x="1243" 
d="M824 1540q64 0 102 -36t39 -98q0 -62 -39 -98q-38 -36 -102 -36t-103 34t-39 100t39 100t103 34zM418 1540q65 0 103 -37t38 -97t-38 -98q-39 -36 -103 -36t-102 35t-37 99q0 64 37 98q37 36 102 36z" />
    <glyph glyph-name="copyright" unicode="&#xa9;" horiz-adv-x="1704" 
d="M889 262q-203 0 -315 124t-113 345q0 220 110 344q111 123 310 123q149 0 305 -78l-74 -168q-114 58 -214 58t-152 -74q-54 -74 -54 -205q0 -280 203 -280q131 0 246 59v-191q-120 -57 -252 -57zM854 121q162 1 304 83t223 224t81 304q0 164 -82 306t-224 222
q-142 81 -305 81t-305 -82q-140 -83 -222 -225t-82 -304t82 -304t225 -224q142 -82 305 -81zM99 730q0 198 101 375t276 277q176 100 376 101q200 -1 376 -101t276 -276t100 -374t-98 -372t-272 -277t-382 -103q-207 0 -382 103t-273 277q-98 172 -98 370z" />
    <glyph glyph-name="guillemotleft" unicode="&#xab;" horiz-adv-x="1260" 
d="M1178 909l-279 -348l279 -348l-220 -120l-370 454v26l370 455zM672 909l-279 -348l279 -348l-219 -120l-371 454v26l371 455z" />
    <glyph glyph-name="uni00AD" unicode="&#xad;" horiz-adv-x="659" 
d="M598 424h-537v250h537v-250z" />
    <glyph glyph-name="registered" unicode="&#xae;" horiz-adv-x="1704" 
d="M772 1020v-242h31q67 0 95 28t28 94t-28 93t-97 27h-29zM543 1188h264q180 0 265 -70t85 -213q0 -170 -143 -233l237 -400h-255l-177 338h-47v-338h-229v916zM854 121q162 1 304 83t223 224t81 304q0 164 -82 306t-224 222q-142 81 -305 81t-305 -82q-140 -83 -222 -225
t-82 -304t82 -304t225 -224q142 -82 305 -81zM99 730q0 198 101 375t276 277q176 100 376 101q200 -1 376 -101t276 -276t100 -374t-98 -372t-272 -277t-382 -103q-207 0 -382 103t-273 277q-98 172 -98 370z" />
    <glyph glyph-name="acute" unicode="&#xb4;" horiz-adv-x="1243" 
d="M909 1569v-21q-51 -51 -176 -153t-198 -154h-203v27q168 195 235 301h342z" />
    <glyph glyph-name="cedilla" unicode="&#xb8;" horiz-adv-x="420" 
d="M418 -250q0 -126 -74 -184t-235 -58q-79 0 -146 21v168q83 -21 149 -21t66 62q0 83 -166 108l78 154h193l-27 -61q74 -24 118 -75t44 -114z" />
    <glyph glyph-name="guillemotright" unicode="&#xbb;" horiz-adv-x="1260" 
d="M1178 573v-26l-371 -454l-219 120l278 348l-278 348l219 119zM672 573v-26l-371 -454l-219 120l278 348l-278 348l219 119z" />
    <glyph glyph-name="circumflex" unicode="&#x2c6;" horiz-adv-x="1243" 
d="M1055 1241h-203q-156 92 -234 176q-80 -83 -229 -176h-203v27q189 188 256 301h357q31 -51 107 -141t149 -160v-27z" />
    <glyph glyph-name="ring" unicode="&#x2da;" horiz-adv-x="1182" 
d="M588 1573q-44 0 -70 -26t-26 -71q0 -44 24 -70t70 -26t72 26t26 71q0 44 -26 70t-70 26zM586 1714q112 0 184 -66t72 -171t-71 -171t-183 -67q-112 0 -180 64t-68 173q0 110 68 174q66 64 178 64z" />
    <glyph glyph-name="tilde" unicode="&#x2dc;" horiz-adv-x="1243" 
d="M464 1346q-84 0 -108 -107h-149q11 145 83 227t189 82q55 0 125 -35l86 -43q54 -26 92 -26t65 28q28 28 40 78h149q-12 -145 -84 -227t-188 -82q-56 1 -158 53t-142 52z" />
    <glyph glyph-name="afii57799" unicode="&#x5b0;" horiz-adv-x="0" 
d="M630.5 -342q43.5 0 68.5 -23.5t25 -63t-25 -63t-68.5 -23.5t-68.5 23t-25 63t25 63.5t68.5 23.5zM630.5 -101q43.5 0 68.5 -23.5t25 -63.5t-25 -63t-68.5 -23t-68.5 23t-25 63t25 63.5t68.5 23.5z" />
    <glyph glyph-name="afii57801" unicode="&#x5b1;" horiz-adv-x="0" 
d="M940.5 -357q43.5 0 68.5 -23.5t25 -63t-25 -63t-68.5 -23.5t-68.5 23t-25 63t25 63.5t68.5 23.5zM530 -357q43 0 68 -23.5t25 -63t-25 -63t-68.5 -23.5t-68 23t-24.5 63.5t25 63.5t68 23zM940.5 -116q43.5 0 68.5 -23.5t25 -63.5t-25 -63t-68.5 -23t-68.5 23t-25 63
t25 63.5t68.5 23.5zM674.5 -116q43.5 0 69.5 -24t26 -63.5t-26 -62.5t-70 -23t-68.5 22.5t-24.5 63.5t25 64t68.5 23zM378 -116q43 0 68.5 -23.5t25.5 -63.5t-25.5 -63t-68.5 -23t-68 23t-25 63t25 63.5t68 23.5z" />
    <glyph glyph-name="afii57800" unicode="&#x5b2;" horiz-adv-x="0" 
d="M896 -357q43 0 68 -23.5t25 -63t-25 -63t-68.5 -23.5t-68 23t-24.5 63.5t25 63.5t68 23zM718 -259h-367v117h367v-117zM896 -116q43 0 68 -23.5t25 -63.5t-25 -63t-68.5 -23t-68 23t-24.5 63.5t25 63.5t68 23z" />
    <glyph glyph-name="afii57802" unicode="&#x5b3;" horiz-adv-x="0" 
d="M899.5 -357q43.5 0 68.5 -23.5t25 -63t-25 -63t-68.5 -23.5t-68.5 23t-25 63t25 63.5t68.5 23.5zM718 -259h-128v-202h-111v202h-128v117h367v-117zM899.5 -116q43.5 0 68.5 -23.5t25 -63.5t-25 -63t-68.5 -23t-68.5 23t-25 63t25 63.5t68.5 23.5z" />
    <glyph glyph-name="afii57793" unicode="&#x5b4;" horiz-adv-x="0" 
d="M627.5 -111q43.5 0 69.5 -24t26 -63t-26 -62.5t-70 -23.5t-68.5 22.5t-24.5 63.5t25 64t68.5 23z" />
    <glyph glyph-name="afii57794" unicode="&#x5b5;" horiz-adv-x="0" 
d="M776 -92q44 0 70 -24t26 -63t-26 -62.5t-70 -23.5t-69 22.5t-25 63.5t25 64t69 23zM480 -92q43 0 68 -23.5t25 -63t-25 -63t-68.5 -23.5t-68 23t-24.5 63.5t25 63.5t68 23z" />
    <glyph glyph-name="afii57795" unicode="&#x5b6;" horiz-adv-x="0" 
d="M631.5 -357q43.5 0 68.5 -23.5t25 -63t-25 -63t-68.5 -23.5t-68.5 23t-25 63t25 63.5t68.5 23.5zM776 -116q44 0 70 -24t26 -63.5t-26 -62.5t-70 -23t-69 22.5t-25 63.5t25 64t69 23zM480 -116q43 0 68 -23.5t25 -63.5t-25 -63t-68.5 -23t-68 23t-24.5 63.5t25 63.5
t68 23z" />
    <glyph glyph-name="afii57798" unicode="&#x5b7;" horiz-adv-x="0" 
d="M825 -234h-393v116h393v-116z" />
    <glyph glyph-name="afii57797" unicode="&#x5b8;" horiz-adv-x="0" 
d="M820 -255h-136v-202h-111v202h-135v117h382v-117z" />
    <glyph glyph-name="afii57806" unicode="&#x5b9;" horiz-adv-x="0" 
d="M628.5 1583q43.5 0 69.5 -24t26 -63t-26 -62.5t-70 -23.5t-68.5 22.5t-24.5 63.5t25 64t68.5 23z" />
    <glyph glyph-name="uni05BA" unicode="&#x5ba;" horiz-adv-x="0" 
d="M628.5 1583q43.5 0 69.5 -24t26 -63t-26 -62.5t-70 -23.5t-68.5 22.5t-24.5 63.5t25 64t68.5 23z" />
    <glyph glyph-name="afii57796" unicode="&#x5bb;" horiz-adv-x="0" 
d="M853.5 -478q43.5 0 69.5 -24t26 -63t-26 -62.5t-70 -23.5t-68.5 22.5t-24.5 63.5t25 64t68.5 23zM668.5 -303q43.5 0 68.5 -23.5t25 -63t-25 -63t-68.5 -23.5t-68.5 23t-25 63t25 63.5t68.5 23.5zM487 -127q43 0 68 -23.5t25 -63.5t-25 -63t-68.5 -23t-68 23t-24.5 63.5
t25 63.5t68 23z" />
    <glyph glyph-name="afii57807" unicode="&#x5bc;" horiz-adv-x="0" 
d="M627.5 743q43.5 0 69.5 -24t26 -63t-26 -62.5t-70 -23.5t-68.5 22.5t-24.5 63.5t25 64t68.5 23z" />
    <glyph glyph-name="afii57839" unicode="&#x5bd;" horiz-adv-x="1256" 
d="M679 -509h-103v352h103v-352z" />
    <glyph glyph-name="afii57645" unicode="&#x5be;" horiz-adv-x="659" 
d="M598 1040h-537v250h537v-250z" />
    <glyph glyph-name="afii57804" unicode="&#x5c1;" horiz-adv-x="0" 
d="M575.5 1583q43.5 0 69.5 -24t26 -63t-26 -62.5t-70 -23.5t-68.5 22.5t-24.5 63.5t25 64t68.5 23z" />
    <glyph glyph-name="afii57803" unicode="&#x5c2;" horiz-adv-x="0" 
d="M628.5 1583q43.5 0 69.5 -24t26 -63t-26 -62.5t-70 -23.5t-68.5 22.5t-24.5 63.5t25 64t68.5 23z" />
    <glyph glyph-name="uni05C7" unicode="&#x5c7;" horiz-adv-x="0" 
d="M521 -210h-161v-234h-93v234h-156v100h410v-100z" />
    <glyph glyph-name="afii57664" unicode="&#x5d0;" horiz-adv-x="1329" 
d="M1208 1290v-462q0 -169 -65 -253t-194 -123l288 -452h-347l-384 639q-47 -20 -65.5 -62t-19.5 -113v-464h-304v461q0 169 65 254t197 123l-287 452h346l260 -442l125 -197q44 20 62 62t19 112v465h304z" />
    <glyph glyph-name="afii57665" unicode="&#x5d1;" horiz-adv-x="1182" 
d="M466 1310q325 0 430 -125q56 -67 73 -149t17 -193v-610h148v-233h-1032v233h579v611q0 231 -254 231q-129 0 -276 -18l-49 -6v241q147 18 364 18z" />
    <glyph glyph-name="afii57666" unicode="&#x5d2;" horiz-adv-x="951" 
d="M144.5 265q43.5 0 82 1.5t106 23t113.5 91.5t46 163v364q0 115 -56 147q-25 14 -87 14t-127 -17l-23 -6v241q88 23 199 23t182 -21t112.5 -54.5t73 -105t31.5 -221.5v-908h-231l-45 188h-15q-36 -74 -116 -136q-36 -28 -95 -50t-111 -22t-114 11l22 283q9 -9 52.5 -9z
" />
    <glyph glyph-name="afii57667" unicode="&#x5d3;" horiz-adv-x="1121" 
d="M1074 1290v-221q-42 -16 -90 -50t-67 -85t-19 -133v-801h-305v808q0 110 49 166t102 76v7h-701v233h1031z" />
    <glyph glyph-name="afii57668" unicode="&#x5d4;" horiz-adv-x="1345" 
d="M466 0h-306v823h306v-823zM658 1310q124 0 208 -14t141 -43q113 -58 148.5 -156.5t35.5 -253.5v-843h-306v844q0 231 -254 231q-187 0 -399 -29l-72 -10v231q73 16 223.5 29.5t274.5 13.5z" />
    <glyph glyph-name="afii57669" unicode="&#x5d5;" horiz-adv-x="625" 
d="M465 0h-305v1290h305v-1290z" />
    <glyph glyph-name="afii57670" unicode="&#x5d6;" horiz-adv-x="701" 
d="M654 1290v-233q-93 -74 -142 -210q-48 -136 -48 -413v-434h-305v434q0 210 52.5 343t109.5 191t105 82v7h-314v233h542z" />
    <glyph glyph-name="afii57671" unicode="&#x5d7;" horiz-adv-x="1345" 
d="M160 0v1267q73 16 223.5 29.5t274.5 13.5t208 -14t141 -43q113 -58 148.5 -156.5t35.5 -253.5v-843h-306v844q0 231 -254 231q-69 0 -165 -7v-1068h-306z" />
    <glyph glyph-name="afii57672" unicode="&#x5d8;" horiz-adv-x="1330" 
d="M793 1310q157 0 251 -60q194 -121 194 -605q0 -322 -143.5 -493.5t-411.5 -171.5q-226 0 -378 173q-151 173 -151 492v643h307v-643q0 -211 56.5 -315.5t176 -104.5t178.5 99t59 316.5t-30 309t-111 110.5q-34 8 -89 8l-64 -5v225q73 22 156 22z" />
    <glyph glyph-name="afii57673" unicode="&#x5d9;" horiz-adv-x="592" 
d="M147 436v854h305v-596l-203 -258h-102z" />
    <glyph glyph-name="afii57674" unicode="&#x5da;" horiz-adv-x="1093" 
d="M378.5 1310q157.5 0 249.5 -34q167 -62 244 -224q67 -141 67 -333v-1211h-306v1242q0 235 -129 300q-52 25 -152 25t-309 -22v235q178 22 335.5 22z" />
    <glyph glyph-name="afii57675" unicode="&#x5db;" horiz-adv-x="1055" 
d="M401.5 1310q157.5 0 249.5 -34q167 -62 244 -224q67 -141 67 -333v-148q0 -321 -149 -467q-56 -54 -151 -89t-272 -35t-324 28v238q162 -20 333 -20t225 128q32 74 32 186v210q0 235 -130 300q-51 25 -151 25t-309 -22v235q178 22 335.5 22z" />
    <glyph glyph-name="afii57676" unicode="&#x5dc;" horiz-adv-x="1115" 
d="M375 1290h679v-198l-175 -613l-108 -479h-297l108 479l165 578h-677v499h305v-266z" />
    <glyph glyph-name="afii57677" unicode="&#x5dd;" horiz-adv-x="1345" 
d="M885 233v698q-1 91 -67 117t-161 27q-95 0 -191 -7v-835h419zM160 0v1267q73 16 223.5 29.5t286.5 13.5q278 0 399.5 -90t121.5 -289v-931h-1031z" />
    <glyph glyph-name="afii57678" unicode="&#x5de;" horiz-adv-x="1413" 
d="M181 910q0 179 -73 381h292q15 -39 30 -91l27 -107h19q14 31 49.5 72t75.5 69.5t109.5 52t156 23.5t157.5 -33q235 -109 235 -547v-730h-552v233h240v462q0 178 -33 251q-15 33 -38 62q-46 60 -142 60t-160.5 -68.5t-87.5 -117.5l-10 -22l-76 -860h-298l75 819q4 46 4 91
z" />
    <glyph glyph-name="afii57679" unicode="&#x5df;" horiz-adv-x="602" 
d="M448 825v-1317h-305v1317q0 260 -70 465h305q70 -205 70 -465z" />
    <glyph glyph-name="afii57680" unicode="&#x5e0;" horiz-adv-x="879" 
d="M333 1310q265 0 343 -158q49 -98 49 -244v-525q0 -183 -37 -334l-13 -49h-583v233h310q18 77 18 230v445q0 115 -56 147q-25 14 -81.5 14t-131.5 -17v240q85 18 182 18z" />
    <glyph glyph-name="afii57681" unicode="&#x5e1;" horiz-adv-x="1268" 
d="M402 645q0 -422 232 -422t232 426t-232 426l-113 -2q-119 -165 -119 -428zM617.5 1310q273.5 0 416 -175t142.5 -489t-144.5 -490t-396.5 -176t-397.5 175.5t-145.5 489.5q0 121 47 237t105 170v8l-132 -9v231q232 28 505.5 28z" />
    <glyph glyph-name="afii57682" unicode="&#x5e2;" horiz-adv-x="1297" 
d="M578 708l80 -409q157 99 182 386l53 604h302l-50 -560q-16 -180 -63 -296q-143 -354 -603 -433l-409 -60v236l329 49l-282 1065h304z" />
    <glyph glyph-name="afii57683" unicode="&#x5e3;" horiz-adv-x="1309" 
d="M624 1312q255 0 393 -169t138 -497v-1138h-311v1138q0 174 -23 255q-47 166 -209.5 166t-213.5 -117q-18 -45 -18 -90.5t19.5 -85.5t61.5 -72t88 -41l38 -7l-51 -228l-53 7q-139 18 -210 51q-203 93 -203 374t246 394q129 60 308 60z" />
    <glyph glyph-name="afii57684" unicode="&#x5e4;" horiz-adv-x="1269" 
d="M635 1310q283 0 423 -190q52 -71 85.5 -192.5t33.5 -259.5t-15 -234q-28 -180 -105 -280q-77 -98 -183 -136q-104 -38 -236 -38q-258 0 -418 21l-52 7v224q230 -18 467 -18q161 0 206 164q21 76 23 146.5t2 121.5q0 52 -1 86q-11 335 -219 335q-176 0 -220 -105
q-24 -57 -24 -102.5t19.5 -85.5t61.5 -72t88 -41l38 -7l-51 -228l-53 7q-139 18 -210 51q-203 93 -203 373.5t246 393.5q130 59 297 59z" />
    <glyph glyph-name="afii57685" unicode="&#x5e5;" horiz-adv-x="1173" 
d="M1071 1290v-462q1 -295 -229 -370q-70 -23 -137 -23t-107 5v-932h-305v1069l-285 713h334l219 -629l3 -15q30 -3 53 -3q79 0 114 42t35 140v465h305z" />
    <glyph glyph-name="afii57686" unicode="&#x5e6;" horiz-adv-x="1274" 
d="M1177 0h-1102v233h498l228 -14v4l-281 350l-455 717h342l360 -581q71 101 89 298l24 282h302l-21 -238q-15 -170 -39 -233t-48 -117q-48 -105 -154 -196l257 -329v-176z" />
    <glyph glyph-name="afii57687" unicode="&#x5e7;" horiz-adv-x="1310" 
d="M444 -493h-283v1265h283v-1265zM928 34v-34h-303v34q0 81 26 223.5t64 247.5l200 552h-755v233h1089v-184l-217 -589q-104 -282 -104 -483z" />
    <glyph glyph-name="afii57688" unicode="&#x5e8;" horiz-adv-x="1082" 
d="M374.5 1310q144.5 0 228.5 -14t141 -43q113 -58 148.5 -156.5t35.5 -253.5v-843h-306v844q0 231 -254 231q-128 0 -325 -21v235q187 21 331.5 21z" />
    <glyph glyph-name="afii57689" unicode="&#x5e9;" horiz-adv-x="1605" 
d="M795 0h-584l-109 1290h292l54 -646q12 -1 30 -1q79 0 117.5 42t46.5 140l38 465h290l-37 -462q-31 -393 -410 -393q-21 0 -57 2l17 -204h326q167 0 257 130t109 358l48 569h292l-48 -561q-16 -182 -51 -292q-137 -437 -621 -437z" />
    <glyph glyph-name="afii57690" unicode="&#x5ea;" horiz-adv-x="1435" 
d="M175 221q74 0 96.5 49t22.5 112v668l-145 -14v231q307 43 571.5 43t377 -57.5t148 -156t35.5 -253.5v-843h-307v844q0 231 -253 231q-56 0 -122 -3v-690q0 -232 -115 -326q-93 -76 -264 -76q-84 0 -150 27v232q67 -18 105 -18z" />
    <glyph glyph-name="uni05F3" unicode="&#x5f3;" horiz-adv-x="444" 
d="M406 1290l14 -22q-50 -199 -176 -479h-219q67 285 100 501h281z" />
    <glyph glyph-name="uni05F4" unicode="&#x5f4;" horiz-adv-x="911" 
d="M872 1290l15 -22q-50 -199 -176 -479h-219q67 285 100 501h280zM406 1290l14 -22q-50 -199 -176 -479h-219q67 285 100 501h281z" />
    <glyph glyph-name="uni2000" unicode="&#x2000;" horiz-adv-x="857" 
 />
    <glyph glyph-name="uni2001" unicode="&#x2001;" horiz-adv-x="1714" 
 />
    <glyph glyph-name="uni2002" unicode="&#x2002;" horiz-adv-x="857" 
 />
    <glyph glyph-name="uni2003" unicode="&#x2003;" horiz-adv-x="1714" 
 />
    <glyph glyph-name="uni2004" unicode="&#x2004;" horiz-adv-x="571" 
 />
    <glyph glyph-name="uni2005" unicode="&#x2005;" horiz-adv-x="428" 
 />
    <glyph glyph-name="uni2006" unicode="&#x2006;" horiz-adv-x="285" 
 />
    <glyph glyph-name="uni2007" unicode="&#x2007;" horiz-adv-x="285" 
 />
    <glyph glyph-name="uni2008" unicode="&#x2008;" horiz-adv-x="214" 
 />
    <glyph glyph-name="uni2009" unicode="&#x2009;" horiz-adv-x="342" 
 />
    <glyph glyph-name="uni200A" unicode="&#x200a;" horiz-adv-x="95" 
 />
    <glyph glyph-name="uni2010" unicode="&#x2010;" horiz-adv-x="659" 
d="M598 424h-537v250h537v-250z" />
    <glyph glyph-name="uni2011" unicode="&#x2011;" horiz-adv-x="659" 
d="M598 424h-537v250h537v-250z" />
    <glyph glyph-name="figuredash" unicode="&#x2012;" horiz-adv-x="659" 
d="M598 424h-537v250h537v-250z" />
    <glyph glyph-name="endash" unicode="&#x2013;" horiz-adv-x="1024" 
d="M942 436h-860v230h860v-230z" />
    <glyph glyph-name="emdash" unicode="&#x2014;" horiz-adv-x="2048" 
d="M1966 436h-1884v230h1884v-230z" />
    <glyph glyph-name="quoteleft" unicode="&#x2018;" horiz-adv-x="444" 
d="M25 982q51 209 176 480h219q-67 -272 -101 -501h-280z" />
    <glyph glyph-name="quoteright" unicode="&#x2019;" horiz-adv-x="444" 
d="M406 1462l14 -22q-49 -195 -176 -479h-219q68 289 100 501h281z" />
    <glyph glyph-name="quotesinglbase" unicode="&#x201a;" horiz-adv-x="596" 
d="M444 238l15 -23q-53 -205 -176 -479h-220q65 269 101 502h280z" />
    <glyph glyph-name="quotedblleft" unicode="&#x201c;" horiz-adv-x="911" 
d="M492 982q51 212 176 480h219q-67 -272 -101 -501h-280zM25 982q51 209 176 480h219q-67 -272 -101 -501h-280z" />
    <glyph glyph-name="quotedblright" unicode="&#x201d;" horiz-adv-x="911" 
d="M872 1462l15 -22q-49 -195 -176 -479h-219q68 289 100 501h280zM406 1462l14 -22q-49 -195 -176 -479h-219q68 289 100 501h281z" />
    <glyph glyph-name="quotedblbase" unicode="&#x201e;" horiz-adv-x="1061" 
d="M911 238l15 -23q-53 -205 -176 -479h-220q65 269 101 502h280zM444 238l15 -23q-53 -205 -176 -479h-220q65 269 101 502h280z" />
    <glyph glyph-name="ellipsis" unicode="&#x2026;" horiz-adv-x="1751" 
d="M1458 313q84 0 130 -44q46 -45 46 -125t-46 -126t-130 -45q-82 1 -128 45t-46 126t45 126q45 43 129 43zM877 313q83 -1 129 -45t45 -124t-47 -126t-129 -45t-129 45t-46 125q0 170 177 170zM292 313q84 0 130 -44q46 -45 45 -125t-47 -126t-128 -45t-129 45
q-46 44 -46 126t45 126q46 43 130 43z" />
    <glyph glyph-name="uni202F" unicode="&#x202f;" horiz-adv-x="342" 
 />
    <glyph glyph-name="guilsinglleft" unicode="&#x2039;" horiz-adv-x="754" 
d="M672 909l-279 -348l279 -348l-219 -120l-371 454v26l371 455z" />
    <glyph glyph-name="guilsinglright" unicode="&#x203a;" horiz-adv-x="754" 
d="M672 573v-26l-371 -454l-219 120l278 348l-278 348l219 119z" />
    <glyph glyph-name="uni205F" unicode="&#x205f;" horiz-adv-x="428" 
 />
    <glyph glyph-name="Euro" unicode="&#x20ac;" 
d="M66 950h133q37 243 199 383t405 140q189 0 352 -82l-98 -232q-149 66 -263 66q-114 -1 -192 -71t-102 -204h403v-176h-418l-2 -35v-47l2 -33h355v-178h-338q51 -243 321 -243q143 0 275 57v-256q-116 -59 -293 -59q-246 0 -404 134t-198 367h-137v178h118q-4 20 -4 62
l2 53h-116v176z" />
    <glyph glyph-name="trademark" unicode="&#x2122;" horiz-adv-x="1534" 
d="M1442 741h-168v408l4 121h-6l-174 -529h-142l-165 529h-7l4 -111v-418h-163v721h247l160 -510l170 510h240v-721zM580 1313h-199v-572h-168v572h-197v149h564v-149z" />
    <glyph glyph-name="uni25FC" unicode="&#x25fc;" horiz-adv-x="1120" 
d="M0 1120h1120v-1120h-1120v1120z" />
    <glyph glyph-name="uniFB2A" unicode="&#xfb2a;" horiz-adv-x="1605" 
d="M795 0h-584l-109 1290h292l54 -646q12 -1 30 -1q80 0 118 42t46 140l38 465h290l-37 -462q-31 -393 -410 -393q-21 0 -57 2l17 -204h326q167 0 257 130t109 358l48 569h292l-48 -561q-16 -182 -51 -292q-137 -437 -621 -437zM1472 1625q44 0 70 -24t26 -63q0 -38 -26 -62
t-70 -24t-68 22t-25 64q0 41 25 64q24 23 68 23z" />
    <glyph glyph-name="uniFB2B" unicode="&#xfb2b;" horiz-adv-x="1605" 
d="M795 0h-584l-109 1290h292l54 -646q12 -1 30 -1q80 0 118 42t46 140l38 465h290l-37 -462q-31 -393 -410 -393q-21 0 -57 2l17 -204h326q167 0 257 130t109 358l48 569h292l-48 -561q-16 -182 -51 -292q-137 -437 -621 -437zM146 1625q44 0 69 -24q26 -24 26 -63
q0 -38 -26 -62t-70 -24q-45 0 -69 22t-24 64q0 41 25 64t69 23z" />
    <glyph glyph-name="uniFB2C" unicode="&#xfb2c;" horiz-adv-x="1605" 
d="M906 508q44 0 69 -24q26 -24 26 -63t-26 -63t-70 -23q-45 1 -69 23t-24 63t25 64t69 23zM795 0h-584l-109 1290h292l54 -646q12 -1 30 -1q80 0 118 42t46 140l38 465h290l-37 -462q-31 -393 -410 -393q-21 0 -57 2l17 -204h326q167 0 257 130t109 358l48 569h292
l-48 -561q-16 -182 -51 -292q-137 -437 -621 -437zM1472 1625q44 0 70 -24t26 -63q0 -38 -26 -62t-70 -24t-68 22t-25 64q0 41 25 64q24 23 68 23z" />
    <glyph glyph-name="uniFB2D" unicode="&#xfb2d;" horiz-adv-x="1605" 
d="M906 508q44 0 69 -24q26 -24 26 -63t-26 -63t-70 -23q-45 1 -69 23t-24 63t25 64t69 23zM795 0h-584l-109 1290h292l54 -646q12 -1 30 -1q80 0 118 42t46 140l38 465h290l-37 -462q-31 -393 -410 -393q-21 0 -57 2l17 -204h326q167 0 257 130t109 358l48 569h292
l-48 -561q-16 -182 -51 -292q-137 -437 -621 -437zM146 1625q44 0 69 -24q26 -24 26 -63q0 -38 -26 -62t-70 -24q-45 0 -69 22t-24 64q0 41 25 64t69 23z" />
    <glyph glyph-name="uniFB2E" unicode="&#xfb2e;" horiz-adv-x="1329" 
d="M862 -249h-393v116h393v-116zM1208 1290v-462q0 -169 -65 -253t-194 -123l288 -452h-347l-384 639q-48 -20 -66 -62t-19 -113v-464h-304v461q0 169 65 254t197 123l-287 452h346l260 -442l125 -197q44 20 62 62t19 112v465h304z" />
    <glyph glyph-name="uniFB2F" unicode="&#xfb2f;" horiz-adv-x="1329" 
d="M857 -270h-136v-202h-111v202h-135v117h382v-117zM1208 1290v-462q0 -169 -65 -253t-194 -123l288 -452h-347l-384 639q-48 -20 -66 -62t-19 -113v-464h-304v461q0 169 65 254t197 123l-287 452h346l260 -442l125 -197q44 20 62 62t19 112v465h304z" />
    <glyph glyph-name="uniFB30" unicode="&#xfb30;" horiz-adv-x="1329" 
d="M606 300q44 0 69 -24q26 -24 26 -63t-26 -63t-70 -23q-45 1 -69 23t-24 63t25 64t69 23zM1208 1290v-462q0 -169 -65 -253t-194 -123l288 -452h-347l-384 639q-48 -20 -66 -62t-19 -113v-464h-304v461q0 169 65 254t197 123l-287 452h346l260 -442l125 -197q44 20 62 62
t19 112v465h304z" />
    <glyph glyph-name="uniFB31" unicode="&#xfb31;" horiz-adv-x="1182" 
d="M382 760q44 0 69 -24q26 -24 26 -63t-26 -63t-70 -23q-45 1 -69 23t-24 63t25 64t69 23zM466 1310q325 0 430 -125q56 -67 73 -149t17 -193v-610h148v-233h-1032v233h579v611q0 231 -254 231q-129 0 -276 -18l-49 -6v241q147 18 364 18z" />
    <glyph glyph-name="uniFB32" unicode="&#xfb32;" horiz-adv-x="951" 
d="M306 760q44 0 69 -24q26 -24 26 -63t-26 -63t-70 -23q-45 1 -69 23t-24 63t25 64t69 23zM144 265q44 -1 82 1t106 24t114 91q46 70 46 163v364q0 115 -56 147q-25 14 -87 14t-127 -17l-23 -6v241q88 23 199 23t182 -21q70 -21 112 -55t74 -105q32 -72 31 -221v-908h-231
l-45 188h-15q-36 -74 -116 -136q-36 -28 -95 -50t-111 -22t-114 11l22 283q8 -9 52 -9z" />
    <glyph glyph-name="uniFB33" unicode="&#xfb33;" horiz-adv-x="1121" 
d="M358 760q44 0 69 -24q26 -24 26 -63t-26 -63t-70 -23q-45 1 -69 23t-24 63t25 64t69 23zM1074 1290v-221q-42 -16 -90 -50t-67 -85t-19 -133v-801h-305v808q0 110 49 166t102 76v7h-701v233h1031z" />
    <glyph glyph-name="uniFB34" unicode="&#xfb34;" horiz-adv-x="1345" 
d="M672 760q44 0 70 -24t26 -63t-26 -63t-70 -23t-68 23t-25 63q0 41 25 64q24 23 68 23zM160 0v823h306v-823h-306zM658 1310q124 0 208 -14t141 -43q113 -58 149 -156q35 -99 35 -254v-843h-306v844q0 231 -254 231q-187 0 -399 -29l-72 -10v231q74 15 224 29t274 14z" />
    <glyph glyph-name="uniFB35" unicode="&#xfb35;" horiz-adv-x="625" 
d="M32 760q44 0 69 -24q26 -24 26 -63t-26 -63t-70 -23q-45 1 -69 23t-24 63t25 64t69 23zM160 0v1290h305v-1290h-305z" />
    <glyph glyph-name="uniFB36" unicode="&#xfb36;" horiz-adv-x="701" 
d="M16 760q44 0 69 -24q26 -24 26 -63t-26 -63t-70 -23q-45 1 -69 23t-24 63t25 64t69 23zM654 1290v-233q-93 -74 -142 -210q-48 -136 -48 -413v-434h-305v434q1 210 53 343t109 191t105 82v7h-314v233h542z" />
    <glyph glyph-name="uniFB38" unicode="&#xfb38;" horiz-adv-x="1330" 
d="M696 760q44 0 70 -24t26 -63t-26 -63t-70 -23t-68 23t-25 63q0 41 25 64q24 23 68 23zM793 1310q157 0 251 -60q194 -121 194 -605q0 -321 -144 -493t-411 -172q-226 0 -378 173q-151 173 -151 492v643h307v-643q1 -211 57 -315t176 -105q120 0 178 99q59 98 59 316
t-30 310t-111 110q-34 8 -89 8l-64 -5v225q73 22 156 22z" />
    <glyph glyph-name="uniFB39" unicode="&#xfb39;" horiz-adv-x="592" 
d="M28 947q44 0 69 -24q26 -24 26 -63q0 -38 -26 -62t-70 -24q-45 0 -69 22t-24 64q0 41 25 64t69 23zM147 436v854h305v-596l-203 -258h-102z" />
    <glyph glyph-name="uniFB3A" unicode="&#xfb3a;" horiz-adv-x="1093" 
d="M314 760q44 0 70 -24t26 -63t-26 -63t-70 -23t-68 23t-25 63q0 41 25 64q24 23 68 23zM378 1310q158 0 250 -34q167 -62 244 -224q67 -141 67 -333v-1211h-306v1242q0 235 -129 300q-52 25 -152 25t-309 -22v235q177 22 335 22z" />
    <glyph glyph-name="uniFB3B" unicode="&#xfb3b;" horiz-adv-x="1055" 
d="M348 760q44 0 69 -24q26 -24 26 -63t-26 -63t-70 -23q-45 1 -69 23t-24 63t25 64t69 23zM402 1310q158 0 249 -34q167 -62 244 -224q67 -141 67 -333v-148q0 -321 -149 -467q-56 -54 -151 -90q-95 -34 -272 -34t-324 28v238q162 -20 333 -20t225 128q32 74 32 186v210
q0 235 -130 300q-51 25 -151 25t-309 -22v235q178 22 336 22z" />
    <glyph glyph-name="uniFB3C" unicode="&#xfb3c;" horiz-adv-x="1115" 
d="M308 760q44 0 70 -24t26 -63t-26 -63t-70 -23t-68 23t-25 63q0 41 25 64q24 23 68 23zM1054 1290v-198l-175 -613l-108 -479h-297l108 479l165 578h-677v499h305v-266h679z" />
    <glyph glyph-name="uniFB3E" unicode="&#xfb3e;" horiz-adv-x="1413" 
d="M706 760q44 0 70 -24t26 -63t-26 -63t-70 -23t-68 23t-25 63q0 41 25 64q24 23 68 23zM181 910q0 179 -73 381h292q15 -39 30 -91l27 -107h19q14 31 49 72q36 41 76 69q39 28 109 52t156 24t158 -33q235 -109 235 -547v-730h-552v233h240v462q0 178 -33 251
q-15 33 -38 62q-46 60 -142 60t-161 -68q-64 -68 -87 -118l-10 -22l-76 -860h-298l75 819q4 46 4 91z" />
    <glyph glyph-name="uniFB40" unicode="&#xfb40;" horiz-adv-x="879" 
d="M226 760q44 0 70 -24t26 -63t-26 -63t-70 -23t-68 23t-25 63q0 41 25 64q24 23 68 23zM333 1310q265 0 343 -158q49 -98 49 -244v-525q0 -183 -37 -334l-13 -49h-583v233h310q18 77 18 230v445q0 115 -56 147q-26 14 -82 14t-131 -17v240q85 18 182 18z" />
    <glyph glyph-name="uniFB41" unicode="&#xfb41;" horiz-adv-x="1268" 
d="M634 760q44 0 69 -24q26 -24 26 -63t-26 -63t-70 -23q-45 1 -69 23t-24 63t25 64t69 23zM402 645q0 -422 232 -422t232 426t-232 426l-113 -2q-119 -165 -119 -428zM618 1310q274 0 416 -175t142 -489t-144 -490t-397 -176q-251 0 -397 176t-146 489q0 121 47 237
t105 170v8l-132 -9v231q232 28 506 28z" />
    <glyph glyph-name="uniFB43" unicode="&#xfb43;" horiz-adv-x="1309" 
d="M612 960q44 0 70 -24t26 -63t-26 -63t-70 -23t-68 23t-25 63q0 41 25 64q24 23 68 23zM624 1312q255 0 393 -169t138 -497v-1138h-311v1138q0 174 -23 255q-47 166 -209 166t-214 -117q-18 -44 -18 -90t20 -86t61 -72q42 -32 88 -41l38 -7l-51 -228l-53 7
q-139 18 -210 51q-203 93 -203 374t246 394q129 60 308 60z" />
    <glyph glyph-name="uniFB44" unicode="&#xfb44;" horiz-adv-x="1269" 
d="M634 963q44 0 70 -24t26 -63q0 -38 -26 -62t-70 -24t-68 22t-25 64q0 41 25 64q24 23 68 23zM635 1310q283 0 423 -190q52 -70 86 -192t33 -260q0 -138 -15 -234q-28 -180 -105 -279q-77 -100 -182 -137q-105 -38 -237 -38q-258 0 -418 21l-52 7v224q230 -18 467 -18
q161 0 206 164q21 76 23 147q2 70 2 121q0 52 -1 86q-11 335 -219 335q-176 0 -220 -105q-24 -56 -24 -102t20 -86t61 -72q42 -32 88 -41l38 -7l-51 -228l-53 7q-139 18 -210 51q-203 93 -203 374t246 393q130 59 297 59z" />
    <glyph glyph-name="uniFB46" unicode="&#xfb46;" horiz-adv-x="1274" 
d="M270 615q44 0 69 -24q26 -24 26 -63q0 -38 -26 -62t-70 -24q-45 0 -69 22t-24 64q0 41 25 64t69 23zM1177 0h-1102v233h498l228 -14v4l-281 350l-455 717h342l360 -581q71 101 89 298l24 282h302l-21 -238q-15 -170 -39 -233t-48 -117q-48 -105 -154 -196l257 -329v-176z
" />
    <glyph glyph-name="uniFB47" unicode="&#xfb47;" horiz-adv-x="1310" 
d="M614 760q44 0 70 -24t26 -63t-26 -63t-70 -23t-68 23t-25 63q0 41 25 64q24 23 68 23zM161 -493v1265h283v-1265h-283zM928 34v-34h-303v34q0 82 26 224t64 247l200 552h-755v233h1089v-184l-217 -589q-104 -282 -104 -483z" />
    <glyph glyph-name="uniFB48" unicode="&#xfb48;" horiz-adv-x="1082" 
d="M324 760q44 0 69 -24q26 -24 26 -63t-26 -63t-70 -23q-45 1 -69 23t-24 63t25 64t69 23zM374 1310q144 0 229 -14q84 -14 141 -43q113 -58 149 -156q35 -99 35 -254v-843h-306v844q0 231 -254 231q-128 0 -325 -21v235q187 21 331 21z" />
    <glyph glyph-name="uniFB49" unicode="&#xfb49;" horiz-adv-x="1605" 
d="M906 508q44 0 69 -24q26 -24 26 -63t-26 -63t-70 -23q-45 1 -69 23t-24 63t25 64t69 23zM795 0h-584l-109 1290h292l54 -646q12 -1 30 -1q80 0 118 42t46 140l38 465h290l-37 -462q-31 -393 -410 -393q-21 0 -57 2l17 -204h326q167 0 257 130t109 358l48 569h292
l-48 -561q-16 -182 -51 -292q-137 -437 -621 -437z" />
    <glyph glyph-name="uniFB4A" unicode="&#xfb4a;" horiz-adv-x="1435" 
d="M788 760q44 0 69 -24q26 -24 26 -63t-26 -63t-70 -23q-45 1 -69 23t-24 63t25 64t69 23zM175 221q74 0 96 49q23 49 23 112v668l-145 -14v231q307 43 571 43t378 -57q113 -57 148 -156t35 -254v-843h-307v844q0 231 -253 231q-56 0 -122 -3v-690q0 -232 -115 -326
q-93 -76 -264 -76q-84 0 -150 27v232q67 -18 105 -18z" />
    <glyph glyph-name="uniFB4B" unicode="&#xfb4b;" horiz-adv-x="625" 
d="M160 0v1290h305v-1290h-305zM248 1625q44 0 70 -24t26 -63q0 -38 -26 -62t-70 -24t-68 22t-25 64q0 41 25 64q24 23 68 23z" />
  </font>
</defs>
</svg>
