<?xml version="1.0" standalone="no"?>
<!DOCTYPE svg PUBLIC "-//W3C//DTD SVG 1.1//EN" "http://www.w3.org/Graphics/SVG/1.1/DTD/svg11.dtd" >
<svg xmlns="http://www.w3.org/2000/svg">
<metadata>
Created by FontPrep 20130207 at Tue Jul  1 12:06:58 2014
 By eli ben yosef
Digitized data copyright (c) 2011, Google Corporation. Copyright (c) 2012, 2013 Yanek Iontef (yanek@netvision.net.il)
</metadata>
<defs>
<font id="0aa7139bf6d3c365c59c140c3c8e269e" horiz-adv-x='1024' >
  <font-face 
    font-family="OpenSansHebrewExtraBold-Italic"
    font-weight="800"
    font-style="italic"
    font-stretch="normal"
    units-per-em="2048"
    panose-1="0 0 9 0 0 0 0 0 0 0"
    ascent="1638"
    descent="-410"
    x-height="1133"
    cap-height="1462"
    bbox="-328 -651 2089 1743"
    underline-thickness="50"
    underline-position="-50"
    slope="-12"
    unicode-range="U+000D-FB4B"
  />
<missing-glyph horiz-adv-x="748" 
d="M136 68h408v1229h-408v-1229zM68 0v1365h544v-1365h-544z" />
    <glyph glyph-name=".notdef" horiz-adv-x="748" 
d="M136 68h408v1229h-408v-1229zM68 0v1365h544v-1365h-544z" />
    <glyph glyph-name="glyph1" horiz-adv-x="2048" 
 />
    <glyph glyph-name="glyph1" horiz-adv-x="2048" 
 />
    <glyph glyph-name="uni000D" unicode="&#xd;" horiz-adv-x="1044" 
 />
    <glyph glyph-name="space" unicode=" " horiz-adv-x="532" 
 />
    <glyph glyph-name="exclam" unicode="!" horiz-adv-x="623" 
d="M12 144q0 92 65 154t165 62q194 0 194 -155q0 -109 -63 -169t-163 -61q-100 0 -149 39t-49 130zM125 516l156 946h426l-254 -946h-328z" />
    <glyph glyph-name="quotedbl" unicode="&#x22;" horiz-adv-x="930" 
d="M881 934h-258l73 528h342zM438 934h-256l72 528h342z" />
    <glyph glyph-name="numbersign" unicode="#" horiz-adv-x="1323" 
d="M739 631l58 200h-168l-58 -200h168zM1010 631h243l-20 -238h-293l-111 -393h-270l113 393h-168l-113 -393h-270l112 393h-219l21 238h266l57 200h-235l20 242h285l111 389h270l-111 -389h168l111 389h270l-110 -389h221l-21 -242h-270z" />
    <glyph glyph-name="dollar" unicode="$" horiz-adv-x="1188" 
d="M741 1130q-65 0 -103 -28t-38 -74t38 -82t169 -100t195 -152t65 -213q-1 -177 -133 -289t-361 -126l-38 -187h-168l41 191q-223 17 -347 92v311q241 -113 423 -113t182 105q0 41 -32 73t-140 83q-289 130 -289 387q0 176 133 288t358 127l29 133h168l-31 -137
q161 -15 314 -90l-140 -270q-159 71 -295 71z" />
    <glyph glyph-name="percent" unicode="%" horiz-adv-x="1878" 
d="M1474 655q-50 -1 -88 -111t-39 -239q0 -84 52 -84t90 111t38 239q0 45 -12 65t-41 19zM1373 -20q-317 0 -317 321v8q0 258 120 423t317 165h9q148 0 232 -85q84 -84 84 -242t-56 -297t-158 -216t-231 -77zM497 1241q-51 -1 -89 -111t-38 -239q0 -84 52 -84t90 111t38 239
q0 44 -12 64t-41 20zM548 0h-297l1089 1462h289zM525 1483q147 0 231 -85q84 -86 85 -244q0 -158 -57 -296q-56 -138 -158 -216q-102 -77 -244 -77q-142 1 -223 83q-80 82 -80 239v8q1 258 121 423t316 165h9z" />
    <glyph glyph-name="ampersand" unicode="&#x26;" horiz-adv-x="1501" 
d="M399 424q-1 -62 47 -100t124 -37q76 0 139 26l-193 279q-117 -52 -117 -168zM739 1221q-43 0 -73 -35q-30 -34 -31 -102q0 -68 51 -136q141 60 141 187q-1 36 -23 61t-65 25zM502 -20q-220 0 -356 106q-138 106 -138 299q0 159 88 265t271 165q-37 45 -61 119t-23 131
q-1 197 125 309t336 111q210 0 323 -88q113 -89 113 -227t-79 -240t-263 -199l129 -186q36 35 75 113t64 163h383q-96 -335 -318 -559l191 -262h-442l-43 61q-155 -81 -375 -81z" />
    <glyph glyph-name="quotesingle" unicode="'" horiz-adv-x="487" 
d="M438 934h-256l72 528h342z" />
    <glyph glyph-name="parenleft" unicode="(" horiz-adv-x="766" 
d="M395 309q0 -148 33 -327t84 -306h-293q-67 118 -109 298t-42 352q0 332 125 620t387 557h323q-508 -549 -508 -1194z" />
    <glyph glyph-name="parenright" unicode=")" horiz-adv-x="766" 
d="M367 870q0 150 -32 322t-87 311h295q71 -125 111 -297t40 -352q0 -342 -124 -629t-377 -549h-326q500 539 500 1194z" />
    <glyph glyph-name="asterisk" unicode="*" horiz-adv-x="1110" 
d="M793 1178l368 30l-22 -301l-310 41l148 -311l-285 -86l-80 303l-166 -244l-249 185l254 229l-299 84l100 278l319 -165l31 350l307 -62z" />
    <glyph glyph-name="plus" unicode="+" horiz-adv-x="1159" 
d="M102 586v272h353v352h270v-352h352v-272h-352v-348h-270v348h-353z" />
    <glyph glyph-name="comma" unicode="," horiz-adv-x="627" 
d="M432 238l8 -23q-112 -254 -256 -479h-288q52 122 147 387l41 115h348z" />
    <glyph glyph-name="hyphen" unicode="-" horiz-adv-x="674" 
d="M86 705h553l-64 -312h-552z" />
    <glyph glyph-name="period" unicode="." horiz-adv-x="627" 
d="M0 144q0 92 65 154t165 62q194 0 194 -155q0 -118 -60 -174t-190 -56q-82 0 -128 38q-46 39 -46 131z" />
    <glyph glyph-name="slash" unicode="/" horiz-adv-x="956" 
d="M254 -20h-344l838 1503h344z" />
    <glyph glyph-name="zero" unicode="0" horiz-adv-x="1188" 
d="M686 1169q-54 1 -109 -109t-89 -282t-35 -290q0 -119 16 -156t67 -37q52 -1 104 93t90 267t38 343t-82 171zM1157 983q0 -299 -85 -529t-235 -352q-149 -122 -353 -122t-312 125t-109 360q1 295 85 533t234 362t350 125t312 -135q113 -136 113 -367z" />
    <glyph glyph-name="one" unicode="1" horiz-adv-x="1188" 
d="M385 0l174 799q29 134 76 256q-81 -70 -131 -103l-203 -125l-151 252l620 383h311l-307 -1462h-389z" />
    <glyph glyph-name="two" unicode="2" horiz-adv-x="1188" 
d="M727 1053q1 47 -25 73t-67 25q-121 0 -281 -147l-186 258q235 221 541 221q183 1 295 -99t112 -261t-88 -295t-297 -314l-205 -176v-12h490l-68 -326h-1005l53 256l483 436q248 221 248 361z" />
    <glyph glyph-name="three" unicode="3" horiz-adv-x="1188" 
d="M391 291q275 0 275 180q-4 79 -60 105t-219 28h-84l53 291h78q146 1 228 47t83 127q-1 46 -37 74t-98 28q-117 0 -270 -84l-158 248q126 81 243 115t259 33q202 0 322 -93q120 -92 120 -246t-90 -252t-252 -130v-8q129 -25 202 -111t73 -213q-1 -216 -179 -333t-454 -117
t-412 79v332q166 -100 377 -100z" />
    <glyph glyph-name="four" unicode="4" horiz-adv-x="1188" 
d="M600 578l49 194q31 115 60 211h-9q-50 -96 -114 -172l-195 -233h209zM915 283l-59 -283h-377l60 283h-549l51 256l762 923h360l-186 -884h149l-61 -295h-150z" />
    <glyph glyph-name="five" unicode="5" horiz-adv-x="1188" 
d="M464 653q-97 0 -192 -32l-122 92l215 749h813l-68 -323h-471l-59 -185q31 4 75 4q181 0 293 -118t113 -316q0 -260 -161 -402t-466 -142q-132 0 -246 22t-168 61v324q81 -46 181 -71t184 -25q277 0 277 192q0 76 -50 123t-148 47z" />
    <glyph glyph-name="six" unicode="6" horiz-adv-x="1188" 
d="M561 287q66 0 109 76t43 182q0 129 -92 129q-68 0 -113 -73t-45 -159q0 -154 98 -155zM778 977q160 0 244 -103t84 -299v-13q0 -254 -154 -418t-397 -164h-12q-225 0 -345 124t-120 367q0 103 26 254q86 393 299 575t568 183q105 0 233 -31l-63 -303q-93 25 -211 25
t-210 -34t-152 -110q-60 -74 -105 -223h8q107 170 307 170z" />
    <glyph glyph-name="seven" unicode="7" horiz-adv-x="1188" 
d="M752 1135h-574l70 327h1030l-51 -231l-744 -1231h-448z" />
    <glyph glyph-name="eight" unicode="8" horiz-adv-x="1188" 
d="M414 385q0 -55 36 -89t102 -34t108 42t42 110q0 115 -118 194q-170 -90 -170 -223zM702 1202q-44 0 -78 -40q-36 -40 -36 -88t24 -87t62 -57q57 21 92 70q35 50 35 100q1 50 -27 76t-72 26zM1065 426q0 -212 -141 -329q-140 -117 -376 -117t-368 99q-131 99 -131 259
q0 301 332 418q-156 122 -156 309v8q1 178 137 295t356 117h7q201 -1 317 -93t115 -231t-77 -239t-203 -140q188 -144 188 -356z" />
    <glyph glyph-name="nine" unicode="9" horiz-adv-x="1188" 
d="M672 1176q-72 0 -121 -71t-49 -173q0 -144 92 -144q74 0 125 70t51 154t-28 124t-70 40zM436 481q-150 -1 -238 109t-89 297v7q0 261 148 425t399 164h6q230 1 352 -137t123 -414q-1 -276 -103 -500q-207 -452 -717 -452q-115 0 -211 30v314q90 -37 203 -37q187 1 291 87
t145 281h-8q-59 -93 -131 -133t-170 -41z" />
    <glyph glyph-name="colon" unicode=":" horiz-adv-x="627" 
d="M0 144q0 92 65 154t165 62q194 0 194 -155q0 -118 -60 -174t-190 -56q-82 0 -128 38q-46 39 -46 131zM195 932q1 92 65 154t162 61q196 0 196 -154q0 -119 -59 -175t-190 -56q-81 0 -127 38q-46 40 -47 132z" />
    <glyph glyph-name="semicolon" unicode=";" horiz-adv-x="627" 
d="M420 238l8 -23q-112 -254 -256 -479h-289q69 158 148 387l41 115h348zM195 932q1 92 65 154t162 61q196 0 196 -154q0 -119 -59 -175t-190 -56q-81 0 -127 38q-46 40 -47 132z" />
    <glyph glyph-name="less" unicode="&#x3c;" horiz-adv-x="1159" 
d="M88 627v172l973 508v-299l-576 -283l576 -252v-297z" />
    <glyph glyph-name="equal" unicode="=" horiz-adv-x="1159" 
d="M102 670h975v-271h-975v271zM102 1040h975v-266h-975v266z" />
    <glyph glyph-name="greater" unicode="&#x3e;" horiz-adv-x="1159" 
d="M684 725l-575 283v299l972 -508v-172l-972 -451v297z" />
    <glyph glyph-name="question" unicode="?" horiz-adv-x="999" 
d="M362 -25q-186 -1 -186 169q0 90 65 154q65 62 165 62q194 0 194 -155q0 -110 -63 -170t-175 -60zM684 1104q0 70 -90 70q-126 0 -313 -109l-119 283q230 135 446 135t334 -90t119 -253q-1 -163 -107 -272q-52 -52 -160 -118q-110 -66 -152 -106t-56 -85l-15 -43h-315
l12 64q28 150 111 240q43 46 139 110t131 98q35 36 35 76z" />
    <glyph glyph-name="at" unicode="@" horiz-adv-x="1837" 
d="M1012 868q-74 0 -129 -47t-87 -128t-32 -161q0 -104 78 -104q62 0 100 52t74 188l47 190q-21 10 -51 10zM485 521q0 147 74 285t196 211q121 73 277 73t336 -70l-100 -414q-23 -98 -23 -138t39 -40h5q93 0 157 110t65 278v5q0 212 -133 322t-383 110q-187 0 -337 -92
q-150 -91 -232 -257t-82 -380v-10q0 -207 120 -339t306 -132h56q54 0 186 25t243 69v-225q-87 -42 -221 -70t-254 -28q-209 0 -368 84q-158 84 -244 240q-86 157 -86 362q0 288 116 510t336 348q220 125 486 125q354 0 554 -174t200 -482q0 -171 -70 -315t-190 -224
q-122 -81 -279 -81t-207 129h-10q-96 -129 -268 -129q-117 0 -191 84t-74 230z" />
    <glyph glyph-name="A" unicode="A" horiz-adv-x="1384" 
d="M846 586l-17 424l-2 86q0 82 4 131q-25 -91 -61 -166l-217 -475h293zM410 274l-125 -274h-406l744 1462h503l123 -1462h-381l-10 274h-448z" />
    <glyph glyph-name="B" unicode="B" horiz-adv-x="1298" 
d="M571 305q85 1 143 49t58 120t-34 105t-115 33h-68l-66 -307h82zM686 901q178 0 178 160q0 102 -127 102h-63l-60 -262h72zM829 1462q217 0 329 -82t112 -237q0 -289 -297 -377v-8q89 -30 141 -103t51 -176q-1 -229 -153 -354t-432 -125h-547l309 1462h487z" />
    <glyph glyph-name="C" unicode="C" horiz-adv-x="1290" 
d="M900 1159q-127 0 -214 -78q-86 -78 -136 -214t-50 -298q0 -266 217 -266q159 0 368 90v-323q-203 -90 -451 -90t-390 148q-140 150 -140 418t101 490t275 335q174 114 420 114t462 -131l-148 -305q-187 110 -314 110z" />
    <glyph glyph-name="D" unicode="D" horiz-adv-x="1401" 
d="M572 324q102 0 188 70t134 200t48 288v7q0 124 -54 189t-151 65h-71l-172 -819h78zM758 1462q276 0 428 -144t151 -409v-11q0 -272 -99 -476t-287 -313t-438 -109h-480l309 1462h416z" />
    <glyph glyph-name="E" unicode="E" horiz-adv-x="1151" 
d="M33 0l309 1462h868l-65 -317h-477l-47 -230h444l-72 -317h-444l-57 -276h477l-68 -322h-868z" />
    <glyph glyph-name="F" unicode="F" horiz-adv-x="1165" 
d="M33 0l309 1462h862l-67 -317h-471l-58 -279h436l-69 -319h-438l-113 -547h-391z" />
    <glyph glyph-name="G" unicode="G" horiz-adv-x="1430" 
d="M658 -20q-266 0 -410 152t-144 425t110 488t302 327t451 113q260 0 442 -107l-147 -309q-153 90 -296 90q-283 0 -406 -287q-60 -142 -60 -303q0 -264 209 -264q60 0 133 14l51 232h-229l67 305h610l-167 -795q-250 -81 -516 -81z" />
    <glyph glyph-name="H" unicode="H" horiz-adv-x="1462" 
d="M772 0l125 596h-346l-127 -596h-391l309 1462h391l-112 -542h348l112 542h392l-310 -1462h-391z" />
    <glyph glyph-name="I" unicode="I" horiz-adv-x="727" 
d="M340 1462h397l-309 -1462h-397z" />
    <glyph glyph-name="J" unicode="J" horiz-adv-x="764" 
d="M-77 -461q-143 0 -251 29v319q100 -24 190 -24q90 1 146 59t84 195l289 1345h391l-299 -1394q-43 -202 -113 -313t-182 -163t-255 -53z" />
    <glyph glyph-name="K" unicode="K" horiz-adv-x="1370" 
d="M803 0l-174 578l-97 -56l-108 -522h-391l309 1462h391l-135 -624l38 59q90 145 130 195l297 370h459l-551 -674l270 -788h-438z" />
    <glyph glyph-name="L" unicode="L" horiz-adv-x="1079" 
d="M342 1462h391l-241 -1143h477l-68 -319h-868z" />
    <glyph glyph-name="M" unicode="M" horiz-adv-x="1862" 
d="M588 1049h-8q-72 -442 -86 -512l-113 -537h-348l309 1462h518v-1038h8l478 1038h526l-313 -1462h-351l117 549q49 226 108 436l15 64h-8l-482 -1049h-370v1049z" />
    <glyph glyph-name="N" unicode="N" horiz-adv-x="1618" 
d="M864 0l-289 1028h-8q-28 -290 -57 -418l-129 -610h-348l309 1462h455l286 -983h9q29 237 57 371l131 612h348l-309 -1462h-455z" />
    <glyph glyph-name="O" unicode="O" horiz-adv-x="1509" 
d="M1051 893q0 268 -192 268q-95 0 -178 -85q-83 -84 -132 -230t-49 -301q0 -242 200 -242q95 0 176 82t128 225t47 283zM911 1485q247 -1 391 -149t144 -415t-100 -487t-274 -336q-175 -118 -425 -118t-397 149q-146 149 -146 415t103 486q103 221 281 338t423 117z" />
    <glyph glyph-name="P" unicode="P" horiz-adv-x="1276" 
d="M657 805q91 1 147 59t56 133t-36 111t-99 35h-59l-72 -338h63zM715 1462q259 0 397 -114t139 -324q0 -252 -172 -396t-469 -143h-86l-100 -485h-391l309 1462h373z" />
    <glyph glyph-name="Q" unicode="Q" horiz-adv-x="1509" 
d="M500 539q0 -230 189 -230q95 0 179 80t134 224t49 313q0 231 -189 231q-95 0 -180 -82q-86 -81 -134 -225t-48 -311zM647 -20q-258 0 -401 149q-142 149 -142 414t102 486t282 339t426 117q246 1 389 -149t143 -422t-114 -502t-310 -338l238 -422h-439l-162 328h-12z" />
    <glyph glyph-name="R" unicode="R" horiz-adv-x="1331" 
d="M858 1036q0 127 -135 127h-53l-70 -334h51q95 1 151 55t56 152zM729 1462q254 0 387 -101t133 -300q1 -157 -71 -273t-211 -176l264 -612h-426l-195 532h-73l-113 -532h-391l309 1462h387z" />
    <glyph glyph-name="S" unicode="S" horiz-adv-x="1122" 
d="M717 1167q-65 0 -99 -28t-34 -79q0 -52 35 -96t140 -122q218 -162 218 -388t-147 -350q-146 -124 -394 -124t-393 96v350q85 -54 193 -90t189 -35q157 0 157 119q0 51 -46 97q-26 29 -130 113t-158 182t-53 222q-1 124 65 230q66 104 185 162t268 57q239 0 430 -107
l-135 -297q-170 88 -291 88z" />
    <glyph glyph-name="T" unicode="T" horiz-adv-x="1130" 
d="M236 0l237 1139h-317l69 323h1028l-71 -323h-318l-237 -1139h-391z" />
    <glyph glyph-name="U" unicode="U" horiz-adv-x="1436" 
d="M565 -20q-127 0 -229 56t-157 152q-55 98 -55 214v38q0 34 12 99l199 923h391l-195 -913q-14 -70 -14 -115q0 -127 121 -127q92 -1 146 63t83 199l191 893h391l-199 -932q-59 -282 -225 -416t-451 -134h-9z" />
    <glyph glyph-name="V" unicode="V" horiz-adv-x="1264" 
d="M559 610q0 -147 -16 -256h8q12 59 44 157q33 98 56 146l350 805h414l-725 -1462h-436l-104 1462h382l27 -801v-51z" />
    <glyph glyph-name="W" unicode="W" horiz-adv-x="1915" 
d="M1292 1462v-792q0 -152 -26 -316l133 346l303 762h387l-635 -1462h-461v620q0 161 13 324q-34 -136 -118 -349l-253 -595h-434l-49 1462h370l-10 -733q-6 -270 -25 -375l134 336l335 772h336z" />
    <glyph glyph-name="X" unicode="X" horiz-adv-x="1358" 
d="M803 0l-146 498l-338 -498h-444l563 776l-223 686h416l123 -469l309 469h448l-538 -725l262 -737h-432z" />
    <glyph glyph-name="Y" unicode="Y" horiz-adv-x="1237" 
d="M969 1462h436l-612 -895l-121 -567h-391l120 567l-237 895h403l90 -542z" />
    <glyph glyph-name="Z" unicode="Z" horiz-adv-x="1104" 
d="M-92 0l47 242l690 901h-479l67 319h986l-52 -245l-700 -898h543l-68 -319h-1034z" />
    <glyph glyph-name="bracketleft" unicode="[" horiz-adv-x="737" 
d="M-53 -344l393 1847h530l-55 -254h-215l-285 -1339h215l-53 -254h-530z" />
    <glyph glyph-name="backslash" unicode="\" horiz-adv-x="956" 
d="M778 -20h-319l-238 1503h309z" />
    <glyph glyph-name="bracketright" unicode="]" horiz-adv-x="737" 
d="M133 -90l285 1339h-215l55 254h528l-393 -1847h-526l53 254h213z" />
    <glyph glyph-name="asciicircum" unicode="^" horiz-adv-x="1096" 
d="M625 1462h172l284 -960h-274l-156 569l-360 -569h-297z" />
    <glyph glyph-name="underscore" unicode="_" horiz-adv-x="922" 
d="M-184 -379l57 246h930l-58 -246h-929z" />
    <glyph glyph-name="grave" unicode="`" horiz-adv-x="1135" 
d="M975 1241h-236q-79 71 -151 157t-103 150v21h396q28 -154 94 -303v-25z" />
    <glyph glyph-name="a" unicode="a" horiz-adv-x="1243" 
d="M565 291q50 -1 95 57q44 58 72 157t28 179q0 158 -80 158t-140 -126q-61 -126 -61 -276t86 -149zM84 397q0 195 72 379t184 281q112 96 248 96q167 0 262 -160h8l53 140h310l-240 -1133h-309l10 123h-8q-103 -143 -265 -143q-161 0 -243 111t-82 306z" />
    <glyph glyph-name="b" unicode="b" horiz-adv-x="1243" 
d="M678 842q-50 0 -95 -57t-71 -155t-27 -196q0 -143 78 -143q49 -1 97 59t76 158t28 190q0 144 -86 144zM838 1153q155 1 238 -111t83 -304q-1 -192 -71 -378q-70 -184 -182 -282t-249 -98q-83 0 -145 32t-125 113h-8l-49 -125h-307l329 1556h387l-49 -231
q-37 -174 -90 -301h8q47 57 77 81q62 48 153 48z" />
    <glyph glyph-name="c" unicode="c" horiz-adv-x="1032" 
d="M513 -20q-205 0 -318 120q-111 122 -111 333t76 373t215 255q140 92 324 92t358 -80l-123 -287q-134 60 -211 60t-129 -48t-86 -142t-35 -188q0 -92 30 -134t95 -43q119 0 283 86v-307q-163 -90 -368 -90z" />
    <glyph glyph-name="d" unicode="d" horiz-adv-x="1237" 
d="M565 291q50 -1 95 57q44 58 72 157t28 193q0 144 -80 144q-48 0 -96 -60t-76 -156q-28 -97 -29 -192q0 -143 86 -143zM406 -20q-158 0 -240 111t-82 305t71 378q71 185 183 282t248 97q76 -1 127 -31t110 -121h8l2 37q8 140 25 217l62 301h391l-330 -1556h-309l10 123h-8
q-56 -77 -119 -110t-149 -33z" />
    <glyph glyph-name="e" unicode="e" horiz-adv-x="1186" 
d="M774 815q0 76 -94 76q-52 -1 -105 -71t-63 -156h29q109 0 171 41t62 110zM637 258q143 0 328 98v-274q-115 -58 -209 -80t-224 -22q-212 0 -330 118t-118 328t84 381q84 170 228 258q146 88 336 88q190 1 300 -85t109 -230q-1 -200 -157 -308t-452 -108h-59v-16
q0 -148 164 -148z" />
    <glyph glyph-name="f" unicode="f" horiz-adv-x="840" 
d="M-2 -492q-110 0 -207 27v303q63 -18 127 -18q127 0 154 125l190 897h-166l43 190l189 96l16 74q42 190 145 278t273 87q170 0 287 -58l-99 -264q-64 31 -134 31t-87 -72l-16 -71h211l-66 -291h-209l-205 -959q-43 -191 -153 -283t-293 -92z" />
    <glyph glyph-name="g" unicode="g" horiz-adv-x="1145" 
d="M367 -238q256 0 256 111q0 37 -33 55t-115 27l-115 12q-163 -24 -163 -119q0 -86 170 -86zM620 920q-50 0 -85 -72t-35 -160q0 -90 67 -90q51 0 85 68t34 161t-61 93h-5zM63 219q0 136 203 227q-131 104 -131 290t136 302q136 115 368 115q105 0 197 -20h399l-41 -207
l-160 -52q10 -39 10 -94q0 -190 -130 -308t-339 -118q-78 0 -124 13q-48 -26 -48 -52q0 -43 111 -59l137 -18q175 -26 251 -92t75 -189q-1 -215 -169 -332t-478 -117q-213 0 -338 76t-125 209q0 195 280 287q-84 53 -84 139z" />
    <glyph glyph-name="h" unicode="h" horiz-adv-x="1274" 
d="M786 748q0 52 -22 76q-22 22 -53 22q-125 0 -185 -293l-116 -553h-387l329 1556h387l-53 -249q-34 -155 -88 -283h8q100 129 273 129q141 1 220 -85t79 -237q0 -108 -25 -229l-127 -602h-387l129 618q18 78 18 130z" />
    <glyph glyph-name="i" unicode="i" horiz-adv-x="666" 
d="M23 0l239 1133h389l-241 -1133h-387zM526 1591q198 0 199 -141q-1 -100 -59 -154t-166 -55q-191 0 -191 141q0 102 59 156q58 54 158 53z" />
    <glyph glyph-name="j" unicode="j" horiz-adv-x="666" 
d="M-57 -492q-109 0 -207 27v303q56 -18 112 -18q142 0 175 147l247 1166h387l-260 -1227q-40 -194 -157 -296t-297 -102zM534 1591q198 0 199 -141q0 -97 -57 -153t-168 -56q-191 0 -191 141q0 102 59 156q58 54 158 53z" />
    <glyph glyph-name="k" unicode="k" horiz-adv-x="1264" 
d="M735 1556l-139 -663q-16 -75 -68 -223h9q82 124 153 200l242 263h442l-491 -512l274 -621h-438l-139 391l-101 -53l-69 -338h-387l325 1556h387z" />
    <glyph glyph-name="l" unicode="l" horiz-adv-x="666" 
d="M23 0l329 1556h387l-329 -1556h-387z" />
    <glyph glyph-name="m" unicode="m" horiz-adv-x="1896" 
d="M1513 1153q141 -1 214 -85t73 -249q0 -99 -22 -205l-125 -614h-387l129 631q14 58 14 115q0 100 -71 100t-117 -74t-78 -229l-111 -543h-387l131 631q15 90 15 121q1 94 -69 94t-116 -72t-78 -223l-118 -551h-387l239 1133h309l-16 -187h8q62 114 138 160t190 47
q115 0 179 -52t91 -155h8q127 207 344 207z" />
    <glyph glyph-name="n" unicode="n" horiz-adv-x="1274" 
d="M786 748q0 52 -22 76q-22 22 -53 22q-59 0 -107 -73t-78 -220l-116 -553h-387l239 1133h309l-12 -158h8q55 94 129 136t199 42q125 1 204 -85t79 -237q0 -108 -25 -229l-127 -602h-387l129 618q18 78 18 130z" />
    <glyph glyph-name="o" unicode="o" horiz-adv-x="1243" 
d="M678 862q-82 0 -140 -139t-59 -320q1 -133 83 -133t142 139t60 320q0 65 -23 99t-63 34zM510 -20q-200 0 -312 113q-114 113 -114 323t80 381q80 170 224 263t344 93t314 -113q114 -112 113 -322q1 -210 -79 -380t-225 -264t-345 -94z" />
    <glyph glyph-name="p" unicode="p" horiz-adv-x="1243" 
d="M678 842q-50 0 -95 -57t-71 -155t-27 -180q0 -159 88 -159q49 -1 93 57t70 152q28 94 28 198q0 144 -86 144zM822 1153q160 0 248 -112t89 -311q-1 -200 -71 -378t-185 -275t-255 -97t-228 145h-8q-12 -161 -56 -371l-51 -246h-387l344 1625h309l-12 -127h8
q95 147 255 147z" />
    <glyph glyph-name="q" unicode="q" horiz-adv-x="1243" 
d="M564 291q50 -1 95 57t73 157t27 193q0 144 -80 144q-49 0 -97 -60t-76 -156q-28 -97 -28 -192q0 -143 86 -143zM379 -20q-130 0 -213 114t-83 305v9q-1 180 71 366t183 282q111 97 248 97q91 1 147 -33t117 -127h8l53 140h310l-344 -1625h-392l68 293q26 118 90 310h-8
q-54 -71 -112 -101t-136 -30h-7z" />
    <glyph glyph-name="r" unicode="r" horiz-adv-x="895" 
d="M901 1153q54 0 80 -8l-84 -383q-53 22 -139 22q-177 0 -242 -286l-106 -498h-387l239 1133h309l-18 -189h8q65 112 141 160t199 49z" />
    <glyph glyph-name="s" unicode="s" horiz-adv-x="1028" 
d="M608 889q-76 0 -76 -68q0 -27 28 -48t106 -60q225 -113 225 -316q-1 -203 -131 -310t-363 -107t-366 63v311q165 -90 316 -90t151 70q0 34 -26 60t-131 84t-153 134q-48 75 -49 183q0 172 121 265q120 93 338 93t389 -106l-121 -252q-144 94 -258 94z" />
    <glyph glyph-name="t" unicode="t" horiz-adv-x="936" 
d="M504 354q0 -63 64 -63t182 47v-291q-135 -67 -313 -67t-253 65t-75 207q0 76 24 188l84 402h-154l41 190l218 88l137 240h258l-49 -227h288l-63 -291h-289l-84 -383q-16 -74 -16 -105z" />
    <glyph glyph-name="u" unicode="u" horiz-adv-x="1274" 
d="M487 384q0 -96 76 -95q59 0 107 78t78 215l116 551h387l-239 -1133h-310l13 158h-8q-55 -94 -129 -136t-199 -42t-204 86t-79 214q0 129 25 250l127 603h387l-129 -617q-19 -80 -19 -132z" />
    <glyph glyph-name="v" unicode="v" horiz-adv-x="1114" 
d="M88 1133h385l27 -603q0 -70 -8 -118h8q2 14 18 63t36 90l265 568h414l-612 -1133h-388z" />
    <glyph glyph-name="w" unicode="w" horiz-adv-x="1686" 
d="M467 1133v-512q0 -177 -8 -259h8q47 181 88 295l172 476h428l-20 -476q-9 -128 -33 -295h8l64 187q41 116 241 584h385l-538 -1133h-422l20 449q2 61 12 207t21 221h-8q-61 -236 -121 -390l-189 -487h-407l-66 1133h365z" />
    <glyph glyph-name="x" unicode="x" horiz-adv-x="1159" 
d="M334 0h-453l473 578l-207 555h422l76 -314l186 314h459l-465 -576l228 -557h-428l-80 328z" />
    <glyph glyph-name="y" unicode="y" horiz-adv-x="1114" 
d="M516 422h8q40 140 56 180t233 531h416l-670 -1276q-96 -185 -223 -267t-311 -82q-91 0 -154 17v307q47 -12 121 -12q147 0 229 151l23 41l-162 1121h389l43 -562l2 -62v-87z" />
    <glyph glyph-name="z" unicode="z" horiz-adv-x="993" 
d="M-41 0l43 221l502 613h-348l67 299h811l-53 -242l-496 -592h383l-65 -299h-844z" />
    <glyph glyph-name="braceleft" unicode="{" horiz-adv-x="735" 
d="M463 -324q-361 0 -361 277q0 63 15 127l37 174q6 24 6 43q0 73 -42 105t-134 32l53 287q119 1 175 39t77 133l55 246q29 125 76 190q98 133 334 133h129l-62 -280q-83 -2 -121 -30t-55 -99l-53 -258q-21 -99 -87 -153t-192 -69v-8q170 -55 170 -233q0 -20 -10 -74
l-35 -164q-6 -30 -6 -49q0 -88 113 -88v-281h-82z" />
    <glyph glyph-name="bar" unicode="|" horiz-adv-x="1159" 
d="M713 1548v-2013h-271v2013h271z" />
    <glyph glyph-name="braceright" unicode="}" horiz-adv-x="735" 
d="M-123 -324v281q129 5 163 47q18 22 30 82l53 258q42 198 278 221v8q-170 56 -170 234q0 10 11 74l34 163q7 27 7 50q0 88 -136 88l54 280h61q168 0 259 -71t91 -203q0 -67 -14 -129l-37 -174q-6 -25 -6 -43q-1 -68 45 -102t148 -33l-58 -287q-120 0 -182 -40t-82 -134
l-55 -246q-37 -170 -138 -247t-282 -77h-74z" />
    <glyph glyph-name="asciitilde" unicode="~" horiz-adv-x="1159" 
d="M809 526q-104 0 -218 47q-115 47 -161 59t-94 13q-115 0 -240 -121v285q106 109 262 109q60 0 107 -10t137 -48q90 -36 137 -48t97 -13q50 1 114 33t121 88v-285q-106 -109 -262 -109z" />
    <glyph glyph-name="uni00A0" unicode="&#xa0;" horiz-adv-x="532" 
 />
    <glyph glyph-name="cent" unicode="&#xa2;" horiz-adv-x="1188" 
d="M547 627q0 -148 121 -148q114 0 282 90v-311q-146 -78 -307 -90l-41 -188h-229l51 208q-270 73 -270 388t140 520q141 205 372 239l32 148h230l-33 -150q123 -20 231 -76l-122 -286q-124 59 -226 59q-62 0 -115 -50t-85 -148t-31 -205z" />
    <glyph glyph-name="sterling" unicode="&#xa3;" horiz-adv-x="1188" 
d="M887 1161q-57 1 -78 -25t-35 -92l-24 -114h251l-57 -279h-252l-20 -94q-16 -73 -70 -133t-133 -94h604l-72 -330h-1019l63 313q142 39 190 119q25 42 41 123l21 96h-188l57 279h188l23 129q51 293 237 381q92 43 254 43t355 -86l-144 -299q-135 63 -192 63z" />
    <glyph glyph-name="yen" unicode="&#xa5;" horiz-adv-x="1188" 
d="M932 1462h393l-489 -733h184l-45 -205h-223l-27 -129h223l-43 -205h-223l-41 -190h-379l41 190h-227l43 205h227l25 129h-226l45 205h179l-187 733h385l72 -487z" />
    <glyph glyph-name="dieresis" unicode="&#xa8;" horiz-adv-x="1135" 
d="M823 1384q0 187 201 187q168 0 168 -125q0 -189 -199 -189q-88 0 -129 31t-41 96zM336 1384q0 187 201 187q170 0 170 -125q0 -189 -201 -189q-88 0 -129 31t-41 96z" />
    <glyph glyph-name="copyright" unicode="&#xa9;" horiz-adv-x="1688" 
d="M926 971q-186 1 -185 -245q-1 -122 43 -180t136 -57q137 0 258 68v-231q-125 -64 -273 -64q-213 0 -329 124t-115 346q0 222 113 344q114 122 321 122q167 0 332 -82l-92 -205q-115 60 -209 60zM864 1319q-158 0 -296 -80t-215 -216q-77 -137 -77 -293t78 -292t215 -216
q135 -79 293 -79t294 77t216 214t80 296q0 160 -78 296t-216 214q-136 78 -294 79zM113 734q0 200 101 375q102 176 276 275t374 99q200 -1 376 -101t276 -275t100 -375t-98 -372q-98 -174 -272 -277t-382 -103q-206 0 -380 103t-272 277t-99 374z" />
    <glyph glyph-name="guillemotleft" unicode="&#xab;" horiz-adv-x="1276" 
d="M469 1081l264 -204l-266 -334l111 -330l-334 -137l-183 477v10zM1032 1087l260 -210l-278 -306l123 -358l-334 -137l-195 506v10z" />
    <glyph glyph-name="uni00AD" unicode="&#xad;" horiz-adv-x="674" 
d="M86 705h553l-64 -312h-552z" />
    <glyph glyph-name="registered" unicode="&#xae;" horiz-adv-x="1688" 
d="M815 809h10q77 0 107 22q30 23 31 75q0 52 -33 70t-107 17h-8v-184zM535 1188h290q211 0 315 -70t105 -200q0 -182 -184 -250l211 -355h-285l-160 320h-12v-320h-280v875zM864 1319q-158 0 -296 -80t-215 -216q-77 -137 -77 -293t78 -292t215 -216q135 -79 293 -79
t294 77t216 214t80 296q0 160 -78 296t-216 214q-136 78 -294 79zM113 734q0 200 101 375q102 176 276 275t374 99q200 -1 376 -101t276 -275t100 -375t-98 -372q-98 -174 -272 -277t-382 -103q-206 0 -380 103t-272 277t-99 374z" />
    <glyph glyph-name="acute" unicode="&#xb4;" horiz-adv-x="1135" 
d="M453 1241v23q122 101 282 305h439v-15q-44 -53 -190 -156t-247 -157h-284z" />
    <glyph glyph-name="cedilla" unicode="&#xb8;" horiz-adv-x="383" 
d="M-65 -285q63 0 63 49q0 73 -145 101l75 135h205l-24 -41q178 -37 178 -195q0 -120 -83 -188t-215 -68t-210 29v205q93 -27 156 -27z" />
    <glyph glyph-name="guillemotright" unicode="&#xbb;" horiz-adv-x="1276" 
d="M807 43l-264 205l266 334l-111 329l334 138l182 -478v-10zM244 35l-258 213l276 305l-121 358l332 138l195 -506v-11z" />
    <glyph glyph-name="circumflex" unicode="&#x2c6;" horiz-adv-x="1135" 
d="M1190 1241h-266q-46 41 -156 174q-140 -109 -240 -174h-274v23q179 163 309 305h447q26 -59 79 -151t101 -154v-23z" />
    <glyph glyph-name="ring" unicode="&#x2da;" horiz-adv-x="1182" 
d="M879 1490q0 36 -26 60q-27 24 -63 25q-36 -1 -62 -25t-26 -61t24 -61t64 -23t64 25q25 24 25 60zM788 1743q120 -1 196 -71t75 -182q0 -112 -74 -182q-75 -70 -195 -71q-120 1 -194 69t-74 182t73 185q73 70 193 70z" />
    <glyph glyph-name="tilde" unicode="&#x2dc;" horiz-adv-x="1135" 
d="M878 1239q-66 0 -165 53q-75 45 -117 45t-72 -28t-35 -72h-188q32 173 109 257t204 85q35 -1 60 -7t103 -48t124 -43q78 0 115 100h190q-34 -173 -113 -257t-208 -85h-7z" />
    <glyph glyph-name="afii57799" unicode="&#x5b0;" 
d="M622.5 -342q43.5 0 60.5 -20t17 -37q0 -61 -35.5 -88.5t-79 -27.5t-60.5 19.5t-17 37.5q0 60 35.5 88t79 28zM673.5 -101q43.5 0 60.5 -20t17 -38q0 -60 -35.5 -87.5t-79 -27.5t-60.5 19.5t-17 36.5q0 62 35.5 89.5t79 27.5z" />
    <glyph glyph-name="afii57801" unicode="&#x5b1;" 
d="M933.5 -357q43.5 0 60.5 -20t17 -37q0 -61 -35.5 -88.5t-79 -27.5t-60.5 19.5t-17 37.5q0 60 35.5 88t79 28zM523 -357q43 0 60 -20t17 -37q0 -61 -35.5 -88.5t-79 -27.5t-60 19.5t-16.5 37.5q0 61 35.5 88.5t78.5 27.5zM984.5 -116q43.5 0 60.5 -20t17 -38
q0 -60 -35.5 -87.5t-79 -27.5t-60.5 19.5t-17 36.5q0 62 35.5 89.5t79 27.5zM718.5 -116q43.5 0 61.5 -20.5t18 -38.5q0 -60 -36.5 -87t-80.5 -27t-60.5 19t-16.5 36q0 64 35.5 91t79 27zM422 -116q43 0 60.5 -20t17.5 -38q0 -61 -36 -88t-79 -27t-60 19.5t-17 36.5
q0 62 35.5 89.5t78.5 27.5z" />
    <glyph glyph-name="afii57800" unicode="&#x5b2;" 
d="M889 -357q43 0 60 -20t17 -37q0 -60 -36 -88t-79 -28t-59.5 19.5t-16.5 37.5q-1 61 35 89t79 27zM732 -259h-367l24 117h367zM940 -116q43 0 60 -20t17 -38q1 -60 -35 -88t-79.5 -27.5t-60 20t-16.5 36.5t6 44t35.5 50t72.5 23z" />
    <glyph glyph-name="afii57802" unicode="&#x5b3;" 
d="M892.5 -357q43.5 0 60.5 -20t17 -37q0 -61 -35.5 -88.5t-79 -27.5t-60.5 19.5t-17 37.5q0 60 35.5 88t79 28zM732 -259h-128l-43 -202h-111l43 202h-128l24 117h367zM943.5 -116q43.5 0 60.5 -20t17 -38q0 -60 -35.5 -87.5t-79 -27.5t-60.5 19.5t-17 36.5q0 62 35.5 89.5
t79 27.5z" />
    <glyph glyph-name="afii57793" unicode="&#x5b4;" 
d="M645.5 -111q43.5 0 61.5 -20.5t18 -38.5q0 -59 -36 -86.5t-80 -27.5t-61 19t-17 37q0 63 35.5 90t79 27z" />
    <glyph glyph-name="afii57794" unicode="&#x5b5;" 
d="M794 -92q44 0 62 -20.5t18 -38.5q0 -59 -36 -86.5t-80 -27.5t-61.5 19.5t-17.5 37t5.5 44t35.5 49.5t74 23zM498 -92q43 0 60 -20t17 -38q0 -60 -35 -87.5t-78.5 -27.5t-60.5 19.5t-17 37t5.5 44t35.5 49.5t73 23z" />
    <glyph glyph-name="afii57795" unicode="&#x5b6;" 
d="M624.5 -357q43.5 0 60.5 -20t17 -37q0 -61 -35.5 -88.5t-79 -27.5t-60.5 19.5t-17 37.5q0 60 35.5 88t79 28zM820 -116q44 0 62 -20.5t18 -38.5q0 -60 -36.5 -87t-80.5 -27t-61 19t-17 37q0 63 35.5 90t79.5 27zM524 -116q43 0 60 -20t17 -38q0 -60 -35.5 -87.5
t-79 -27.5t-60 19.5t-16.5 36.5t5.5 44t35.5 50t73 23z" />
    <glyph glyph-name="afii57798" unicode="&#x5b7;" 
d="M813 -234h-393l24 116h393z" />
    <glyph glyph-name="afii57797" unicode="&#x5b8;" 
d="M829 -255h-136l-43 -202h-111l43 202h-135l25 117h382z" />
    <glyph glyph-name="afii57806" unicode="&#x5b9;" 
d="M646.5 1583q43.5 0 61.5 -20.5t18 -38.5q0 -59 -36 -86.5t-80 -27.5t-61 19t-17 37q0 63 35.5 90t79 27z" />
    <glyph glyph-name="uni05BA" unicode="&#x5ba;" 
d="M646.5 1583q43.5 0 61.5 -20.5t18 -38.5q0 -59 -36 -86.5t-80 -27.5t-61 19t-17 37q0 63 35.5 90t79 27z" />
    <glyph glyph-name="afii57796" unicode="&#x5bb;" 
d="M833.5 -478q43.5 0 61.5 -20.5t18 -38.5q0 -59 -36.5 -86.5t-80.5 -27.5t-60.5 19t-16.5 36q0 64 35.5 91t79 27zM685.5 -303q43.5 0 60.5 -20t17 -38q0 -60 -35 -87.5t-78.5 -27.5t-61 19.5t-17.5 36.5q0 62 35.5 89.5t79 27.5zM542 -127q43 0 59.5 -20t16.5 -38
q0 -61 -35 -88t-78.5 -27t-60 19.5t-16.5 37.5q0 61 35.5 88.5t78.5 27.5z" />
    <glyph glyph-name="afii57807" unicode="&#x5bc;" 
d="M645.5 743q43.5 0 61.5 -20.5t18 -38.5q0 -59 -36 -86.5t-80 -27.5t-61 19t-17 37q0 63 35.5 90t79 27z" />
    <glyph glyph-name="afii57839" unicode="&#x5bd;" horiz-adv-x="1256" 
d="M642 -509h-103l74 352h103z" />
    <glyph glyph-name="afii57645" unicode="&#x5be;" horiz-adv-x="651" 
d="M575 982h-565l66 313h565z" />
    <glyph glyph-name="afii57804" unicode="&#x5c1;" 
d="M593.5 1583q43.5 0 61.5 -20.5t18 -38.5q0 -59 -36 -86.5t-80 -27.5t-61 19t-17 37q0 63 35.5 90t79 27z" />
    <glyph glyph-name="afii57803" unicode="&#x5c2;" 
d="M646.5 1583q43.5 0 61.5 -20.5t18 -38.5q0 -59 -36 -86.5t-80 -27.5t-61 19t-17 37q0 63 35.5 90t79 27z" />
    <glyph glyph-name="uni05C7" unicode="&#x5c7;" 
d="M535 -210h-161l-49 -234h-93l49 234h-156l21 100h410z" />
    <glyph glyph-name="afii57664" unicode="&#x5d0;" horiz-adv-x="1378" 
d="M1396 1295l-100 -471q-33 -160 -111 -245t-207 -129q125 -298 190 -450h-433l-226 584q-26 -29 -43 -110l-101 -474h-387l100 471q26 119 91.5 218t230.5 157q-153 360 -190 449h432l165 -438l61 -144q24 36 39 108l101 474h388z" />
    <glyph glyph-name="afii57665" unicode="&#x5d1;" horiz-adv-x="1196" 
d="M1090 996q0 -47 -24 -157l-115 -540h141l-64 -299h-1086l64 299h557l111 523q7 33 7 61q0 132 -163 132q-125 0 -302 -17l-63 -6l63 297q127 26 413 26t387 -95q66 -62 72 -141q2 -36 2 -83z" />
    <glyph glyph-name="afii57666" unicode="&#x5d2;" horiz-adv-x="984" 
d="M549 1315q247 0 326 -92q50 -59 50 -139.5t-21 -181.5l-192 -902h-291l-22 182h-17q-98 -126 -238 -180q-58 -22 -110 -22t-122 20l106 343q65 -15 125 -15q109 0 191 53.5t107 167.5l71 335q7 31 7 55q0 70 -63 70q-89 0 -177 -22l-28 -7l64 303q133 32 234 32z" />
    <glyph glyph-name="afii57667" unicode="&#x5d3;" horiz-adv-x="1135" 
d="M1254 1295l-59 -274q-106 -38 -151.5 -86.5t-68.5 -155.5l-166 -779h-388l167 786q29 132 138 210h-621l64 299h1085z" />
    <glyph glyph-name="afii57668" unicode="&#x5d4;" horiz-adv-x="1349" 
d="M383 0h-387l161 755h387zM1279 983q0 -47 -25 -161l-175 -822h-389l175 822q7 33 7 61q0 132 -169.5 132t-414.5 -26l-84 -9l63 297q246 38 543 38t396 -101q64 -66 70 -148q2 -36 3 -83z" />
    <glyph glyph-name="afii57669" unicode="&#x5d5;" horiz-adv-x="658" 
d="M385 0h-388l276 1295h388z" />
    <glyph glyph-name="afii57670" unicode="&#x5d6;" horiz-adv-x="731" 
d="M846 1295l-60 -279q-110 -75 -182 -203t-123 -368l-95 -445h-388l95 445q79 373 330 551h-257l64 299h616z" />
    <glyph glyph-name="afii57671" unicode="&#x5d7;" horiz-adv-x="1349" 
d="M833.5 1315q320.5 0 403.5 -128q44 -67 44 -161.5t-27 -203.5l-175 -822h-389l175 822q7 33 7 61q0 132 -162 132q-52 0 -112 -3l-215 -1012h-388l272 1277q246 38 566.5 38z" />
    <glyph glyph-name="afii57672" unicode="&#x5d8;" horiz-adv-x="1351" 
d="M956 1315q278 0 334 -201q17 -59 17 -163t-38 -286q-69 -325 -258.5 -504.5t-467.5 -179.5q-156 -1 -264 81q-168 126 -168 398q0 92 23 205l134 630h389l-134 -630q-25 -117 -25 -198q0 -176 120 -176q182 -1 253 337q34 160 34 219t-9 86q-22 75 -117 75l-50 -5l64 299
q87 13 163 13z" />
    <glyph glyph-name="afii57673" unicode="&#x5d9;" horiz-adv-x="635" 
d="M522 691l-273 -272h-173l186 876h388z" />
    <glyph glyph-name="afii57674" unicode="&#x5da;" horiz-adv-x="1108" 
d="M567.5 1315q223.5 0 326.5 -86q130 -109 130 -300q0 -98 -21 -200l-259 -1221h-387l260 1223q16 75 16 134q1 148 -203 148q-126 0 -274 -13l-50 -5l65 304q173 16 396.5 16z" />
    <glyph glyph-name="afii57675" unicode="&#x5db;" horiz-adv-x="1104" 
d="M602 1315q224 -1 328 -87q130 -108 129 -299q0 -98 -21 -200l-35 -164q-67 -323 -255 -465q-159 -120 -419 -120t-399 27l64 303q152 -18 367 -18q108 0 167.5 72.5t86.5 200.5l36 166q16 74 16 107q1 84 -31 120q-48 54 -173 54.5t-273 -12.5l-50 -5l64 304
q174 16 398 16z" />
    <glyph glyph-name="afii57676" unicode="&#x5dc;" horiz-adv-x="1131" 
d="M580 1295h652l-50 -237l-293 -577l2 1l-212 -482h-382l218 495l256 501h-642l118 555h388z" />
    <glyph glyph-name="afii57677" unicode="&#x5dd;" horiz-adv-x="1349" 
d="M884 925q0 89 -174 89l-112 -4l-151 -711h307l127 596q3 16 3 30zM809.5 1314q296.5 0 401.5 -99q72 -67 72 -197q0 -61 -16 -135l-188 -883h-1084l272 1277q246 37 542.5 37z" />
    <glyph glyph-name="afii57678" unicode="&#x5de;" horiz-adv-x="1425" 
d="M1024 1315q82 1 152 -29q166 -71 166 -286q0 -125 -32 -271l-155 -729h-626l64 299h231l91 430q30 145 16 199t-56 70q-25 9 -71 9t-102 -33.5t-84 -66.5l-29 -33l-261 -874h-382l249 818q57 173 57 333q0 71 -11 144h340q22 -59 16 -132h14q178 152 413 152z" />
    <glyph glyph-name="afii57679" unicode="&#x5df;" horiz-adv-x="619" 
d="M565 1210q0 -206 -39 -389l-275 -1294h-389l275 1294q41 188 41 367q0 30 -2 50l-5 57h389q5 -40 5 -85z" />
    <glyph glyph-name="afii57680" unicode="&#x5e0;" horiz-adv-x="905" 
d="M472 1315q218 0 301 -85q68 -69 68 -199q0 -64 -18 -148l-102 -478q-41 -195 -108 -351l-23 -54h-658l64 299h303q22 49 34 106l102 478q12 76 -11 100.5t-73 24.5t-123 -10l-27 -3l64 304q84 16 207 16z" />
    <glyph glyph-name="afii57681" unicode="&#x5e1;" horiz-adv-x="1308" 
d="M854 842q0 172 -122 172l-79 -4q-128 -140 -174 -363q-25 -114 -25 -191q0 -167 124 -167q175 0 244 324q32 150 32 229zM794.5 1315q270.5 0 382.5 -175q70 -110 70 -276q0 -98 -25 -217q-67 -314 -256 -490t-458 -176t-380 174q-68 108 -68 271q0 100 26 221
q46 214 193 346l-108 -7l65 306q288 23 558.5 23z" />
    <glyph glyph-name="afii57682" unicode="&#x5e2;" horiz-adv-x="1314" 
d="M1373 1295l-172 -570q-52 -176 -121 -288q-219 -362 -713 -437l-462 -70l65 308l321 47l-59 1010h387l38 -562l-4 -324q93 88 157 298l177 588h386z" />
    <glyph glyph-name="afii57683" unicode="&#x5e3;" horiz-adv-x="1309" 
d="M824 861q0 145 -114 145q-143 0 -192 -76q-37 -58 -37 -124q-1 -22 9 -38q30 -53 85 -64l79 -17l-121 -276l-96 3q-246 9 -326 155q-34 62 -34 110.5t0.5 78t18.5 112.5q18 84 70 166q96 150 257.5 214.5t334.5 64.5q453 0 453 -435q0 -106 -27 -232l-242 -1140h-393
l242 1140q33 150 33 213z" />
    <glyph glyph-name="afii57684" unicode="&#x5e4;" horiz-adv-x="1308" 
d="M115 704q0 193 92 337t254 209t348 65q266 0 375 -171q65 -100 65 -264q0 -106 -30.5 -250t-87 -264.5t-122.5 -193t-151.5 -117t-167 -60t-261.5 -15.5t-317 22l-50 7l63 293q223 -22 451 -22q83 0 133 59t73 132t50 195.5t27 180t-22.5 108.5t-93.5 51
q-130 0 -171.5 -56.5t-52.5 -99.5t11.5 -87t82.5 -59l78 -17l-121 -279l-96 6q-306 22 -351 226q-8 38 -8 64z" />
    <glyph glyph-name="afii57685" unicode="&#x5e5;" horiz-adv-x="1213" 
d="M665 418h-31l-194 -910h-388l228 1074l-133 713h418l89 -603h9q51 0 81 34.5t46 112.5l97 456h387l-100 -471q-90 -406 -509 -406z" />
    <glyph glyph-name="afii57686" unicode="&#x5e6;" horiz-adv-x="1307" 
d="M1373 1295l-80 -261q-84 -278 -222 -418q-59 -60 -115 -104l181 -292l-47 -220h-1153l64 299h526l141 -9l-174 296l-311 709h428l204 -499q48 83 83 201l89 298h386z" />
    <glyph glyph-name="afii57687" unicode="&#x5e7;" horiz-adv-x="1388" 
d="M283 -492h-388l270 1272h388zM1440 1071l-328 -556q-154 -263 -194 -454l-13 -61h-385l13 61q16 77 71.5 218.5t115.5 243.5l278 473h-787l64 299h1213z" />
    <glyph glyph-name="afii57688" unicode="&#x5e8;" horiz-adv-x="1126" 
d="M542 1315q148 0 225 -12t129 -33q158 -63 159 -256q0 -78 -25 -192l-175 -822h-388l175 822q7 33 7 61q0 132 -154.5 132t-372.5 -22l64 301q208 21 356 21z" />
    <glyph glyph-name="afii57689" unicode="&#x5e9;" horiz-adv-x="1616" 
d="M503 417h-16l-13 -118h260q125 0 228.5 98.5t168.5 315.5l174 582h377l-179 -591q-106 -351 -315 -527.5t-563 -176.5h-568l167 1295h377l-78 -602q52 0 93 69q17 28 29 67l139 466h374l-137 -461q-100 -337 -389 -403q-63 -14 -129 -14z" />
    <glyph glyph-name="afii57690" unicode="&#x5ea;" horiz-adv-x="1437" 
d="M923.5 1314q320.5 0 404.5 -126q44 -68 44 -159.5t-25 -190.5l-178 -838h-389l175 821q7 33 7 61q0 132 -162 132q-50 0 -70 -1l-132 -618q-52 -241 -195 -336q-117 -78 -312 -78q-85 0 -153 31l-21 11l60 279q72 -14 124 -14t74.5 24.5t34.5 82.5l127 595l-141 -11
l64 298q343 37 663.5 37z" />
    <glyph glyph-name="uni05F3" unicode="&#x5f3;" horiz-adv-x="512" 
d="M94 789q63 150 189 501h348l8 -22q-90 -208 -256 -479h-289z" />
    <glyph glyph-name="uni05F4" unicode="&#x5f4;" horiz-adv-x="1022" 
d="M1135 1268q-96 -224 -254 -479h-289q40 97 99 258l89 243h348zM631 1290l8 -22q-90 -208 -256 -479h-289q46 109 100 258l89 243h348z" />
    <glyph glyph-name="uni2000" unicode="&#x2000;" horiz-adv-x="871" 
 />
    <glyph glyph-name="uni2001" unicode="&#x2001;" horiz-adv-x="1743" 
 />
    <glyph glyph-name="uni2002" unicode="&#x2002;" horiz-adv-x="871" 
 />
    <glyph glyph-name="uni2003" unicode="&#x2003;" horiz-adv-x="1743" 
 />
    <glyph glyph-name="uni2004" unicode="&#x2004;" horiz-adv-x="581" 
 />
    <glyph glyph-name="uni2005" unicode="&#x2005;" horiz-adv-x="435" 
 />
    <glyph glyph-name="uni2006" unicode="&#x2006;" horiz-adv-x="290" 
 />
    <glyph glyph-name="uni2007" unicode="&#x2007;" horiz-adv-x="290" 
 />
    <glyph glyph-name="uni2008" unicode="&#x2008;" horiz-adv-x="217" 
 />
    <glyph glyph-name="uni2009" unicode="&#x2009;" horiz-adv-x="348" 
 />
    <glyph glyph-name="uni200A" unicode="&#x200a;" horiz-adv-x="96" 
 />
    <glyph glyph-name="uni2010" unicode="&#x2010;" horiz-adv-x="674" 
d="M86 705h553l-64 -312h-552z" />
    <glyph glyph-name="uni2011" unicode="&#x2011;" horiz-adv-x="674" 
d="M86 705h553l-64 -312h-552z" />
    <glyph glyph-name="figuredash" unicode="&#x2012;" horiz-adv-x="674" 
d="M86 705h553l-64 -312h-552z" />
    <glyph glyph-name="endash" unicode="&#x2013;" horiz-adv-x="983" 
d="M90 690h871l-60 -274h-868z" />
    <glyph glyph-name="emdash" unicode="&#x2014;" horiz-adv-x="1966" 
d="M90 690h1854l-60 -274h-1851z" />
    <glyph glyph-name="quoteleft" unicode="&#x2018;" horiz-adv-x="500" 
d="M655 1462q-64 -156 -188 -501h-348l-10 22q102 232 258 479h288z" />
    <glyph glyph-name="quoteright" unicode="&#x2019;" horiz-adv-x="500" 
d="M94 961q63 150 189 501h348l8 -22q-90 -208 -256 -479h-289z" />
    <glyph glyph-name="quotesinglbase" unicode="&#x201a;" horiz-adv-x="621" 
d="M-104 -264q44 99 188 502h348l8 -23q-94 -223 -256 -479h-288z" />
    <glyph glyph-name="quotedblleft" unicode="&#x201c;" horiz-adv-x="997" 
d="M614 961l-8 22q111 250 256 479h289q-46 -108 -100 -258l-88 -243h-349zM655 1462q-64 -156 -188 -501h-348l-10 22q102 232 258 479h288z" />
    <glyph glyph-name="quotedblright" unicode="&#x201d;" horiz-adv-x="997" 
d="M1135 1440q-96 -224 -254 -479h-289q40 97 99 258l89 243h348zM631 1462l8 -22q-90 -208 -256 -479h-289q46 109 100 258l89 243h348z" />
    <glyph glyph-name="quotedblbase" unicode="&#x201e;" horiz-adv-x="1122" 
d="M942 215q-113 -255 -258 -479h-287q61 148 147 387l42 115h348zM-104 -264q44 99 188 502h348l8 -23q-94 -223 -256 -479h-288z" />
    <glyph glyph-name="ellipsis" unicode="&#x2026;" horiz-adv-x="1800" 
d="M1186 144q0 92 65 154t165 62q194 0 194 -155q0 -118 -60 -174t-190 -56q-82 0 -128 38q-46 39 -46 131zM600 144q0 92 65 154t165 62q194 0 194 -155q0 -118 -60 -174t-190 -56q-82 0 -128 38q-46 39 -46 131zM12 144q0 92 65 154t165 62q194 0 194 -155
q0 -118 -60 -174t-190 -56q-82 0 -128 38q-46 39 -46 131z" />
    <glyph glyph-name="uni202F" unicode="&#x202f;" horiz-adv-x="348" 
 />
    <glyph glyph-name="guilsinglleft" unicode="&#x2039;" horiz-adv-x="719" 
d="M469 1081l264 -204l-266 -334l111 -330l-334 -137l-183 477v10z" />
    <glyph glyph-name="guilsinglright" unicode="&#x203a;" horiz-adv-x="719" 
d="M250 43l-264 205l266 334l-111 329l332 138l184 -478v-10z" />
    <glyph glyph-name="uni205F" unicode="&#x205f;" horiz-adv-x="435" 
 />
    <glyph glyph-name="Euro" unicode="&#x20ac;" horiz-adv-x="1188" 
d="M905 1178q-143 0 -219 -195h297l-45 -205h-309q-17 -56 -25 -123h246l-43 -204h-227q0 -81 27 -113q27 -31 127 -31t272 68v-330q-126 -65 -356 -65t-340 114t-117 357h-140l43 204h109l22 123h-106l47 205h117q83 244 243 374t375 130t377 -105l-154 -282
q-120 78 -221 78z" />
    <glyph glyph-name="trademark" unicode="&#x2122;" horiz-adv-x="1577" 
d="M903 1141v-400h-192v721h286l138 -479l149 479h277v-721h-195v400q0 74 6 110h-8l-152 -510h-163l-144 510h-8q6 -64 6 -110zM272 741v545h-170v176h537v-176h-170v-545h-197z" />
    <glyph glyph-name="uni25FC" unicode="&#x25fc;" horiz-adv-x="1135" 
d="M0 1135h1135v-1135h-1135v1135z" />
    <glyph glyph-name="uniFB01" unicode="&#xfb01;" horiz-adv-x="1506" 
d="M863 0l239 1133h389l-241 -1133h-387zM-2 -492q-110 0 -207 27v303q63 -18 127 -18q127 0 154 125l190 897h-166l43 190l189 96l16 74q42 190 145 278t273 87q170 0 287 -58l-99 -264q-64 31 -134 31t-87 -72l-16 -71h211l-66 -291h-209l-205 -959q-43 -191 -153 -283
t-293 -92zM1366 1591q198 0 199 -141q-1 -100 -59 -154t-166 -55q-191 0 -191 141q0 102 59 156q58 54 158 53z" />
    <glyph glyph-name="uniFB02" unicode="&#xfb02;" horiz-adv-x="1506" 
d="M1192 1556h387l-329 -1556h-387zM-2 -492q-110 0 -207 27v303q63 -18 127 -18q127 0 154 125l190 897h-166l43 190l189 96l16 74q42 190 145 278t273 87q170 0 287 -58l-99 -264q-64 31 -134 31t-87 -72l-16 -71h211l-66 -291h-209l-205 -959q-43 -191 -153 -283
t-293 -92z" />
    <glyph glyph-name="uniFB2A" unicode="&#xfb2a;" horiz-adv-x="1616" 
d="M503 417h-16l-13 -118h260q124 1 228 99t169 315l174 582h377l-179 -591q-106 -351 -315 -527t-563 -177h-568l167 1295h377l-78 -602q52 0 93 69q17 28 29 67l139 466h374l-137 -461q-100 -337 -389 -403q-63 -14 -129 -14zM1660 1562q44 0 62 -20t18 -39q0 -59 -36 -87
t-80 -27q-44 0 -61 19t-17 37q0 63 36 90q34 27 78 27z" />
    <glyph glyph-name="uniFB2B" unicode="&#xfb2b;" horiz-adv-x="1616" 
d="M503 417h-16l-13 -118h260q124 1 228 99t169 315l174 582h377l-179 -591q-106 -351 -315 -527t-563 -177h-568l167 1295h377l-78 -602q52 0 93 69q17 28 29 67l139 466h374l-137 -461q-100 -337 -389 -403q-63 -14 -129 -14zM320 1562q44 0 62 -20t18 -39q0 -59 -36 -87
t-80 -27q-44 0 -61 19t-17 37q0 63 36 90q34 27 78 27z" />
    <glyph glyph-name="uniFB2C" unicode="&#xfb2c;" horiz-adv-x="1616" 
d="M879 493q54 -1 54 -55q0 -26 -25 -44t-55 -19q-53 0 -53 43q0 37 24 56t55 19zM503 417h-16l-13 -118h260q124 1 228 99t169 315l174 582h377l-179 -591q-106 -351 -315 -527t-563 -177h-568l167 1295h377l-78 -602q52 0 93 69q17 28 29 67l139 466h374l-137 -461
q-100 -337 -389 -403q-63 -14 -129 -14zM1476 1562q44 0 62 -20t18 -39q0 -59 -36 -87t-80 -27q-44 0 -61 19t-17 37q0 63 36 90q34 27 78 27z" />
    <glyph glyph-name="uniFB2D" unicode="&#xfb2d;" horiz-adv-x="1616" 
d="M879 493q54 -1 54 -55q0 -26 -25 -44t-55 -19q-53 0 -53 43q0 37 24 56t55 19zM503 417h-16l-13 -118h260q124 1 228 99t169 315l174 582h377l-179 -591q-106 -351 -315 -527t-563 -177h-568l167 1295h377l-78 -602q52 0 93 69q17 28 29 67l139 466h374l-137 -461
q-100 -337 -389 -403q-63 -14 -129 -14zM320 1562q44 0 62 -20t18 -39q0 -59 -36 -87t-80 -27q-44 0 -61 19t-17 37q0 63 36 90q34 27 78 27z" />
    <glyph glyph-name="uniFB2E" unicode="&#xfb2e;" horiz-adv-x="1378" 
d="M697 -242h-393l24 116h393zM1396 1295l-100 -471q-33 -160 -111 -245t-207 -129q125 -298 190 -450h-433l-226 584q-26 -29 -43 -110l-101 -474h-387l100 471q26 119 91 218q66 99 231 157q-153 360 -190 449h432l165 -438l61 -144q24 36 39 108l101 474h388z" />
    <glyph glyph-name="uniFB2F" unicode="&#xfb2f;" horiz-adv-x="1378" 
d="M692 -243h-136l-43 -202h-111l43 202h-135l25 117h382zM1396 1295l-100 -471q-33 -160 -111 -245t-207 -129q125 -298 190 -450h-433l-226 584q-26 -29 -43 -110l-101 -474h-387l100 471q26 119 91 218q66 99 231 157q-153 360 -190 449h432l165 -438l61 -144
q24 36 39 108l101 474h388z" />
    <glyph glyph-name="uniFB30" unicode="&#xfb30;" horiz-adv-x="1378" 
d="M552 248q44 0 62 -20t18 -39q0 -59 -36 -87t-80 -27q-44 0 -61 19t-17 37q0 63 36 90q34 27 78 27zM1396 1295l-100 -471q-33 -160 -111 -245t-207 -129q125 -298 190 -450h-433l-226 584q-26 -29 -43 -110l-101 -474h-387l100 471q26 119 91 218q66 99 231 157
q-153 360 -190 449h432l165 -438l61 -144q24 36 39 108l101 474h388z" />
    <glyph glyph-name="uniFB31" unicode="&#xfb31;" horiz-adv-x="1196" 
d="M402 760q44 0 61 -20q18 -20 18 -39q0 -59 -36 -87t-80 -27q-44 0 -61 19t-17 37q-1 63 35 90t80 27zM1090 996q0 -47 -24 -157l-115 -540h141l-64 -299h-1086l64 299h557l111 523q7 33 7 61q0 132 -163 132q-125 0 -302 -17l-63 -6l63 297q127 26 413 26t387 -95
q66 -62 72 -141q2 -36 2 -83z" />
    <glyph glyph-name="uniFB32" unicode="&#xfb32;" horiz-adv-x="984" 
d="M304 760q44 0 61 -20q18 -20 18 -39q0 -59 -36 -87t-80 -27q-44 0 -61 19t-17 37q-1 63 35 90t80 27zM549 1315q247 0 326 -92q50 -59 50 -139t-21 -182l-192 -902h-291l-22 182h-17q-98 -126 -238 -180q-58 -22 -110 -22t-122 20l106 343q65 -15 125 -15q109 0 191 54
t107 167l71 335q7 31 7 55q0 70 -63 70q-89 0 -177 -22l-28 -7l64 303q133 32 234 32z" />
    <glyph glyph-name="uniFB33" unicode="&#xfb33;" horiz-adv-x="1135" 
d="M308 760q44 0 61 -20q18 -20 18 -39q0 -59 -36 -87t-80 -27q-44 0 -61 19t-17 37q-1 63 35 90t80 27zM1254 1295l-59 -274q-105 -39 -151 -87t-69 -155l-166 -779h-388l167 786q29 132 138 210h-621l64 299h1085z" />
    <glyph glyph-name="uniFB34" unicode="&#xfb34;" horiz-adv-x="1349" 
d="M-4 0l161 755h387l-161 -755h-387zM696 760q44 0 62 -20t18 -39q0 -59 -36 -87t-80 -27q-44 0 -61 19t-17 37q0 63 36 90q34 27 78 27zM1279 983q0 -47 -25 -161l-175 -822h-389l175 822q7 33 7 61q0 132 -170 132t-414 -26l-84 -9l63 297q246 38 543 38t396 -101
q64 -66 70 -148q2 -36 3 -83z" />
    <glyph glyph-name="uniFB35" unicode="&#xfb35;" horiz-adv-x="658" 
d="M24 760q44 0 62 -20t18 -39q0 -59 -36 -87t-80 -27q-44 0 -61 19t-17 37q0 63 36 90q34 27 78 27zM-2 0l276 1295h388l-276 -1295h-388z" />
    <glyph glyph-name="uniFB36" unicode="&#xfb36;" horiz-adv-x="731" 
d="M28 760q44 0 62 -20t18 -39q0 -59 -36 -87t-80 -27q-44 0 -61 19t-17 37q0 63 36 90q34 27 78 27zM847 1295l-60 -279q-110 -75 -182 -203t-123 -368l-95 -445h-388l95 445q79 373 330 551h-257l64 299h616z" />
    <glyph glyph-name="uniFB38" unicode="&#xfb38;" horiz-adv-x="1351" 
d="M716 760q44 0 61 -20q18 -20 18 -39q0 -59 -36 -87t-80 -27q-44 0 -61 19t-17 37q-1 63 35 90t80 27zM956 1315q278 0 334 -201q17 -59 17 -163t-38 -286q-69 -325 -259 -505t-467 -179q-156 -1 -264 81q-168 126 -168 398q0 92 23 205l134 630h389l-134 -630
q-25 -117 -25 -198q0 -176 120 -176q182 -1 253 337q34 160 34 220q0 58 -9 85q-22 75 -117 75l-50 -5l64 299q87 13 163 13z" />
    <glyph glyph-name="uniFB39" unicode="&#xfb39;" horiz-adv-x="635" 
d="M64 1012q44 0 61 -20q18 -20 18 -39q0 -59 -36 -87t-80 -27q-44 0 -61 19t-17 37q-1 63 35 90t80 27zM250 419h-173l186 876h388l-128 -604z" />
    <glyph glyph-name="uniFB3A" unicode="&#xfb3a;" horiz-adv-x="1108" 
d="M312 760q44 0 62 -20t18 -39q0 -59 -36 -87t-80 -27q-44 0 -61 19t-17 37q0 63 36 90q34 27 78 27zM568 1315q224 0 326 -86q130 -109 130 -300q0 -98 -21 -200l-259 -1221h-387l260 1223q16 75 16 134q1 148 -203 148q-126 0 -274 -13l-50 -5l65 304q173 16 397 16z" />
    <glyph glyph-name="uniFB3B" unicode="&#xfb3b;" horiz-adv-x="1104" 
d="M376 760q44 0 61 -20q18 -20 18 -39q0 -59 -36 -87t-80 -27q-44 0 -61 19t-17 37q-1 63 35 90t80 27zM602 1315q224 -1 328 -87q130 -108 129 -299q0 -98 -21 -200l-35 -164q-67 -323 -255 -465q-159 -120 -419 -120t-399 27l64 303q152 -18 367 -18q107 0 167 72t87 201
l36 166q16 74 16 107q1 84 -31 120q-48 54 -173 55q-125 0 -273 -13l-50 -5l64 304q174 16 398 16z" />
    <glyph glyph-name="uniFB3C" unicode="&#xfb3c;" horiz-adv-x="1131" 
d="M334 760q44 0 62 -20t18 -39q0 -59 -36 -87t-80 -27q-44 0 -61 19t-17 37q0 63 36 90q34 27 78 27zM1232 1295l-50 -237l-293 -577l2 1l-212 -482h-382l218 495l256 501h-642l118 555h388l-55 -256h652z" />
    <glyph glyph-name="uniFB3E" unicode="&#xfb3e;" horiz-adv-x="1425" 
d="M734 760q44 0 62 -20t18 -39q0 -59 -36 -87t-80 -27q-44 0 -61 19t-17 37q0 63 36 90q34 27 78 27zM1024 1315q82 1 152 -29q166 -71 166 -286q0 -125 -32 -271l-155 -729h-626l64 299h231l91 430q30 145 16 199t-56 70q-25 9 -71 9q-46 1 -102 -33t-84 -67l-29 -33
l-261 -874h-382l249 818q57 173 57 333q0 71 -11 144h340q22 -59 16 -132h14q178 152 413 152z" />
    <glyph glyph-name="uniFB40" unicode="&#xfb40;" horiz-adv-x="905" 
d="M220 760q44 0 61 -20q18 -20 18 -39q0 -59 -36 -87t-80 -27q-44 0 -61 19t-17 37q-1 63 35 90t80 27zM472 1315q218 0 301 -85q68 -69 68 -199q0 -64 -18 -148l-102 -478q-41 -195 -108 -351l-23 -54h-658l64 299h303q22 49 34 106l102 478q12 76 -11 101q-23 24 -73 24
t-123 -10l-27 -3l64 304q84 16 207 16z" />
    <glyph glyph-name="uniFB41" unicode="&#xfb41;" horiz-adv-x="1308" 
d="M678 760q44 0 61 -20q18 -20 18 -39q0 -59 -36 -87t-80 -27q-44 0 -61 19t-17 37q-1 63 35 90t80 27zM854 842q0 172 -122 172l-79 -4q-128 -140 -174 -363q-25 -114 -25 -191q0 -167 124 -167q175 0 244 324q32 150 32 229zM794 1315q270 0 383 -175q70 -110 70 -276
q0 -98 -25 -217q-67 -314 -256 -490t-458 -176t-380 174q-68 108 -68 271q0 100 26 221q46 214 193 346l-108 -7l65 306q288 23 558 23z" />
    <glyph glyph-name="uniFB43" unicode="&#xfb43;" horiz-adv-x="1309" 
d="M670 954q44 0 61 -20q18 -20 18 -39q0 -59 -36 -87t-80 -27q-44 0 -61 19t-17 37q-1 63 35 90t80 27zM824 861q0 145 -114 145q-143 0 -192 -76q-37 -58 -37 -124q-1 -22 9 -38q30 -53 85 -64l79 -17l-121 -276l-96 3q-246 9 -326 155q-34 62 -34 111q1 48 1 78t18 112
q18 84 70 166q96 150 257 214q162 65 335 65q453 0 453 -435q0 -106 -27 -232l-242 -1140h-393l242 1140q33 150 33 213z" />
    <glyph glyph-name="uniFB44" unicode="&#xfb44;" horiz-adv-x="1308" 
d="M714 933q44 -1 61 -21q18 -20 18 -38q0 -58 -36 -86t-80 -28t-61 19t-17 37q-1 63 35 90t80 27zM115 704q0 193 92 337t254 209t348 65q266 0 375 -171q65 -100 65 -264q-1 -106 -31 -250t-86 -264t-123 -194q-65 -72 -151 -116t-168 -60t-261 -16q-180 0 -317 22l-50 7
l63 293q223 -22 451 -22q83 0 133 59t73 132t50 196q27 121 27 179q-1 58 -23 109t-93 51q-130 0 -172 -56q-41 -56 -52 -100q-11 -43 11 -87t83 -59l78 -17l-121 -279l-96 6q-306 22 -351 226q-8 38 -8 64z" />
    <glyph glyph-name="uniFB46" unicode="&#xfb46;" horiz-adv-x="1307" 
d="M256 615q44 -1 62 -21t18 -38q0 -58 -36 -86t-80 -28t-61 19t-17 37q0 63 36 90q34 27 78 27zM1373 1295l-80 -261q-84 -278 -222 -418q-59 -60 -115 -104l181 -292l-47 -220h-1153l64 299h526l141 -9l-174 296l-311 709h428l204 -499q48 83 83 201l89 298h386z" />
    <glyph glyph-name="uniFB47" unicode="&#xfb47;" horiz-adv-x="1388" 
d="M674 760q44 0 61 -20q18 -20 18 -39q0 -59 -36 -87t-80 -27q-44 0 -61 19t-17 37q-1 63 35 90t80 27zM-105 -492l270 1272h388l-270 -1272h-388zM1440 1071l-328 -556q-154 -263 -194 -454l-13 -61h-385l13 61q15 77 71 219t116 243l278 473h-787l64 299h1213z" />
    <glyph glyph-name="uniFB48" unicode="&#xfb48;" horiz-adv-x="1126" 
d="M382 760q44 0 61 -20q18 -20 18 -39q0 -59 -36 -87t-80 -27q-44 0 -61 19t-17 37q-1 63 35 90t80 27zM542 1315q148 0 225 -12t129 -33q158 -63 159 -256q0 -78 -25 -192l-175 -822h-388l175 822q7 33 7 61q-1 132 -155 132t-372 -22l64 301q208 21 356 21z" />
    <glyph glyph-name="uniFB49" unicode="&#xfb49;" horiz-adv-x="1616" 
d="M879 493q54 -1 54 -55q0 -26 -25 -44t-55 -19q-53 0 -53 43q0 37 24 56t55 19zM503 417h-16l-13 -118h260q124 1 228 99t169 315l174 582h377l-179 -591q-106 -351 -315 -527t-563 -177h-568l167 1295h377l-78 -602q52 0 93 69q17 28 29 67l139 466h374l-137 -461
q-100 -337 -389 -403q-63 -14 -129 -14z" />
    <glyph glyph-name="uniFB4A" unicode="&#xfb4a;" horiz-adv-x="1437" 
d="M802 750q44 0 61 -20q18 -20 18 -39q0 -59 -36 -87t-80 -27q-44 0 -61 19t-17 37q-1 63 35 90t80 27zM924 1314q320 0 404 -126q44 -68 44 -160t-25 -190l-178 -838h-389l175 821q7 33 7 61q0 132 -162 132q-50 0 -70 -1l-132 -618q-52 -241 -195 -336q-117 -78 -312 -78
q-85 0 -153 31l-21 11l60 279q72 -14 124 -14q53 0 75 24t34 83l127 595l-141 -11l64 298q344 37 664 37z" />
    <glyph glyph-name="uniFB4B" unicode="&#xfb4b;" horiz-adv-x="658" 
d="M-3 0l276 1295h388l-276 -1295h-388zM416 1562q44 0 62 -20t18 -39q0 -59 -36 -87t-80 -27q-44 0 -61 19t-17 37q0 63 36 90q34 27 78 27z" />
    </font>
</defs>
</svg>
